<?xml version="1.0" encoding="UTF-8"?>
<svg width="80px" height="200px" viewBox="0 0 80 200" version="1.1" xmlns="http://www.w3.org/2000/svg" xmlns:xlink="http://www.w3.org/1999/xlink">
    <!-- Generator: Sketch 58 (84663) - https://sketch.com -->
    <title>0202</title>
    <desc>Created with Sketch.</desc>
    <g id="0202" stroke="none" stroke-width="1" fill="none" fill-rule="evenodd">
        <rect id="base" fill="#888888" x="0" y="0" width="80" height="200"></rect>
        <path d="M80,0 L80,200 L0,200 L0,0 L80,0 Z M67.5,163 L12.5,163 C12.2545401,163 12.0503916,163.176875 12.0080557,163.410124 L12,163.5 L12,181.5 C12,181.74546 12.1768752,181.949608 12.4101244,181.991944 L12.5,182 L67.5,182 C67.7454599,182 67.9496084,181.823125 67.9919443,181.589876 L68,181.5 L68,163.5 C68,163.223858 67.7761424,163 67.5,163 Z M25.5,58 L12.5,58 C12.2545401,58 12.0503916,58.1768752 12.0080557,58.4101244 L12,58.5 L12,156.5 C12,156.74546 12.1768752,156.949608 12.4101244,156.991944 L12.5,157 L25.5,157 C25.7454599,157 25.9496084,156.823125 25.9919443,156.589876 L26,156.5 L26,58.5 C26,58.2238576 25.7761424,58 25.5,58 Z M67.5,58 L54.5,58 C54.2545401,58 54.0503916,58.1768752 54.0080557,58.4101244 L54,58.5 L54,156.5 C54,156.74546 54.1768752,156.949608 54.4101244,156.991944 L54.5,157 L67.5,157 C67.7454599,157 67.9496084,156.823125 67.9919443,156.589876 L68,156.5 L68,58.5 C68,58.2238576 67.7761424,58 67.5,58 Z M46.5,89 L33.5,89 C33.2238576,89 33,89.2238576 33,89.5 L33,89.5 L33,156.5 C33,156.776142 33.2238576,157 33.5,157 L33.5,157 L46.5,157 C46.7761424,157 47,156.776142 47,156.5 L47,156.5 L47,89.5 C47,89.2238576 46.7761424,89 46.5,89 L46.5,89 Z M40,47 C36.2145483,47 33.1309013,50.0047834 33.004059,53.7593502 L33,54 L33,86.5 C33,86.7454599 33.1768752,86.9496084 33.4101244,86.9919443 L33.5,87 L46.5,87 C46.7454599,87 46.9496084,86.8231248 46.9919443,86.5898756 L47,86.5 L47,54 C47,50.1340068 43.8659932,47 40,47 Z M35.5,19 L12.5,19 C12.2545401,19 12.0503916,19.1768752 12.0080557,19.4101244 L12,19.5 L12,51.5003278 C12,51.7457877 12.1768752,51.9499362 12.4101244,51.9922722 L12.5,52.0003278 L26.322108,52.0003278 C27.3863766,47.1250532 30.9908707,43.1992486 35.6789533,41.679551 L36.0002573,41.5796808 L36,19.5 C36,19.2238599 35.7761401,19 35.5,19 Z M67.5002573,19 L44.5002573,19 C44.2241172,19 44.0002573,19.2238599 44.0002573,19.5 L44,41.5796808 C48.8442339,43.0212933 52.5896928,47.0142515 53.6781494,52.0003278 L67.5002573,52.0003278 C67.7763997,52.0003278 68.0002573,51.7764702 68.0002573,51.5003278 L68.0002573,19.5 C68.0002573,19.2238576 67.7763997,19 67.5002573,19 Z" id="main" fill="#FFFFFF"></path>
        <path d="M13.5,59 L24.5,59 C24.7761424,59 25,59.2238576 25,59.5 L25,155.5 C25,155.776142 24.7761424,156 24.5,156 L13.5,156 C13.2238576,156 13,155.776142 13,155.5 L13,59.5 C13,59.2238576 13.2238576,59 13.5,59 Z" id="panel" fill="#FFFFFF"></path>
        <path d="M13.5,164 L66.5,164 C66.7761424,164 67,164.223858 67,164.5 L67,180.5 C67,180.776142 66.7761424,181 66.5,181 L13.5,181 C13.2238576,181 13,180.776142 13,180.5 L13,164.5 C13,164.223858 13.2238576,164 13.5,164 Z" id="panel" fill="#FFFFFF"></path>
        <path d="M55.5,59 L66.5,59 C66.7761424,59 67,59.2238576 67,59.5 L67,155.5 C67,155.776142 66.7761424,156 66.5,156 L55.5,156 C55.2238576,156 55,155.776142 55,155.5 L55,59.5 C55,59.2238576 55.2238576,59 55.5,59 Z" id="panel" fill="#FFFFFF"></path>
        <path d="M34.5,90 L45.5,90 C45.7761424,90 46,90.2238576 46,90.5 L46,155.5 C46,155.776142 45.7761424,156 45.5,156 L34.5,156 C34.2238576,156 34,155.776142 34,155.5 L34,90.5 C34,90.2238576 34.2238576,90 34.5,90 Z" id="panel" fill="#FFFFFF"></path>
        <path d="M40,48 C43.3137085,48 46,50.6862915 46,54 L46,85.5 C46,85.7761424 45.7761424,86 45.5,86 L34.5,86 C34.2238576,86 34,85.7761424 34,85.5 L34,54 C34,50.6862915 36.6862915,48 40,48 Z" id="panel" fill="#FFFFFF"></path>
        <path d="M13,20 L13,51.0003278 L25.5394245,51.0003278 C26.8413833,46.2842516 30.3938506,42.4814348 35.0002489,40.8537012 L35,20 L13,20 Z" id="panel" fill="#FFFFFF"></path>
        <path d="M67.0002489,20 L67.0002489,51.0003278 L54.4608244,51.0003278 C53.1588656,46.2842516 49.6063982,42.4814348 45,40.8537012 L45.0002489,20 L67.0002489,20 Z" id="panel" fill="#FFFFFF"></path>
        <circle id="peephole" fill="#516DBF" cx="40" cy="55.5" r="1.5"></circle>
    </g>
</svg>