<?xml version="1.0" encoding="UTF-8"?>
<svg width="80px" height="200px" viewBox="0 0 80 200" version="1.1" xmlns="http://www.w3.org/2000/svg" xmlns:xlink="http://www.w3.org/1999/xlink">
    <!-- Generator: Sketch 58 (84663) - https://sketch.com -->
    <title>0204</title>
    <desc>Created with Sketch.</desc>
    <g id="0204" stroke="none" stroke-width="1" fill="none" fill-rule="evenodd">
        <rect id="base" fill="#888888" x="0" y="0" width="80" height="200"></rect>
        <path d="M80,0 L80,200 L0,200 L0,0 L80,0 Z M36,154 L12,154 C11.7545401,154 11.5503916,154.176875 11.5080557,154.410124 L11.5,154.5 L11.5,176.5 C11.5,176.74546 11.6768752,176.949608 11.9101244,176.991944 L12,177 L36,177 C36.2454599,177 36.4496084,176.823125 36.4919443,176.589876 L36.5,176.5 L36.5,154.5 C36.5,154.223858 36.2761424,154 36,154 Z M68,154 L44,154 C43.7545401,154 43.5503916,154.176875 43.5080557,154.410124 L43.5,154.5 L43.5,176.5 C43.5,176.74546 43.6768752,176.949608 43.9101244,176.991944 L44,177 L68,177 C68.2454599,177 68.4496084,176.823125 68.4919443,176.589876 L68.5,176.5 L68.5,154.5 C68.5,154.223858 68.2761424,154 68,154 Z M23.0514412,52 L12,52 C11.7545401,52 11.5503916,52.1768752 11.5080557,52.4101244 L11.5,52.5 L11.5,146.5 C11.5,146.74546 11.6768752,146.949608 11.9101244,146.991944 L12,147 L36,147 C36.2454593,147 36.4496082,146.823124 36.4919443,146.589875 L36.5,146.5 L36.5003049,63.6799986 C29.9377751,62.462169 24.7087179,57.886821 23.0514412,52 Z M68.0003049,52 L56.9488636,52 C55.291587,57.886821 50.0625298,62.462169 43.5,63.6799986 L43.5003049,146.5 C43.5003049,146.776142 43.7241632,147 44.0003049,147 L68.0003049,147 C68.2764472,147 68.5003049,146.776142 68.5003049,146.5 L68.5003049,52.5 C68.5003049,52.2238576 68.2764472,52 68.0003049,52 Z M40.5,38 C33.5964406,38 28,42.4771525 28,48 C28,53.5228475 33.5964406,58 40.5,58 C47.4035594,58 53,53.5228475 53,48 C53,42.4771525 47.4035594,38 40.5,38 Z M36.5001033,13.1026791 C27.4337052,13.5701435 19.0817657,15.6124258 12.1460526,18.7908567 L11.5,19.0921498 L11.5,43.5 C11.5,43.7454599 11.6768752,43.9496084 11.9101244,43.9919443 L12,44 L23.0671401,44 C24.7063512,38.338976 29.7431798,33.8906209 36.1301414,32.4747712 L36.5001033,32.3964649 L36.5001033,13.1026791 Z M43.5,13.1026791 L43.5,32.3964649 C50.0619428,33.7199788 55.2622288,38.2301102 56.9329632,44 L68.0001033,44 C68.2762457,44 68.5001033,43.7761424 68.5001033,43.5 L68.5001033,19.0921498 C61.4396361,15.7416063 52.8497231,13.5847517 43.5,13.1026791 Z" id="main" fill="#FFFFFF"></path>
        <path d="M13,155 L35,155 C35.2761424,155 35.5,155.223858 35.5,155.5 L35.5,175.5 C35.5,175.776142 35.2761424,176 35,176 L13,176 C12.7238576,176 12.5,175.776142 12.5,175.5 L12.5,155.5 C12.5,155.223858 12.7238576,155 13,155 Z" id="panel" fill="#FFFFFF"></path>
        <path d="M45,155 L67,155 C67.2761424,155 67.5,155.223858 67.5,155.5 L67.5,175.5 C67.5,175.776142 67.2761424,176 67,176 L45,176 C44.7238576,176 44.5,175.776142 44.5,175.5 L44.5,155.5 C44.5,155.223858 44.7238576,155 45,155 Z" id="panel" fill="#FFFFFF"></path>
        <path d="M35.5001033,14.1629218 C27.1031744,14.713495 19.2013382,16.6468165 12.5,19.7286966 L12.5,42.5 C12.5,42.7761424 12.7238576,43 13,43 L22.3348365,43 C24.2434272,37.4379614 29.2399666,33.1179576 35.5001033,31.5946333 L35.5001033,14.1629218 Z" id="panel" fill="#FFFFFF"></path>
        <path d="M40.5,57.0909091 C34.1222983,57.0909091 29,52.9930705 29,48 C29,43.0069295 34.1222983,38.9090909 40.5,38.9090909 C46.8777017,38.9090909 52,43.0069295 52,48 C52,52.9930705 46.8777017,57.0909091 40.5,57.0909091 Z" id="panel" fill="#FFFFFF"></path>
        <path d="M44.5,14.1629218 C52.896929,14.713495 60.7987651,16.6468165 67.5001033,19.7286966 L67.5001033,42.5 C67.5001033,42.7761424 67.2762457,43 67.0001033,43 L57.6652668,43 C55.7566761,37.4379614 50.7601368,33.1179576 44.5,31.5946333 L44.5,14.1629218 Z" id="panel" fill="#FFFFFF"></path>
        <path d="M35.1260403,64.4037764 C29.037809,62.8797605 24.1724044,58.5633077 22.3131655,53 L12.5,53 L12.5,146 L35.5,146 L35.5003019,64.4935812 L35.1260403,64.4037764 Z" id="panel" fill="#FFFFFF"></path>
        <path d="M44.8742616,64.4037764 C50.9624928,62.8797605 55.8278974,58.5633077 57.6871364,53 L67.5003019,53 L67.5003019,146 L44.5003019,146 L44.5,64.4935812 L44.8742616,64.4037764 Z" id="panel" fill="#FFFFFF"></path>
        <circle id="peephole" fill="#516DBF" cx="40.5" cy="47.5" r="1.5"></circle>
    </g>
</svg>