<?xml version="1.0" encoding="UTF-8"?>
<svg width="80px" height="200px" viewBox="0 0 80 200" version="1.1" xmlns="http://www.w3.org/2000/svg" xmlns:xlink="http://www.w3.org/1999/xlink" style="background: #000000;">
    <!-- Generator: Sketch 58 (84663) - https://sketch.com -->
    <title>0205</title>
    <desc>Created with Sketch.</desc>
    <g id="0205" stroke="none" stroke-width="1" fill="none" fill-rule="evenodd">
        <rect fill="#000000" x="0" y="0" width="80" height="200"></rect>
        <rect id="base" fill="#888888" x="0" y="0" width="80" height="200"></rect>
        <path d="M80,0 L80,200 L0,200 L0,0 L80,0 Z M26.322108,144 L12.5,144 C12.2238576,144 12,144.223858 12,144.5 L12,176.500328 C12,176.77647 12.2238576,177.000328 12.5,177.000328 L35.5,177.000328 C35.7761401,177.000328 36,176.776468 36,176.500328 L36.0002573,154.420647 C31.1560234,152.979034 27.4105645,148.986076 26.322108,144 Z M67.5002573,144 L53.6781494,144 C52.6138808,148.875275 49.0093866,152.801079 44.321304,154.320777 L44,154.420647 L44.0002573,176.500328 C44.0002573,176.745786 44.1771343,176.949936 44.4103823,176.992272 L44.5002573,177.000328 L67.5002573,177.000328 C67.7457172,177.000328 67.9498657,176.823453 67.9922017,176.590203 L68.0002573,176.500328 L68.0002573,144.5 C68.0002573,144.223858 67.7763997,144 67.5002573,144 Z M40,46 C36.1340068,46 33,49.1340068 33,53 L33,53 L33,142 C33,145.865993 36.1340068,149 40,149 C43.8659932,149 47,145.865993 47,142 L47,142 L47,53 C47,49.1340068 43.8659932,46 40,46 Z M23.5,58 L12.5,58 C12.2545401,58 12.0503916,58.1768752 12.0080557,58.4101244 L12,58.5 L12,136.5 C12,136.74546 12.1768752,136.949608 12.4101244,136.991944 L12.5,137 L23.5,137 C23.7454599,137 23.9496084,136.823125 23.9919443,136.589876 L24,136.5 L24,58.5 C24,58.2238576 23.7761424,58 23.5,58 Z M67.5,58 L56.5,58 C56.2545401,58 56.0503916,58.1768752 56.0080557,58.4101244 L56,58.5 L56,136.5 C56,136.74546 56.1768752,136.949608 56.4101244,136.991944 L56.5,137 L67.5,137 C67.7454599,137 67.9496084,136.823125 67.9919443,136.589876 L68,136.5 L68,58.5 C68,58.2238576 67.7761424,58 67.5,58 Z M35.5,18 L12.5,18 C12.2545401,18 12.0503916,18.1768752 12.0080557,18.4101244 L12,18.5 L12,50.5003278 C12,50.7457877 12.1768752,50.9499362 12.4101244,50.9922722 L12.5,51.0003278 L26.322108,51.0003278 C27.3863766,46.1250532 30.9908707,42.1992486 35.6789533,40.679551 L36.0002573,40.5796808 L36,18.5 C36,18.2238599 35.7761401,18 35.5,18 Z M67.5002573,18 L44.5002573,18 C44.2241172,18 44.0002573,18.2238599 44.0002573,18.5 L44,40.5796808 C48.8442339,42.0212933 52.5896928,46.0142515 53.6781494,51.0003278 L67.5002573,51.0003278 C67.7763997,51.0003278 68.0002573,50.7764702 68.0002573,50.5003278 L68.0002573,18.5 C68.0002573,18.2238576 67.7763997,18 67.5002573,18 Z" id="main" fill="#FFFFFF"></path>
        <path d="M13,19 L13,50.0003278 L25.5394245,50.0003278 C26.8413833,45.2842516 30.3938506,41.4814348 35.0002489,39.8537012 L35,19 L13,19 Z" id="panel" fill="#FFFFFF"></path>
        <path d="M67.0002489,19 L67.0002489,50.0003278 L54.4608244,50.0003278 C53.1588656,45.2842516 49.6063982,41.4814348 45,39.8537012 L45.0002489,19 L67.0002489,19 Z" id="panel" fill="#FFFFFF"></path>
        <path d="M13,176.000328 L13,145 L25.5394245,145 C26.8413833,149.716076 30.3938506,153.518893 35.0002489,155.146627 L35,176.000328 L13,176.000328 Z" id="panel" fill="#FFFFFF"></path>
        <path d="M67.0002489,176.000328 L67.0002489,145 L54.4608244,145 C53.1588656,149.716076 49.6063982,153.518893 45,155.146627 L45.0002489,176.000328 L67.0002489,176.000328 Z" id="panel" fill="#FFFFFF"></path>
        <path d="M13.5,59 L22.5,59 C22.7761424,59 23,59.2238576 23,59.5 L23,135.5 C23,135.776142 22.7761424,136 22.5,136 L13.5,136 C13.2238576,136 13,135.776142 13,135.5 L13,59.5 C13,59.2238576 13.2238576,59 13.5,59 Z" id="panel" fill="#FFFFFF"></path>
        <path d="M57.5,59 L66.5,59 C66.7761424,59 67,59.2238576 67,59.5 L67,135.5 C67,135.776142 66.7761424,136 66.5,136 L57.5,136 C57.2238576,136 57,135.776142 57,135.5 L57,59.5 C57,59.2238576 57.2238576,59 57.5,59 Z" id="panel" fill="#FFFFFF"></path>
        <path d="M40,47 C43.3137085,47 46,49.6862915 46,53 L46,142 C46,145.313708 43.3137085,148 40,148 C36.6862915,148 34,145.313708 34,142 L34,53 C34,49.6862915 36.6862915,47 40,47 Z" id="panel" fill="#FFFFFF"></path>
    </g>
</svg>