<?xml version="1.0" encoding="UTF-8"?>
<svg width="80px" height="200px" viewBox="0 0 80 200" version="1.1" xmlns="http://www.w3.org/2000/svg" xmlns:xlink="http://www.w3.org/1999/xlink">
    <!-- Generator: Sketch 58 (84663) - https://sketch.com -->
    <title>0301</title>
    <desc>Created with Sketch.</desc>
    <g id="0301" stroke="none" stroke-width="1" fill="none" fill-rule="evenodd">
        <rect id="base" fill="#888888" x="0" y="0" width="80" height="200"></rect>
        <path d="M80,0 L80,200 L0,200 L0,0 L80,0 Z M27.5,105 L12.5,105 C12.2545401,105 12.0503916,105.176875 12.0080557,105.410124 L12,105.5 L12,184.5 C12,184.74546 12.1768752,184.949608 12.4101244,184.991944 L12.5,185 L27.5,185 C27.7454599,185 27.9496084,184.823125 27.9919443,184.589876 L28,184.5 L28,105.5 C28,105.223858 27.7761424,105 27.5,105 Z M47.5,135 L32.5,135 C32.2545401,135 32.0503916,135.176875 32.0080557,135.410124 L32,135.5 L32,184.5 C32,184.74546 32.1768752,184.949608 32.4101244,184.991944 L32.5,185 L47.5,185 C47.7454599,185 47.9496084,184.823125 47.9919443,184.589876 L48,184.5 L48,135.5 C48,135.223858 47.7761424,135 47.5,135 Z M67.5,165 L52.5,165 C52.2238576,165 52,165.223858 52,165.5 L52,165.5 L52,184.5 C52,184.776142 52.2238576,185 52.5,185 L52.5,185 L67.5,185 C67.7761424,185 68,184.776142 68,184.5 L68,184.5 L68,165.5 C68,165.223858 67.7761424,165 67.5,165 L67.5,165 Z M67.5,145 L52.5,145 C52.2545401,145 52.0503916,145.176875 52.0080557,145.410124 L52,145.5 L52,160.5 C52,160.74546 52.1768752,160.949608 52.4101244,160.991944 L52.5,161 L67.5,161 C67.7454599,161 67.9496084,160.823125 67.9919443,160.589876 L68,160.5 L68,145.5 C68,145.223858 67.7761424,145 67.5,145 Z M67.5,15 L52.5,15 C52.2545401,15 52.0503916,15.1768752 52.0080557,15.4101244 L52,15.5 L52,139.5 C52,139.74546 52.1768752,139.949608 52.4101244,139.991944 L52.5,140 L67.5,140 C67.7454599,140 67.9496084,139.823125 67.9919443,139.589876 L68,139.5 L68,15.5 C68,15.2238576 67.7761424,15 67.5,15 Z M47.5,114 L32.5,114 C32.2545401,114 32.0503916,114.176875 32.0080557,114.410124 L32,114.5 L32,129.5 C32,129.74546 32.1768752,129.949608 32.4101244,129.991944 L32.5,130 L47.5,130 C47.7454599,130 47.9496084,129.823125 47.9919443,129.589876 L48,129.5 L48,114.5 C48,114.223858 47.7761424,114 47.5,114 Z M47.5,15 L32.5,15 C32.2545401,15 32.0503916,15.1768752 32.0080557,15.4101244 L32,15.5 L32,108.5 C32,108.74546 32.1768752,108.949608 32.4101244,108.991944 L32.5,109 L47.5,109 C47.7454599,109 47.9496084,108.823125 47.9919443,108.589876 L48,108.5 L48,15.5 C48,15.2238576 47.7761424,15 47.5,15 Z M27.5,85 L12.5,85 C12.2545401,85 12.0503916,85.1768752 12.0080557,85.4101244 L12,85.5 L12,100.5 C12,100.74546 12.1768752,100.949608 12.4101244,100.991944 L12.5,101 L27.5,101 C27.7454599,101 27.9496084,100.823125 27.9919443,100.589876 L28,100.5 L28,85.5 C28,85.2238576 27.7761424,85 27.5,85 Z M27.5,15 L12.5,15 C12.2545401,15 12.0503916,15.1768752 12.0080557,15.4101244 L12,15.5 L12,79.5 C12,79.7454599 12.1768752,79.9496084 12.4101244,79.9919443 L12.5,80 L27.5,80 C27.7454599,80 27.9496084,79.8231248 27.9919443,79.5898756 L28,79.5 L28,15.5 C28,15.2238576 27.7761424,15 27.5,15 Z" id="main" fill="#FFFFFF"></path>
        <path d="M13.5,106 L26.5,106 C26.7761424,106 27,106.223858 27,106.5 L27,183.5 C27,183.776142 26.7761424,184 26.5,184 L13.5,184 C13.2238576,184 13,183.776142 13,183.5 L13,106.5 C13,106.223858 13.2238576,106 13.5,106 Z" id="panel" fill="#FFFFFF"></path>
        <path d="M13.5,16 L26.5,16 C26.7761424,16 27,16.2238576 27,16.5 L27,78.5 C27,78.7761424 26.7761424,79 26.5,79 L13.5,79 C13.2238576,79 13,78.7761424 13,78.5 L13,16.5 C13,16.2238576 13.2238576,16 13.5,16 Z" id="panel" fill="#FFFFFF"></path>
        <path d="M13.5,86 L26.5,86 C26.7761424,86 27,86.2238576 27,86.5 L27,99.5 C27,99.7761424 26.7761424,100 26.5,100 L13.5,100 C13.2238576,100 13,99.7761424 13,99.5 L13,86.5 C13,86.2238576 13.2238576,86 13.5,86 Z" id="panel" fill="#FFFFFF"></path>
        <path d="M33.5,136 L46.5,136 C46.7761424,136 47,136.223858 47,136.5 L47,183.5 C47,183.776142 46.7761424,184 46.5,184 L33.5,184 C33.2238576,184 33,183.776142 33,183.5 L33,136.5 C33,136.223858 33.2238576,136 33.5,136 Z" id="panel" fill="#FFFFFF"></path>
        <path d="M33.5,16 L46.5,16 C46.7761424,16 47,16.2238576 47,16.5 L47,107.5 C47,107.776142 46.7761424,108 46.5,108 L33.5,108 C33.2238576,108 33,107.776142 33,107.5 L33,16.5 C33,16.2238576 33.2238576,16 33.5,16 Z" id="panel" fill="#FFFFFF"></path>
        <path d="M33.5,115 L46.5,115 C46.7761424,115 47,115.223858 47,115.5 L47,128.5 C47,128.776142 46.7761424,129 46.5,129 L33.5,129 C33.2238576,129 33,128.776142 33,128.5 L33,115.5 C33,115.223858 33.2238576,115 33.5,115 Z" id="panel" fill="#FFFFFF"></path>
        <path d="M53.5,166 L66.5,166 C66.7761424,166 67,166.223858 67,166.5 L67,183.5 C67,183.776142 66.7761424,184 66.5,184 L53.5,184 C53.2238576,184 53,183.776142 53,183.5 L53,166.5 C53,166.223858 53.2238576,166 53.5,166 Z" id="panel" fill="#FFFFFF"></path>
        <path d="M53.5,16 L66.5,16 C66.7761424,16 67,16.2238576 67,16.5 L67,138.5 C67,138.776142 66.7761424,139 66.5,139 L53.5,139 C53.2238576,139 53,138.776142 53,138.5 L53,16.5 C53,16.2238576 53.2238576,16 53.5,16 Z" id="panel" fill="#FFFFFF"></path>
        <path d="M53.5,146 L66.5,146 C66.7761424,146 67,146.223858 67,146.5 L67,159.5 C67,159.776142 66.7761424,160 66.5,160 L53.5,160 C53.2238576,160 53,159.776142 53,159.5 L53,146.5 C53,146.223858 53.2238576,146 53.5,146 Z" id="panel" fill="#FFFFFF"></path>
        <circle id="peephole" fill="#516DBF" cx="40" cy="55.5" r="1.5"></circle>
    </g>
</svg>