<?xml version="1.0" encoding="UTF-8"?>
<svg width="80px" height="200px" viewBox="0 0 80 200" version="1.1" xmlns="http://www.w3.org/2000/svg" xmlns:xlink="http://www.w3.org/1999/xlink">
    <!-- Generator: Sketch 58 (84663) - https://sketch.com -->
    <title>0302</title>
    <desc>Created with Sketch.</desc>
    <g id="0302" stroke="none" stroke-width="1" fill="none" fill-rule="evenodd">
        <rect id="base" fill="#888888" x="0" y="0" width="80" height="200"></rect>
        <path d="M80,0 L80,200 L0,200 L0,0 L80,0 Z M27.5,168 L12.5,168 C12.2545401,168 12.0503916,168.176875 12.0080557,168.410124 L12,168.5 L12,181.5 C12,181.74546 12.1768752,181.949608 12.4101244,181.991944 L12.5,182 L27.5,182 C27.7454599,182 27.9496084,181.823125 27.9919443,181.589876 L28,181.5 L28,168.5 C28,168.223858 27.7761424,168 27.5,168 Z M47.5,168 L32.5,168 C32.2545401,168 32.0503916,168.176875 32.0080557,168.410124 L32,168.5 L32,181.5 C32,181.74546 32.1768752,181.949608 32.4101244,181.991944 L32.5,182 L47.5,182 C47.7454599,182 47.9496084,181.823125 47.9919443,181.589876 L48,181.5 L48,168.5 C48,168.223858 47.7761424,168 47.5,168 Z M67.5,168 L52.5,168 C52.2238576,168 52,168.223858 52,168.5 L52,168.5 L52,181.5 C52,181.776142 52.2238576,182 52.5,182 L52.5,182 L67.5,182 C67.7761424,182 68,181.776142 68,181.5 L68,181.5 L68,168.5 C68,168.223858 67.7761424,168 67.5,168 L67.5,168 Z M67.5,149 L52.5,149 C52.2545401,149 52.0503916,149.176875 52.0080557,149.410124 L52,149.5 L52,162.5 C52,162.74546 52.1768752,162.949608 52.4101244,162.991944 L52.5,163 L67.5,163 C67.7454599,163 67.9496084,162.823125 67.9919443,162.589876 L68,162.5 L68,149.5 C68,149.223858 67.7761424,149 67.5,149 Z M27.5,149 L12.5,149 C12.2545401,149 12.0503916,149.176875 12.0080557,149.410124 L12,149.5 L12,162.5 C12,162.74546 12.1768752,162.949608 12.4101244,162.991944 L12.5,163 L27.5,163 C27.7454599,163 27.9496084,162.823125 27.9919443,162.589876 L28,162.5 L28,149.5 C28,149.223858 27.7761424,149 27.5,149 Z M47.5,35 L32.5,35 C32.2545401,35 32.0503916,35.1768752 32.0080557,35.4101244 L32,35.5 L32,162.5 C32,162.74546 32.1768752,162.949608 32.4101244,162.991944 L32.5,163 L47.5,163 C47.7454599,163 47.9496084,162.823125 47.9919443,162.589876 L48,162.5 L48,35.5 C48,35.2238576 47.7761424,35 47.5,35 Z M67.5,130 L52.5,130 C52.2545401,130 52.0503916,130.176875 52.0080557,130.410124 L52,130.5 L52,143.5 C52,143.74546 52.1768752,143.949608 52.4101244,143.991944 L52.5,144 L67.5,144 C67.7454599,144 67.9496084,143.823125 67.9919443,143.589876 L68,143.5 L68,130.5 C68,130.223858 67.7761424,130 67.5,130 Z M27.5,130 L12.5,130 C12.2545401,130 12.0503916,130.176875 12.0080557,130.410124 L12,130.5 L12,143.5 C12,143.74546 12.1768752,143.949608 12.4101244,143.991944 L12.5,144 L27.5,144 C27.7454599,144 27.9496084,143.823125 27.9919443,143.589876 L28,143.5 L28,130.5 C28,130.223858 27.7761424,130 27.5,130 Z M67.5,111 L52.5,111 C52.2545401,111 52.0503916,111.176875 52.0080557,111.410124 L52,111.5 L52,124.5 C52,124.74546 52.1768752,124.949608 52.4101244,124.991944 L52.5,125 L67.5,125 C67.7454599,125 67.9496084,124.823125 67.9919443,124.589876 L68,124.5 L68,111.5 C68,111.223858 67.7761424,111 67.5,111 Z M27.5,111 L12.5,111 C12.2545401,111 12.0503916,111.176875 12.0080557,111.410124 L12,111.5 L12,124.5 C12,124.74546 12.1768752,124.949608 12.4101244,124.991944 L12.5,125 L27.5,125 C27.7454599,125 27.9496084,124.823125 27.9919443,124.589876 L28,124.5 L28,111.5 C28,111.223858 27.7761424,111 27.5,111 Z M67.5,92 L52.5,92 C52.2545401,92 52.0503916,92.1768752 52.0080557,92.4101244 L52,92.5 L52,105.5 C52,105.74546 52.1768752,105.949608 52.4101244,105.991944 L52.5,106 L67.5,106 C67.7454599,106 67.9496084,105.823125 67.9919443,105.589876 L68,105.5 L68,92.5 C68,92.2238576 67.7761424,92 67.5,92 Z M27.5,92 L12.5,92 C12.2545401,92 12.0503916,92.1768752 12.0080557,92.4101244 L12,92.5 L12,105.5 C12,105.74546 12.1768752,105.949608 12.4101244,105.991944 L12.5,106 L27.5,106 C27.7454599,106 27.9496084,105.823125 27.9919443,105.589876 L28,105.5 L28,92.5 C28,92.2238576 27.7761424,92 27.5,92 Z M67.5,73 L52.5,73 C52.2545401,73 52.0503916,73.1768752 52.0080557,73.4101244 L52,73.5 L52,86.5 C52,86.7454599 52.1768752,86.9496084 52.4101244,86.9919443 L52.5,87 L67.5,87 C67.7454599,87 67.9496084,86.8231248 67.9919443,86.5898756 L68,86.5 L68,73.5 C68,73.2238576 67.7761424,73 67.5,73 Z M27.5,73 L12.5,73 C12.2545401,73 12.0503916,73.1768752 12.0080557,73.4101244 L12,73.5 L12,86.5 C12,86.7454599 12.1768752,86.9496084 12.4101244,86.9919443 L12.5,87 L27.5,87 C27.7454599,87 27.9496084,86.8231248 27.9919443,86.5898756 L28,86.5 L28,73.5 C28,73.2238576 27.7761424,73 27.5,73 Z M67.5,54 L52.5,54 C52.2545401,54 52.0503916,54.1768752 52.0080557,54.4101244 L52,54.5 L52,67.5 C52,67.7454599 52.1768752,67.9496084 52.4101244,67.9919443 L52.5,68 L67.5,68 C67.7454599,68 67.9496084,67.8231248 67.9919443,67.5898756 L68,67.5 L68,54.5 C68,54.2238576 67.7761424,54 67.5,54 Z M27.5,54 L12.5,54 C12.2545401,54 12.0503916,54.1768752 12.0080557,54.4101244 L12,54.5 L12,67.5 C12,67.7454599 12.1768752,67.9496084 12.4101244,67.9919443 L12.5,68 L27.5,68 C27.7454599,68 27.9496084,67.8231248 27.9919443,67.5898756 L28,67.5 L28,54.5 C28,54.2238576 27.7761424,54 27.5,54 Z M67.5,35 L52.5,35 C52.2545401,35 52.0503916,35.1768752 52.0080557,35.4101244 L52,35.5 L52,48.5 C52,48.7454599 52.1768752,48.9496084 52.4101244,48.9919443 L52.5,49 L67.5,49 C67.7454599,49 67.9496084,48.8231248 67.9919443,48.5898756 L68,48.5 L68,35.5 C68,35.2238576 67.7761424,35 67.5,35 Z M27.5,35 L12.5,35 C12.2545401,35 12.0503916,35.1768752 12.0080557,35.4101244 L12,35.5 L12,48.5 C12,48.7454599 12.1768752,48.9496084 12.4101244,48.9919443 L12.5,49 L27.5,49 C27.7454599,49 27.9496084,48.8231248 27.9919443,48.5898756 L28,48.5 L28,35.5 C28,35.2238576 27.7761424,35 27.5,35 Z M27.5,16 L12.5,16 C12.2545401,16 12.0503916,16.1768752 12.0080557,16.4101244 L12,16.5 L12,29.5 C12,29.7454599 12.1768752,29.9496084 12.4101244,29.9919443 L12.5,30 L27.5,30 C27.7454599,30 27.9496084,29.8231248 27.9919443,29.5898756 L28,29.5 L28,16.5 C28,16.2238576 27.7761424,16 27.5,16 Z M67.5,16 L52.5,16 C52.2545401,16 52.0503916,16.1768752 52.0080557,16.4101244 L52,16.5 L52,29.5 C52,29.7454599 52.1768752,29.9496084 52.4101244,29.9919443 L52.5,30 L67.5,30 C67.7454599,30 67.9496084,29.8231248 67.9919443,29.5898756 L68,29.5 L68,16.5 C68,16.2238576 67.7761424,16 67.5,16 Z M47.5,16 L32.5,16 C32.2545401,16 32.0503916,16.1768752 32.0080557,16.4101244 L32,16.5 L32,29.5 C32,29.7454599 32.1768752,29.9496084 32.4101244,29.9919443 L32.5,30 L47.5,30 C47.7454599,30 47.9496084,29.8231248 47.9919443,29.5898756 L48,29.5 L48,16.5 C48,16.2238576 47.7761424,16 47.5,16 Z" id="main" fill="#FFFFFF"></path>
        <path d="M13.5,17 L26.5,17 C26.7761424,17 27,17.2238576 27,17.5 L27,28.5 C27,28.7761424 26.7761424,29 26.5,29 L13.5,29 C13.2238576,29 13,28.7761424 13,28.5 L13,17.5 C13,17.2238576 13.2238576,17 13.5,17 Z" id="panel" fill="#FFFFFF"></path>
        <path d="M53.5,17 L66.5,17 C66.7761424,17 67,17.2238576 67,17.5 L67,28.5 C67,28.7761424 66.7761424,29 66.5,29 L53.5,29 C53.2238576,29 53,28.7761424 53,28.5 L53,17.5 C53,17.2238576 53.2238576,17 53.5,17 Z" id="panel" fill="#FFFFFF"></path>
        <path d="M53.5,36 L66.5,36 C66.7761424,36 67,36.2238576 67,36.5 L67,47.5 C67,47.7761424 66.7761424,48 66.5,48 L53.5,48 C53.2238576,48 53,47.7761424 53,47.5 L53,36.5 C53,36.2238576 53.2238576,36 53.5,36 Z" id="panel" fill="#FFFFFF"></path>
        <path d="M53.5,55 L66.5,55 C66.7761424,55 67,55.2238576 67,55.5 L67,66.5 C67,66.7761424 66.7761424,67 66.5,67 L53.5,67 C53.2238576,67 53,66.7761424 53,66.5 L53,55.5 C53,55.2238576 53.2238576,55 53.5,55 Z" id="panel" fill="#FFFFFF"></path>
        <path d="M53.5,74 L66.5,74 C66.7761424,74 67,74.2238576 67,74.5 L67,85.5 C67,85.7761424 66.7761424,86 66.5,86 L53.5,86 C53.2238576,86 53,85.7761424 53,85.5 L53,74.5 C53,74.2238576 53.2238576,74 53.5,74 Z" id="panel" fill="#FFFFFF"></path>
        <path d="M53.5,93 L66.5,93 C66.7761424,93 67,93.2238576 67,93.5 L67,104.5 C67,104.776142 66.7761424,105 66.5,105 L53.5,105 C53.2238576,105 53,104.776142 53,104.5 L53,93.5 C53,93.2238576 53.2238576,93 53.5,93 Z" id="panel" fill="#FFFFFF"></path>
        <path d="M53.5,112 L66.5,112 C66.7761424,112 67,112.223858 67,112.5 L67,123.5 C67,123.776142 66.7761424,124 66.5,124 L53.5,124 C53.2238576,124 53,123.776142 53,123.5 L53,112.5 C53,112.223858 53.2238576,112 53.5,112 Z" id="panel" fill="#FFFFFF"></path>
        <path d="M53.5,131 L66.5,131 C66.7761424,131 67,131.223858 67,131.5 L67,142.5 C67,142.776142 66.7761424,143 66.5,143 L53.5,143 C53.2238576,143 53,142.776142 53,142.5 L53,131.5 C53,131.223858 53.2238576,131 53.5,131 Z" id="panel" fill="#FFFFFF"></path>
        <path d="M53.5,150 L66.5,150 C66.7761424,150 67,150.223858 67,150.5 L67,161.5 C67,161.776142 66.7761424,162 66.5,162 L53.5,162 C53.2238576,162 53,161.776142 53,161.5 L53,150.5 C53,150.223858 53.2238576,150 53.5,150 Z" id="panel" fill="#FFFFFF"></path>
        <path d="M33.5,17 L46.5,17 C46.7761424,17 47,17.2238576 47,17.5 L47,28.5 C47,28.7761424 46.7761424,29 46.5,29 L33.5,29 C33.2238576,29 33,28.7761424 33,28.5 L33,17.5 C33,17.2238576 33.2238576,17 33.5,17 Z" id="panel" fill="#FFFFFF"></path>
        <path d="M13.5,36 L26.5,36 C26.7761424,36 27,36.2238576 27,36.5 L27,47.5 C27,47.7761424 26.7761424,48 26.5,48 L13.5,48 C13.2238576,48 13,47.7761424 13,47.5 L13,36.5 C13,36.2238576 13.2238576,36 13.5,36 Z" id="panel" fill="#FFFFFF"></path>
        <path d="M13.5,55 L26.5,55 C26.7761424,55 27,55.2238576 27,55.5 L27,66.5 C27,66.7761424 26.7761424,67 26.5,67 L13.5,67 C13.2238576,67 13,66.7761424 13,66.5 L13,55.5 C13,55.2238576 13.2238576,55 13.5,55 Z" id="panel" fill="#FFFFFF"></path>
        <path d="M13.5,74 L26.5,74 C26.7761424,74 27,74.2238576 27,74.5 L27,85.5 C27,85.7761424 26.7761424,86 26.5,86 L13.5,86 C13.2238576,86 13,85.7761424 13,85.5 L13,74.5 C13,74.2238576 13.2238576,74 13.5,74 Z" id="panel" fill="#FFFFFF"></path>
        <path d="M13.5,93 L26.5,93 C26.7761424,93 27,93.2238576 27,93.5 L27,104.5 C27,104.776142 26.7761424,105 26.5,105 L13.5,105 C13.2238576,105 13,104.776142 13,104.5 L13,93.5 C13,93.2238576 13.2238576,93 13.5,93 Z" id="panel" fill="#FFFFFF"></path>
        <path d="M13.5,112 L26.5,112 C26.7761424,112 27,112.223858 27,112.5 L27,123.5 C27,123.776142 26.7761424,124 26.5,124 L13.5,124 C13.2238576,124 13,123.776142 13,123.5 L13,112.5 C13,112.223858 13.2238576,112 13.5,112 Z" id="panel" fill="#FFFFFF"></path>
        <path d="M13.5,131 L26.5,131 C26.7761424,131 27,131.223858 27,131.5 L27,142.5 C27,142.776142 26.7761424,143 26.5,143 L13.5,143 C13.2238576,143 13,142.776142 13,142.5 L13,131.5 C13,131.223858 13.2238576,131 13.5,131 Z" id="panel" fill="#FFFFFF"></path>
        <path d="M13.5,150 L26.5,150 C26.7761424,150 27,150.223858 27,150.5 L27,161.5 C27,161.776142 26.7761424,162 26.5,162 L13.5,162 C13.2238576,162 13,161.776142 13,161.5 L13,150.5 C13,150.223858 13.2238576,150 13.5,150 Z" id="panel" fill="#FFFFFF"></path>
        <path d="M13.5,169 L26.5,169 C26.7761424,169 27,169.223858 27,169.5 L27,180.5 C27,180.776142 26.7761424,181 26.5,181 L13.5,181 C13.2238576,181 13,180.776142 13,180.5 L13,169.5 C13,169.223858 13.2238576,169 13.5,169 Z" id="panel" fill="#FFFFFF"></path>
        <path d="M33.5,169 L46.5,169 C46.7761424,169 47,169.223858 47,169.5 L47,180.5 C47,180.776142 46.7761424,181 46.5,181 L33.5,181 C33.2238576,181 33,180.776142 33,180.5 L33,169.5 C33,169.223858 33.2238576,169 33.5,169 Z" id="panel" fill="#FFFFFF"></path>
        <path d="M33.5,36 L46.5,36 C46.7761424,36 47,36.2238576 47,36.5 L47,161.5 C47,161.776142 46.7761424,162 46.5,162 L33.5,162 C33.2238576,162 33,161.776142 33,161.5 L33,36.5 C33,36.2238576 33.2238576,36 33.5,36 Z" id="panel" fill="#FFFFFF"></path>
        <path d="M53.5,169 L66.5,169 C66.7761424,169 67,169.223858 67,169.5 L67,180.5 C67,180.776142 66.7761424,181 66.5,181 L53.5,181 C53.2238576,181 53,180.776142 53,180.5 L53,169.5 C53,169.223858 53.2238576,169 53.5,169 Z" id="panel" fill="#FFFFFF"></path>
        <circle id="peephole" fill="#516DBF" cx="40" cy="55.5" r="1.5"></circle>
    </g>
</svg>