<?xml version="1.0" encoding="UTF-8"?>
<svg width="80px" height="200px" viewBox="0 0 80 200" version="1.1" xmlns="http://www.w3.org/2000/svg" xmlns:xlink="http://www.w3.org/1999/xlink">
    <!-- Generator: Sketch 58 (84663) - https://sketch.com -->
    <title>0303</title>
    <desc>Created with Sketch.</desc>
    <g id="0303" stroke="none" stroke-width="1" fill="none" fill-rule="evenodd">
        <rect id="base" fill="#888888" x="0" y="0" width="80" height="200"></rect>
        <path d="M80,0 L80,200 L0,200 L0,0 L80,0 Z M27.5,153 L12.5,153 C12.2545401,153 12.0503916,153.176875 12.0080557,153.410124 L12,153.5 L12,173.5 C12,173.74546 12.1768752,173.949608 12.4101244,173.991944 L12.5,174 L27.5,174 C27.7454599,174 27.9496084,173.823125 27.9919443,173.589876 L28,173.5 L28,153.5 C28,153.223858 27.7761424,153 27.5,153 Z M47.5,153 L32.5,153 C32.2545401,153 32.0503916,153.176875 32.0080557,153.410124 L32,153.5 L32,173.5 C32,173.74546 32.1768752,173.949608 32.4101244,173.991944 L32.5,174 L47.5,174 C47.7454599,174 47.9496084,173.823125 47.9919443,173.589876 L48,173.5 L48,153.5 C48,153.223858 47.7761424,153 47.5,153 Z M67.5,153 L52.5,153 C52.2238576,153 52,153.223858 52,153.5 L52,153.5 L52,173.5 C52,173.776142 52.2238576,174 52.5,174 L52.5,174 L67.5,174 C67.7761424,174 68,173.776142 68,173.5 L68,173.5 L68,153.5 C68,153.223858 67.7761424,153 67.5,153 L67.5,153 Z M27.5,126 L12.5,126 C12.2545401,126 12.0503916,126.176875 12.0080557,126.410124 L12,126.5 L12,146.5 C12,146.74546 12.1768752,146.949608 12.4101244,146.991944 L12.5,147 L27.5,147 C27.7454599,147 27.9496084,146.823125 27.9919443,146.589876 L28,146.5 L28,126.5 C28,126.223858 27.7761424,126 27.5,126 Z M47.5,126 L32.5,126 C32.2545401,126 32.0503916,126.176875 32.0080557,126.410124 L32,126.5 L32,146.5 C32,146.74546 32.1768752,146.949608 32.4101244,146.991944 L32.5,147 L47.5,147 C47.7454599,147 47.9496084,146.823125 47.9919443,146.589876 L48,146.5 L48,126.5 C48,126.223858 47.7761424,126 47.5,126 Z M67.5,126 L52.5,126 C52.2545401,126 52.0503916,126.176875 52.0080557,126.410124 L52,126.5 L52,146.5 C52,146.74546 52.1768752,146.949608 52.4101244,146.991944 L52.5,147 L67.5,147 C67.7454599,147 67.9496084,146.823125 67.9919443,146.589876 L68,146.5 L68,126.5 C68,126.223858 67.7761424,126 67.5,126 Z M27.5,98 L12.5,98 C12.2545401,98 12.0503916,98.1768752 12.0080557,98.4101244 L12,98.5 L12,118.5 C12,118.74546 12.1768752,118.949608 12.4101244,118.991944 L12.5,119 L27.5,119 C27.7454599,119 27.9496084,118.823125 27.9919443,118.589876 L28,118.5 L28,98.5 C28,98.2238576 27.7761424,98 27.5,98 Z M47.5,98 L32.5,98 C32.2545401,98 32.0503916,98.1768752 32.0080557,98.4101244 L32,98.5 L32,118.5 C32,118.74546 32.1768752,118.949608 32.4101244,118.991944 L32.5,119 L47.5,119 C47.7454599,119 47.9496084,118.823125 47.9919443,118.589876 L48,118.5 L48,98.5 C48,98.2238576 47.7761424,98 47.5,98 Z M67.5,98 L52.5,98 C52.2545401,98 52.0503916,98.1768752 52.0080557,98.4101244 L52,98.5 L52,118.5 C52,118.74546 52.1768752,118.949608 52.4101244,118.991944 L52.5,119 L67.5,119 C67.7454599,119 67.9496084,118.823125 67.9919443,118.589876 L68,118.5 L68,98.5 C68,98.2238576 67.7761424,98 67.5,98 Z M27.5,71 L12.5,71 C12.2545401,71 12.0503916,71.1768752 12.0080557,71.4101244 L12,71.5 L12,91.5 C12,91.7454599 12.1768752,91.9496084 12.4101244,91.9919443 L12.5,92 L27.5,92 C27.7454599,92 27.9496084,91.8231248 27.9919443,91.5898756 L28,91.5 L28,71.5 C28,71.2238576 27.7761424,71 27.5,71 Z M47.5,71 L32.5,71 C32.2545401,71 32.0503916,71.1768752 32.0080557,71.4101244 L32,71.5 L32,91.5 C32,91.7454599 32.1768752,91.9496084 32.4101244,91.9919443 L32.5,92 L47.5,92 C47.7454599,92 47.9496084,91.8231248 47.9919443,91.5898756 L48,91.5 L48,71.5 C48,71.2238576 47.7761424,71 47.5,71 Z M67.5,71 L52.5,71 C52.2545401,71 52.0503916,71.1768752 52.0080557,71.4101244 L52,71.5 L52,91.5 C52,91.7454599 52.1768752,91.9496084 52.4101244,91.9919443 L52.5,92 L67.5,92 C67.7454599,92 67.9496084,91.8231248 67.9919443,91.5898756 L68,91.5 L68,71.5 C68,71.2238576 67.7761424,71 67.5,71 Z M27.5,43 L12.5,43 C12.2545401,43 12.0503916,43.1768752 12.0080557,43.4101244 L12,43.5 L12,63.5 C12,63.7454599 12.1768752,63.9496084 12.4101244,63.9919443 L12.5,64 L27.5,64 C27.7454599,64 27.9496084,63.8231248 27.9919443,63.5898756 L28,63.5 L28,43.5 C28,43.2238576 27.7761424,43 27.5,43 Z M47.5,43 L32.5,43 C32.2545401,43 32.0503916,43.1768752 32.0080557,43.4101244 L32,43.5 L32,63.5 C32,63.7454599 32.1768752,63.9496084 32.4101244,63.9919443 L32.5,64 L47.5,64 C47.7454599,64 47.9496084,63.8231248 47.9919443,63.5898756 L48,63.5 L48,43.5 C48,43.2238576 47.7761424,43 47.5,43 Z M67.5,43 L52.5,43 C52.2545401,43 52.0503916,43.1768752 52.0080557,43.4101244 L52,43.5 L52,63.5 C52,63.7454599 52.1768752,63.9496084 52.4101244,63.9919443 L52.5,64 L67.5,64 C67.7454599,64 67.9496084,63.8231248 67.9919443,63.5898756 L68,63.5 L68,43.5 C68,43.2238576 67.7761424,43 67.5,43 Z M27.5,16 L12.5,16 C12.2545401,16 12.0503916,16.1768752 12.0080557,16.4101244 L12,16.5 L12,36.5 C12,36.7454599 12.1768752,36.9496084 12.4101244,36.9919443 L12.5,37 L27.5,37 C27.7454599,37 27.9496084,36.8231248 27.9919443,36.5898756 L28,36.5 L28,16.5 C28,16.2238576 27.7761424,16 27.5,16 Z M47.5,16 L32.5,16 C32.2545401,16 32.0503916,16.1768752 32.0080557,16.4101244 L32,16.5 L32,36.5 C32,36.7454599 32.1768752,36.9496084 32.4101244,36.9919443 L32.5,37 L47.5,37 C47.7454599,37 47.9496084,36.8231248 47.9919443,36.5898756 L48,36.5 L48,16.5 C48,16.2238576 47.7761424,16 47.5,16 Z M67.5,16 L52.5,16 C52.2545401,16 52.0503916,16.1768752 52.0080557,16.4101244 L52,16.5 L52,36.5 C52,36.7454599 52.1768752,36.9496084 52.4101244,36.9919443 L52.5,37 L67.5,37 C67.7454599,37 67.9496084,36.8231248 67.9919443,36.5898756 L68,36.5 L68,16.5 C68,16.2238576 67.7761424,16 67.5,16 Z" id="main" fill="#FFFFFF"></path>
        <path d="M13.5,17 L26.5,17 C26.7761424,17 27,17.2238576 27,17.5 L27,35.5 C27,35.7761424 26.7761424,36 26.5,36 L13.5,36 C13.2238576,36 13,35.7761424 13,35.5 L13,17.5 C13,17.2238576 13.2238576,17 13.5,17 Z" id="panel" fill="#FFFFFF"></path>
        <path d="M13.5,44 L26.5,44 C26.7761424,44 27,44.2238576 27,44.5 L27,62.5 C27,62.7761424 26.7761424,63 26.5,63 L13.5,63 C13.2238576,63 13,62.7761424 13,62.5 L13,44.5 C13,44.2238576 13.2238576,44 13.5,44 Z" id="panel" fill="#FFFFFF"></path>
        <path d="M13.5,72 L26.5,72 C26.7761424,72 27,72.2238576 27,72.5 L27,90.5 C27,90.7761424 26.7761424,91 26.5,91 L13.5,91 C13.2238576,91 13,90.7761424 13,90.5 L13,72.5 C13,72.2238576 13.2238576,72 13.5,72 Z" id="panel" fill="#FFFFFF"></path>
        <path d="M13.5,99 L26.5,99 C26.7761424,99 27,99.2238576 27,99.5 L27,117.5 C27,117.776142 26.7761424,118 26.5,118 L13.5,118 C13.2238576,118 13,117.776142 13,117.5 L13,99.5 C13,99.2238576 13.2238576,99 13.5,99 Z" id="panel" fill="#FFFFFF"></path>
        <path d="M13.5,127 L26.5,127 C26.7761424,127 27,127.223858 27,127.5 L27,145.5 C27,145.776142 26.7761424,146 26.5,146 L13.5,146 C13.2238576,146 13,145.776142 13,145.5 L13,127.5 C13,127.223858 13.2238576,127 13.5,127 Z" id="panel" fill="#FFFFFF"></path>
        <path d="M13.5,154 L26.5,154 C26.7761424,154 27,154.223858 27,154.5 L27,172.5 C27,172.776142 26.7761424,173 26.5,173 L13.5,173 C13.2238576,173 13,172.776142 13,172.5 L13,154.5 C13,154.223858 13.2238576,154 13.5,154 Z" id="panel" fill="#FFFFFF"></path>
        <path d="M33.5,17 L46.5,17 C46.7761424,17 47,17.2238576 47,17.5 L47,35.5 C47,35.7761424 46.7761424,36 46.5,36 L33.5,36 C33.2238576,36 33,35.7761424 33,35.5 L33,17.5 C33,17.2238576 33.2238576,17 33.5,17 Z" id="panel" fill="#FFFFFF"></path>
        <path d="M33.5,44 L46.5,44 C46.7761424,44 47,44.2238576 47,44.5 L47,62.5 C47,62.7761424 46.7761424,63 46.5,63 L33.5,63 C33.2238576,63 33,62.7761424 33,62.5 L33,44.5 C33,44.2238576 33.2238576,44 33.5,44 Z" id="panel" fill="#FFFFFF"></path>
        <path d="M33.5,72 L46.5,72 C46.7761424,72 47,72.2238576 47,72.5 L47,90.5 C47,90.7761424 46.7761424,91 46.5,91 L33.5,91 C33.2238576,91 33,90.7761424 33,90.5 L33,72.5 C33,72.2238576 33.2238576,72 33.5,72 Z" id="panel" fill="#FFFFFF"></path>
        <path d="M33.5,99 L46.5,99 C46.7761424,99 47,99.2238576 47,99.5 L47,117.5 C47,117.776142 46.7761424,118 46.5,118 L33.5,118 C33.2238576,118 33,117.776142 33,117.5 L33,99.5 C33,99.2238576 33.2238576,99 33.5,99 Z" id="panel" fill="#FFFFFF"></path>
        <path d="M33.5,127 L46.5,127 C46.7761424,127 47,127.223858 47,127.5 L47,145.5 C47,145.776142 46.7761424,146 46.5,146 L33.5,146 C33.2238576,146 33,145.776142 33,145.5 L33,127.5 C33,127.223858 33.2238576,127 33.5,127 Z" id="panel" fill="#FFFFFF"></path>
        <path d="M33.5,154 L46.5,154 C46.7761424,154 47,154.223858 47,154.5 L47,172.5 C47,172.776142 46.7761424,173 46.5,173 L33.5,173 C33.2238576,173 33,172.776142 33,172.5 L33,154.5 C33,154.223858 33.2238576,154 33.5,154 Z" id="panel" fill="#FFFFFF"></path>
        <path d="M53.5,17 L66.5,17 C66.7761424,17 67,17.2238576 67,17.5 L67,35.5 C67,35.7761424 66.7761424,36 66.5,36 L53.5,36 C53.2238576,36 53,35.7761424 53,35.5 L53,17.5 C53,17.2238576 53.2238576,17 53.5,17 Z" id="panel" fill="#FFFFFF"></path>
        <path d="M53.5,44 L66.5,44 C66.7761424,44 67,44.2238576 67,44.5 L67,62.5 C67,62.7761424 66.7761424,63 66.5,63 L53.5,63 C53.2238576,63 53,62.7761424 53,62.5 L53,44.5 C53,44.2238576 53.2238576,44 53.5,44 Z" id="panel" fill="#FFFFFF"></path>
        <path d="M53.5,72 L66.5,72 C66.7761424,72 67,72.2238576 67,72.5 L67,90.5 C67,90.7761424 66.7761424,91 66.5,91 L53.5,91 C53.2238576,91 53,90.7761424 53,90.5 L53,72.5 C53,72.2238576 53.2238576,72 53.5,72 Z" id="panel" fill="#FFFFFF"></path>
        <path d="M53.5,99 L66.5,99 C66.7761424,99 67,99.2238576 67,99.5 L67,117.5 C67,117.776142 66.7761424,118 66.5,118 L53.5,118 C53.2238576,118 53,117.776142 53,117.5 L53,99.5 C53,99.2238576 53.2238576,99 53.5,99 Z" id="panel" fill="#FFFFFF"></path>
        <path d="M53.5,127 L66.5,127 C66.7761424,127 67,127.223858 67,127.5 L67,145.5 C67,145.776142 66.7761424,146 66.5,146 L53.5,146 C53.2238576,146 53,145.776142 53,145.5 L53,127.5 C53,127.223858 53.2238576,127 53.5,127 Z" id="panel" fill="#FFFFFF"></path>
        <path d="M53.5,154 L66.5,154 C66.7761424,154 67,154.223858 67,154.5 L67,172.5 C67,172.776142 66.7761424,173 66.5,173 L53.5,173 C53.2238576,173 53,172.776142 53,172.5 L53,154.5 C53,154.223858 53.2238576,154 53.5,154 Z" id="panel" fill="#FFFFFF"></path>
        <circle id="peephole" fill="#516DBF" cx="40" cy="55.5" r="1.5"></circle>
    </g>
</svg>