<?xml version="1.0" encoding="UTF-8"?>
<svg width="80px" height="200px" viewBox="0 0 80 200" version="1.1" xmlns="http://www.w3.org/2000/svg" xmlns:xlink="http://www.w3.org/1999/xlink">
    <!-- Generator: Sketch 58 (84663) - https://sketch.com -->
    <title>0304</title>
    <desc>Created with Sketch.</desc>
    <g id="0304" stroke="none" stroke-width="1" fill="none" fill-rule="evenodd">
        <rect id="base" fill="#888888" x="0" y="0" width="80" height="200"></rect>
        <path d="M80,0 L80,200 L0,200 L0,0 L80,0 Z M27.5,169 L12.5,169 C12.2545401,169 12.0503916,169.176875 12.0080557,169.410124 L12,169.5 L12,185.5 C12,185.74546 12.1768752,185.949608 12.4101244,185.991944 L12.5,186 L27.5,186 C27.7454599,186 27.9496084,185.823125 27.9919443,185.589876 L28,185.5 L28,169.5 C28,169.223858 27.7761424,169 27.5,169 Z M47.5,169 L32.5,169 C32.2545401,169 32.0503916,169.176875 32.0080557,169.410124 L32,169.5 L32,185.5 C32,185.74546 32.1768752,185.949608 32.4101244,185.991944 L32.5,186 L47.5,186 C47.7454599,186 47.9496084,185.823125 47.9919443,185.589876 L48,185.5 L48,169.5 C48,169.223858 47.7761424,169 47.5,169 Z M67.5,169 L52.5,169 C52.2238576,169 52,169.223858 52,169.5 L52,169.5 L52,185.5 C52,185.776142 52.2238576,186 52.5,186 L52.5,186 L67.5,186 C67.7761424,186 68,185.776142 68,185.5 L68,185.5 L68,169.5 C68,169.223858 67.7761424,169 67.5,169 L67.5,169 Z M27.5,143 L12.5,143 C12.2545401,143 12.0503916,143.176875 12.0080557,143.410124 L12,143.5 L12,159.5 C12,159.74546 12.1768752,159.949608 12.4101244,159.991944 L12.5,160 L27.5,160 C27.7454599,160 27.9496084,159.823125 27.9919443,159.589876 L28,159.5 L28,143.5 C28,143.223858 27.7761424,143 27.5,143 Z M47.5,143 L32.5,143 C32.2545401,143 32.0503916,143.176875 32.0080557,143.410124 L32,143.5 L32,159.5 C32,159.74546 32.1768752,159.949608 32.4101244,159.991944 L32.5,160 L47.5,160 C47.7454599,160 47.9496084,159.823125 47.9919443,159.589876 L48,159.5 L48,143.5 C48,143.223858 47.7761424,143 47.5,143 Z M67.5,143 L52.5,143 C52.2545401,143 52.0503916,143.176875 52.0080557,143.410124 L52,143.5 L52,159.5 C52,159.74546 52.1768752,159.949608 52.4101244,159.991944 L52.5,160 L67.5,160 C67.7454599,160 67.9496084,159.823125 67.9919443,159.589876 L68,159.5 L68,143.5 C68,143.223858 67.7761424,143 67.5,143 Z M27.5,117 L12.5,117 C12.2545401,117 12.0503916,117.176875 12.0080557,117.410124 L12,117.5 L12,133.5 C12,133.74546 12.1768752,133.949608 12.4101244,133.991944 L12.5,134 L27.5,134 C27.7454599,134 27.9496084,133.823125 27.9919443,133.589876 L28,133.5 L28,117.5 C28,117.223858 27.7761424,117 27.5,117 Z M47.5,117 L32.5,117 C32.2545401,117 32.0503916,117.176875 32.0080557,117.410124 L32,117.5 L32,133.5 C32,133.74546 32.1768752,133.949608 32.4101244,133.991944 L32.5,134 L47.5,134 C47.7454599,134 47.9496084,133.823125 47.9919443,133.589876 L48,133.5 L48,117.5 C48,117.223858 47.7761424,117 47.5,117 Z M67.5,117 L52.5,117 C52.2545401,117 52.0503916,117.176875 52.0080557,117.410124 L52,117.5 L52,133.5 C52,133.74546 52.1768752,133.949608 52.4101244,133.991944 L52.5,134 L67.5,134 C67.7454599,134 67.9496084,133.823125 67.9919443,133.589876 L68,133.5 L68,117.5 C68,117.223858 67.7761424,117 67.5,117 Z M27.5,92 L12.5,92 C12.2545401,92 12.0503916,92.1768752 12.0080557,92.4101244 L12,92.5 L12,108.5 C12,108.74546 12.1768752,108.949608 12.4101244,108.991944 L12.5,109 L27.5,109 C27.7454599,109 27.9496084,108.823125 27.9919443,108.589876 L28,108.5 L28,92.5 C28,92.2238576 27.7761424,92 27.5,92 Z M47.5,92 L32.5,92 C32.2545401,92 32.0503916,92.1768752 32.0080557,92.4101244 L32,92.5 L32,108.5 C32,108.74546 32.1768752,108.949608 32.4101244,108.991944 L32.5,109 L47.5,109 C47.7454599,109 47.9496084,108.823125 47.9919443,108.589876 L48,108.5 L48,92.5 C48,92.2238576 47.7761424,92 47.5,92 Z M67.5,92 L52.5,92 C52.2545401,92 52.0503916,92.1768752 52.0080557,92.4101244 L52,92.5 L52,108.5 C52,108.74546 52.1768752,108.949608 52.4101244,108.991944 L52.5,109 L67.5,109 C67.7454599,109 67.9496084,108.823125 67.9919443,108.589876 L68,108.5 L68,92.5 C68,92.2238576 67.7761424,92 67.5,92 Z M27.5,66 L12.5,66 C12.2545401,66 12.0503916,66.1768752 12.0080557,66.4101244 L12,66.5 L12,82.5 C12,82.7454599 12.1768752,82.9496084 12.4101244,82.9919443 L12.5,83 L27.5,83 C27.7454599,83 27.9496084,82.8231248 27.9919443,82.5898756 L28,82.5 L28,66.5 C28,66.2238576 27.7761424,66 27.5,66 Z M47.5,66 L32.5,66 C32.2545401,66 32.0503916,66.1768752 32.0080557,66.4101244 L32,66.5 L32,82.5 C32,82.7454599 32.1768752,82.9496084 32.4101244,82.9919443 L32.5,83 L47.5,83 C47.7454599,83 47.9496084,82.8231248 47.9919443,82.5898756 L48,82.5 L48,66.5 C48,66.2238576 47.7761424,66 47.5,66 Z M67.5,66 L52.5,66 C52.2545401,66 52.0503916,66.1768752 52.0080557,66.4101244 L52,66.5 L52,82.5 C52,82.7454599 52.1768752,82.9496084 52.4101244,82.9919443 L52.5,83 L67.5,83 C67.7454599,83 67.9496084,82.8231248 67.9919443,82.5898756 L68,82.5 L68,66.5 C68,66.2238576 67.7761424,66 67.5,66 Z M27.5,40 L12.5,40 C12.2545401,40 12.0503916,40.1768752 12.0080557,40.4101244 L12,40.5 L12,56.5 C12,56.7454599 12.1768752,56.9496084 12.4101244,56.9919443 L12.5,57 L27.5,57 C27.7454599,57 27.9496084,56.8231248 27.9919443,56.5898756 L28,56.5 L28,40.5 C28,40.2238576 27.7761424,40 27.5,40 Z M47.5,40 L32.5,40 C32.2545401,40 32.0503916,40.1768752 32.0080557,40.4101244 L32,40.5 L32,56.5 C32,56.7454599 32.1768752,56.9496084 32.4101244,56.9919443 L32.5,57 L47.5,57 C47.7454599,57 47.9496084,56.8231248 47.9919443,56.5898756 L48,56.5 L48,40.5 C48,40.2238576 47.7761424,40 47.5,40 Z M67.5,40 L52.5,40 C52.2545401,40 52.0503916,40.1768752 52.0080557,40.4101244 L52,40.5 L52,56.5 C52,56.7454599 52.1768752,56.9496084 52.4101244,56.9919443 L52.5,57 L67.5,57 C67.7454599,57 67.9496084,56.8231248 67.9919443,56.5898756 L68,56.5 L68,40.5 C68,40.2238576 67.7761424,40 67.5,40 Z M27.5,14 L12.5,14 C12.2545401,14 12.0503916,14.1768752 12.0080557,14.4101244 L12,14.5 L12,30.5 C12,30.7454599 12.1768752,30.9496084 12.4101244,30.9919443 L12.5,31 L27.5,31 C27.7454599,31 27.9496084,30.8231248 27.9919443,30.5898756 L28,30.5 L28,14.5 C28,14.2238576 27.7761424,14 27.5,14 Z M47.5,14 L32.5,14 C32.2545401,14 32.0503916,14.1768752 32.0080557,14.4101244 L32,14.5 L32,30.5 C32,30.7454599 32.1768752,30.9496084 32.4101244,30.9919443 L32.5,31 L47.5,31 C47.7454599,31 47.9496084,30.8231248 47.9919443,30.5898756 L48,30.5 L48,14.5 C48,14.2238576 47.7761424,14 47.5,14 Z M67.5,14 L52.5,14 C52.2545401,14 52.0503916,14.1768752 52.0080557,14.4101244 L52,14.5 L52,30.5 C52,30.7454599 52.1768752,30.9496084 52.4101244,30.9919443 L52.5,31 L67.5,31 C67.7454599,31 67.9496084,30.8231248 67.9919443,30.5898756 L68,30.5 L68,14.5 C68,14.2238576 67.7761424,14 67.5,14 Z" id="main" fill="#FFFFFF"></path>
        <rect id="panel" fill="#FFFFFF" x="13" y="15" width="14" height="15" rx="0.5"></rect>
        <rect id="panel" fill="#FFFFFF" x="13" y="41" width="14" height="15" rx="0.5"></rect>
        <rect id="panel" fill="#FFFFFF" x="13" y="67" width="14" height="15" rx="0.5"></rect>
        <rect id="panel" fill="#FFFFFF" x="13" y="93" width="14" height="15" rx="0.5"></rect>
        <rect id="panel" fill="#FFFFFF" x="13" y="118" width="14" height="15" rx="0.5"></rect>
        <rect id="panel" fill="#FFFFFF" x="13" y="144" width="14" height="15" rx="0.5"></rect>
        <rect id="panel" fill="#FFFFFF" x="13" y="170" width="14" height="15" rx="0.5"></rect>
        <rect id="panel" fill="#FFFFFF" x="33" y="15" width="14" height="15" rx="0.5"></rect>
        <rect id="panel" fill="#FFFFFF" x="33" y="41" width="14" height="15" rx="0.5"></rect>
        <rect id="panel" fill="#FFFFFF" x="33" y="67" width="14" height="15" rx="0.5"></rect>
        <rect id="panel" fill="#FFFFFF" x="33" y="93" width="14" height="15" rx="0.5"></rect>
        <rect id="panel" fill="#FFFFFF" x="33" y="118" width="14" height="15" rx="0.5"></rect>
        <rect id="panel" fill="#FFFFFF" x="33" y="144" width="14" height="15" rx="0.5"></rect>
        <rect id="panel" fill="#FFFFFF" x="33" y="170" width="14" height="15" rx="0.5"></rect>
        <rect id="panel" fill="#FFFFFF" x="53" y="15" width="14" height="15" rx="0.5"></rect>
        <rect id="panel" fill="#FFFFFF" x="53" y="41" width="14" height="15" rx="0.5"></rect>
        <rect id="panel" fill="#FFFFFF" x="53" y="67" width="14" height="15" rx="0.5"></rect>
        <rect id="panel" fill="#FFFFFF" x="53" y="93" width="14" height="15" rx="0.5"></rect>
        <rect id="panel" fill="#FFFFFF" x="53" y="118" width="14" height="15" rx="0.5"></rect>
        <rect id="panel" fill="#FFFFFF" x="53" y="144" width="14" height="15" rx="0.5"></rect>
        <rect id="panel" fill="#FFFFFF" x="53" y="170" width="14" height="15" rx="0.5"></rect>
        <circle id="peephole" fill="#516DBF" cx="40" cy="50.5" r="1.5"></circle>
    </g>
</svg>