<?xml version="1.0" encoding="UTF-8"?>
<svg width="80px" height="200px" viewBox="0 0 80 200" version="1.1" xmlns="http://www.w3.org/2000/svg" xmlns:xlink="http://www.w3.org/1999/xlink">
    <!-- Generator: Sketch 58 (84663) - https://sketch.com -->
    <title>0305</title>
    <desc>Created with Sketch.</desc>
    <g id="0305" stroke="none" stroke-width="1" fill="none" fill-rule="evenodd">
        <rect id="base" fill="#888888" x="0" y="0" width="80" height="200"></rect>
        <path d="M80,0 L80,200 L0,200 L0,0 L80,0 Z M27.5,146 L12.5,146 C12.2545401,146 12.0503916,146.176875 12.0080557,146.410124 L12,146.5 L12,185.5 C12,185.74546 12.1768752,185.949608 12.4101244,185.991944 L12.5,186 L27.5,186 C27.7454599,186 27.9496084,185.823125 27.9919443,185.589876 L28,185.5 L28,146.5 C28,146.223858 27.7761424,146 27.5,146 Z M47.5,146 L32.5,146 C32.2545401,146 32.0503916,146.176875 32.0080557,146.410124 L32,146.5 L32,185.5 C32,185.74546 32.1768752,185.949608 32.4101244,185.991944 L32.5,186 L47.5,186 C47.7454599,186 47.9496084,185.823125 47.9919443,185.589876 L48,185.5 L48,146.5 C48,146.223858 47.7761424,146 47.5,146 Z M67.5,146 L52.5,146 C52.2238576,146 52,146.223858 52,146.5 L52,146.5 L52,185.5 C52,185.776142 52.2238576,186 52.5,186 L52.5,186 L67.5,186 C67.7761424,186 68,185.776142 68,185.5 L68,185.5 L68,146.5 C68,146.223858 67.7761424,146 67.5,146 L67.5,146 Z M27.5,102 L12.5,102 C12.2545401,102 12.0503916,102.176875 12.0080557,102.410124 L12,102.5 L12,141.5 C12,141.74546 12.1768752,141.949608 12.4101244,141.991944 L12.5,142 L27.5,142 C27.7454599,142 27.9496084,141.823125 27.9919443,141.589876 L28,141.5 L28,102.5 C28,102.223858 27.7761424,102 27.5,102 Z M47.5,102 L32.5,102 C32.2545401,102 32.0503916,102.176875 32.0080557,102.410124 L32,102.5 L32,141.5 C32,141.74546 32.1768752,141.949608 32.4101244,141.991944 L32.5,142 L47.5,142 C47.7454599,142 47.9496084,141.823125 47.9919443,141.589876 L48,141.5 L48,102.5 C48,102.223858 47.7761424,102 47.5,102 Z M67.5,102 L52.5,102 C52.2545401,102 52.0503916,102.176875 52.0080557,102.410124 L52,102.5 L52,141.5 C52,141.74546 52.1768752,141.949608 52.4101244,141.991944 L52.5,142 L67.5,142 C67.7454599,142 67.9496084,141.823125 67.9919443,141.589876 L68,141.5 L68,102.5 C68,102.223858 67.7761424,102 67.5,102 Z M27.5,58 L12.5,58 C12.2545401,58 12.0503916,58.1768752 12.0080557,58.4101244 L12,58.5 L12,97.5 C12,97.7454599 12.1768752,97.9496084 12.4101244,97.9919443 L12.5,98 L27.5,98 C27.7454599,98 27.9496084,97.8231248 27.9919443,97.5898756 L28,97.5 L28,58.5 C28,58.2238576 27.7761424,58 27.5,58 Z M47.5,58 L32.5,58 C32.2545401,58 32.0503916,58.1768752 32.0080557,58.4101244 L32,58.5 L32,97.5 C32,97.7454599 32.1768752,97.9496084 32.4101244,97.9919443 L32.5,98 L47.5,98 C47.7454599,98 47.9496084,97.8231248 47.9919443,97.5898756 L48,97.5 L48,58.5 C48,58.2238576 47.7761424,58 47.5,58 Z M67.5,58 L52.5,58 C52.2545401,58 52.0503916,58.1768752 52.0080557,58.4101244 L52,58.5 L52,97.5 C52,97.7454599 52.1768752,97.9496084 52.4101244,97.9919443 L52.5,98 L67.5,98 C67.7454599,98 67.9496084,97.8231248 67.9919443,97.5898756 L68,97.5 L68,58.5 C68,58.2238576 67.7761424,58 67.5,58 Z M27.5,14 L12.5,14 C12.2545401,14 12.0503916,14.1768752 12.0080557,14.4101244 L12,14.5 L12,53.5 C12,53.7454599 12.1768752,53.9496084 12.4101244,53.9919443 L12.5,54 L27.5,54 C27.7454599,54 27.9496084,53.8231248 27.9919443,53.5898756 L28,53.5 L28,14.5 C28,14.2238576 27.7761424,14 27.5,14 Z M47.5,14 L32.5,14 C32.2545401,14 32.0503916,14.1768752 32.0080557,14.4101244 L32,14.5 L32,53.5 C32,53.7454599 32.1768752,53.9496084 32.4101244,53.9919443 L32.5,54 L47.5,54 C47.7454599,54 47.9496084,53.8231248 47.9919443,53.5898756 L48,53.5 L48,14.5 C48,14.2238576 47.7761424,14 47.5,14 Z M67.5,14 L52.5,14 C52.2545401,14 52.0503916,14.1768752 52.0080557,14.4101244 L52,14.5 L52,53.5 C52,53.7454599 52.1768752,53.9496084 52.4101244,53.9919443 L52.5,54 L67.5,54 C67.7454599,54 67.9496084,53.8231248 67.9919443,53.5898756 L68,53.5 L68,14.5 C68,14.2238576 67.7761424,14 67.5,14 Z" id="main" fill="#FFFFFF"></path>
        <path d="M13.5,15 L26.5,15 C26.7761424,15 27,15.2238576 27,15.5 L27,52.5 C27,52.7761424 26.7761424,53 26.5,53 L13.5,53 C13.2238576,53 13,52.7761424 13,52.5 L13,15.5 C13,15.2238576 13.2238576,15 13.5,15 Z" id="panel" fill="#FFFFFF"></path>
        <path d="M13.5,59 L26.5,59 C26.7761424,59 27,59.2238576 27,59.5 L27,96.5 C27,96.7761424 26.7761424,97 26.5,97 L13.5,97 C13.2238576,97 13,96.7761424 13,96.5 L13,59.5 C13,59.2238576 13.2238576,59 13.5,59 Z" id="panel" fill="#FFFFFF"></path>
        <path d="M13.5,103 L26.5,103 C26.7761424,103 27,103.223858 27,103.5 L27,140.5 C27,140.776142 26.7761424,141 26.5,141 L13.5,141 C13.2238576,141 13,140.776142 13,140.5 L13,103.5 C13,103.223858 13.2238576,103 13.5,103 Z" id="panel" fill="#FFFFFF"></path>
        <path d="M13.5,147 L26.5,147 C26.7761424,147 27,147.223858 27,147.5 L27,184.5 C27,184.776142 26.7761424,185 26.5,185 L13.5,185 C13.2238576,185 13,184.776142 13,184.5 L13,147.5 C13,147.223858 13.2238576,147 13.5,147 Z" id="panel" fill="#FFFFFF"></path>
        <path d="M33.5,15 L46.5,15 C46.7761424,15 47,15.2238576 47,15.5 L47,52.5 C47,52.7761424 46.7761424,53 46.5,53 L33.5,53 C33.2238576,53 33,52.7761424 33,52.5 L33,15.5 C33,15.2238576 33.2238576,15 33.5,15 Z" id="panel" fill="#FFFFFF"></path>
        <path d="M33.5,59 L46.5,59 C46.7761424,59 47,59.2238576 47,59.5 L47,96.5 C47,96.7761424 46.7761424,97 46.5,97 L33.5,97 C33.2238576,97 33,96.7761424 33,96.5 L33,59.5 C33,59.2238576 33.2238576,59 33.5,59 Z" id="panel" fill="#FFFFFF"></path>
        <path d="M33.5,103 L46.5,103 C46.7761424,103 47,103.223858 47,103.5 L47,140.5 C47,140.776142 46.7761424,141 46.5,141 L33.5,141 C33.2238576,141 33,140.776142 33,140.5 L33,103.5 C33,103.223858 33.2238576,103 33.5,103 Z" id="panel" fill="#FFFFFF"></path>
        <path d="M33.5,147 L46.5,147 C46.7761424,147 47,147.223858 47,147.5 L47,184.5 C47,184.776142 46.7761424,185 46.5,185 L33.5,185 C33.2238576,185 33,184.776142 33,184.5 L33,147.5 C33,147.223858 33.2238576,147 33.5,147 Z" id="panel" fill="#FFFFFF"></path>
        <path d="M53.5,15 L66.5,15 C66.7761424,15 67,15.2238576 67,15.5 L67,52.5 C67,52.7761424 66.7761424,53 66.5,53 L53.5,53 C53.2238576,53 53,52.7761424 53,52.5 L53,15.5 C53,15.2238576 53.2238576,15 53.5,15 Z" id="panel" fill="#FFFFFF"></path>
        <path d="M53.5,59 L66.5,59 C66.7761424,59 67,59.2238576 67,59.5 L67,96.5 C67,96.7761424 66.7761424,97 66.5,97 L53.5,97 C53.2238576,97 53,96.7761424 53,96.5 L53,59.5 C53,59.2238576 53.2238576,59 53.5,59 Z" id="panel" fill="#FFFFFF"></path>
        <path d="M53.5,103 L66.5,103 C66.7761424,103 67,103.223858 67,103.5 L67,140.5 C67,140.776142 66.7761424,141 66.5,141 L53.5,141 C53.2238576,141 53,140.776142 53,140.5 L53,103.5 C53,103.223858 53.2238576,103 53.5,103 Z" id="panel" fill="#FFFFFF"></path>
        <path d="M53.5,147 L66.5,147 C66.7761424,147 67,147.223858 67,147.5 L67,184.5 C67,184.776142 66.7761424,185 66.5,185 L53.5,185 C53.2238576,185 53,184.776142 53,184.5 L53,147.5 C53,147.223858 53.2238576,147 53.5,147 Z" id="panel" fill="#FFFFFF"></path>
        <circle id="peephole" fill="#516DBF" cx="40" cy="50.5" r="1.5"></circle>
    </g>
</svg>