<?xml version="1.0" encoding="UTF-8"?>
<svg width="80px" height="200px" viewBox="0 0 80 200" version="1.1" xmlns="http://www.w3.org/2000/svg" xmlns:xlink="http://www.w3.org/1999/xlink">
    <!-- Generator: Sketch 58 (84663) - https://sketch.com -->
    <title>0306</title>
    <desc>Created with Sketch.</desc>
    <g id="0306" stroke="none" stroke-width="1" fill="none" fill-rule="evenodd">
        <rect id="base" fill="#888888" x="0" y="0" width="80" height="200"></rect>
        <path d="M80,0 L80,200 L0,200 L0,0 L80,0 Z M27.5,168 L12.5,168 C12.2545401,168 12.0503916,168.176875 12.0080557,168.410124 L12,168.5 L12,185.5 C12,185.74546 12.1768752,185.949608 12.4101244,185.991944 L12.5,186 L27.5,186 C27.7454599,186 27.9496084,185.823125 27.9919443,185.589876 L28,185.5 L28,168.5 C28,168.223858 27.7761424,168 27.5,168 Z M47.5,168 L32.5,168 C32.2545401,168 32.0503916,168.176875 32.0080557,168.410124 L32,168.5 L32,185.5 C32,185.74546 32.1768752,185.949608 32.4101244,185.991944 L32.5,186 L47.5,186 C47.7454599,186 47.9496084,185.823125 47.9919443,185.589876 L48,185.5 L48,168.5 C48,168.223858 47.7761424,168 47.5,168 Z M67.5,168 L52.5,168 C52.2238576,168 52,168.223858 52,168.5 L52,168.5 L52,185.5 C52,185.776142 52.2238576,186 52.5,186 L52.5,186 L67.5,186 C67.7761424,186 68,185.776142 68,185.5 L68,185.5 L68,168.5 C68,168.223858 67.7761424,168 67.5,168 L67.5,168 Z M27.5,119 L12.5,119 C12.2545401,119 12.0503916,119.176875 12.0080557,119.410124 L12,119.5 L12,158.5 C12,158.74546 12.1768752,158.949608 12.4101244,158.991944 L12.5,159 L27.5,159 C27.7454599,159 27.9496084,158.823125 27.9919443,158.589876 L28,158.5 L28,119.5 C28,119.223858 27.7761424,119 27.5,119 Z M47.5,119 L32.5,119 C32.2545401,119 32.0503916,119.176875 32.0080557,119.410124 L32,119.5 L32,158.5 C32,158.74546 32.1768752,158.949608 32.4101244,158.991944 L32.5,159 L47.5,159 C47.7454599,159 47.9496084,158.823125 47.9919443,158.589876 L48,158.5 L48,119.5 C48,119.223858 47.7761424,119 47.5,119 Z M67.5,119 L52.5,119 C52.2545401,119 52.0503916,119.176875 52.0080557,119.410124 L52,119.5 L52,158.5 C52,158.74546 52.1768752,158.949608 52.4101244,158.991944 L52.5,159 L67.5,159 C67.7454599,159 67.9496084,158.823125 67.9919443,158.589876 L68,158.5 L68,119.5 C68,119.223858 67.7761424,119 67.5,119 Z M27.5,91 L12.5,91 C12.2545401,91 12.0503916,91.1768752 12.0080557,91.4101244 L12,91.5 L12,108.5 C12,108.74546 12.1768752,108.949608 12.4101244,108.991944 L12.5,109 L27.5,109 C27.7454599,109 27.9496084,108.823125 27.9919443,108.589876 L28,108.5 L28,91.5 C28,91.2238576 27.7761424,91 27.5,91 Z M47.5,91 L32.5,91 C32.2545401,91 32.0503916,91.1768752 32.0080557,91.4101244 L32,91.5 L32,108.5 C32,108.74546 32.1768752,108.949608 32.4101244,108.991944 L32.5,109 L47.5,109 C47.7454599,109 47.9496084,108.823125 47.9919443,108.589876 L48,108.5 L48,91.5 C48,91.2238576 47.7761424,91 47.5,91 Z M67.5,91 L52.5,91 C52.2545401,91 52.0503916,91.1768752 52.0080557,91.4101244 L52,91.5 L52,108.5 C52,108.74546 52.1768752,108.949608 52.4101244,108.991944 L52.5,109 L67.5,109 C67.7454599,109 67.9496084,108.823125 67.9919443,108.589876 L68,108.5 L68,91.5 C68,91.2238576 67.7761424,91 67.5,91 Z M27.5,42 L12.5,42 C12.2545401,42 12.0503916,42.1768752 12.0080557,42.4101244 L12,42.5 L12,81.5 C12,81.7454599 12.1768752,81.9496084 12.4101244,81.9919443 L12.5,82 L27.5,82 C27.7454599,82 27.9496084,81.8231248 27.9919443,81.5898756 L28,81.5 L28,42.5 C28,42.2238576 27.7761424,42 27.5,42 Z M47.5,42 L32.5,42 C32.2545401,42 32.0503916,42.1768752 32.0080557,42.4101244 L32,42.5 L32,81.5 C32,81.7454599 32.1768752,81.9496084 32.4101244,81.9919443 L32.5,82 L47.5,82 C47.7454599,82 47.9496084,81.8231248 47.9919443,81.5898756 L48,81.5 L48,42.5 C48,42.2238576 47.7761424,42 47.5,42 Z M67.5,42 L52.5,42 C52.2545401,42 52.0503916,42.1768752 52.0080557,42.4101244 L52,42.5 L52,81.5 C52,81.7454599 52.1768752,81.9496084 52.4101244,81.9919443 L52.5,82 L67.5,82 C67.7454599,82 67.9496084,81.8231248 67.9919443,81.5898756 L68,81.5 L68,42.5 C68,42.2238576 67.7761424,42 67.5,42 Z M27.5,14 L12.5,14 C12.2545401,14 12.0503916,14.1768752 12.0080557,14.4101244 L12,14.5 L12,31.5 C12,31.7454599 12.1768752,31.9496084 12.4101244,31.9919443 L12.5,32 L27.5,32 C27.7454599,32 27.9496084,31.8231248 27.9919443,31.5898756 L28,31.5 L28,14.5 C28,14.2238576 27.7761424,14 27.5,14 Z M47.5,14 L32.5,14 C32.2545401,14 32.0503916,14.1768752 32.0080557,14.4101244 L32,14.5 L32,31.5 C32,31.7454599 32.1768752,31.9496084 32.4101244,31.9919443 L32.5,32 L47.5,32 C47.7454599,32 47.9496084,31.8231248 47.9919443,31.5898756 L48,31.5 L48,14.5 C48,14.2238576 47.7761424,14 47.5,14 Z M67.5,14 L52.5,14 C52.2545401,14 52.0503916,14.1768752 52.0080557,14.4101244 L52,14.5 L52,31.5 C52,31.7454599 52.1768752,31.9496084 52.4101244,31.9919443 L52.5,32 L67.5,32 C67.7454599,32 67.9496084,31.8231248 67.9919443,31.5898756 L68,31.5 L68,14.5 C68,14.2238576 67.7761424,14 67.5,14 Z" id="main" fill="#FFFFFF"></path>
        <path d="M13.5,15 L26.5,15 C26.7761424,15 27,15.2238576 27,15.5 L27,30.5 C27,30.7761424 26.7761424,31 26.5,31 L13.5,31 C13.2238576,31 13,30.7761424 13,30.5 L13,15.5 C13,15.2238576 13.2238576,15 13.5,15 Z" id="panel" fill="#FFFFFF"></path>
        <path d="M13.5,43 L26.5,43 C26.7761424,43 27,43.2238576 27,43.5 L27,80.5 C27,80.7761424 26.7761424,81 26.5,81 L13.5,81 C13.2238576,81 13,80.7761424 13,80.5 L13,43.5 C13,43.2238576 13.2238576,43 13.5,43 Z" id="panel" fill="#FFFFFF"></path>
        <path d="M13.5,92 L26.5,92 C26.7761424,92 27,92.2238576 27,92.5 L27,107.5 C27,107.776142 26.7761424,108 26.5,108 L13.5,108 C13.2238576,108 13,107.776142 13,107.5 L13,92.5 C13,92.2238576 13.2238576,92 13.5,92 Z" id="panel" fill="#FFFFFF"></path>
        <path d="M13.5,120 L26.5,120 C26.7761424,120 27,120.223858 27,120.5 L27,157.5 C27,157.776142 26.7761424,158 26.5,158 L13.5,158 C13.2238576,158 13,157.776142 13,157.5 L13,120.5 C13,120.223858 13.2238576,120 13.5,120 Z" id="panel" fill="#FFFFFF"></path>
        <path d="M13.5,169 L26.5,169 C26.7761424,169 27,169.223858 27,169.5 L27,184.5 C27,184.776142 26.7761424,185 26.5,185 L13.5,185 C13.2238576,185 13,184.776142 13,184.5 L13,169.5 C13,169.223858 13.2238576,169 13.5,169 Z" id="panel" fill="#FFFFFF"></path>
        <path d="M33.5,15 L46.5,15 C46.7761424,15 47,15.2238576 47,15.5 L47,30.5 C47,30.7761424 46.7761424,31 46.5,31 L33.5,31 C33.2238576,31 33,30.7761424 33,30.5 L33,15.5 C33,15.2238576 33.2238576,15 33.5,15 Z" id="panel" fill="#FFFFFF"></path>
        <path d="M33.5,43 L46.5,43 C46.7761424,43 47,43.2238576 47,43.5 L47,80.5 C47,80.7761424 46.7761424,81 46.5,81 L33.5,81 C33.2238576,81 33,80.7761424 33,80.5 L33,43.5 C33,43.2238576 33.2238576,43 33.5,43 Z" id="panel" fill="#FFFFFF"></path>
        <path d="M33.5,92 L46.5,92 C46.7761424,92 47,92.2238576 47,92.5 L47,107.5 C47,107.776142 46.7761424,108 46.5,108 L33.5,108 C33.2238576,108 33,107.776142 33,107.5 L33,92.5 C33,92.2238576 33.2238576,92 33.5,92 Z" id="panel" fill="#FFFFFF"></path>
        <path d="M33.5,120 L46.5,120 C46.7761424,120 47,120.223858 47,120.5 L47,157.5 C47,157.776142 46.7761424,158 46.5,158 L33.5,158 C33.2238576,158 33,157.776142 33,157.5 L33,120.5 C33,120.223858 33.2238576,120 33.5,120 Z" id="panel" fill="#FFFFFF"></path>
        <path d="M33.5,169 L46.5,169 C46.7761424,169 47,169.223858 47,169.5 L47,184.5 C47,184.776142 46.7761424,185 46.5,185 L33.5,185 C33.2238576,185 33,184.776142 33,184.5 L33,169.5 C33,169.223858 33.2238576,169 33.5,169 Z" id="panel" fill="#FFFFFF"></path>
        <path d="M53.5,15 L66.5,15 C66.7761424,15 67,15.2238576 67,15.5 L67,30.5 C67,30.7761424 66.7761424,31 66.5,31 L53.5,31 C53.2238576,31 53,30.7761424 53,30.5 L53,15.5 C53,15.2238576 53.2238576,15 53.5,15 Z" id="panel" fill="#FFFFFF"></path>
        <path d="M53.5,43 L66.5,43 C66.7761424,43 67,43.2238576 67,43.5 L67,80.5 C67,80.7761424 66.7761424,81 66.5,81 L53.5,81 C53.2238576,81 53,80.7761424 53,80.5 L53,43.5 C53,43.2238576 53.2238576,43 53.5,43 Z" id="panel" fill="#FFFFFF"></path>
        <path d="M53.5,92 L66.5,92 C66.7761424,92 67,92.2238576 67,92.5 L67,107.5 C67,107.776142 66.7761424,108 66.5,108 L53.5,108 C53.2238576,108 53,107.776142 53,107.5 L53,92.5 C53,92.2238576 53.2238576,92 53.5,92 Z" id="panel" fill="#FFFFFF"></path>
        <path d="M53.5,120 L66.5,120 C66.7761424,120 67,120.223858 67,120.5 L67,157.5 C67,157.776142 66.7761424,158 66.5,158 L53.5,158 C53.2238576,158 53,157.776142 53,157.5 L53,120.5 C53,120.223858 53.2238576,120 53.5,120 Z" id="panel" fill="#FFFFFF"></path>
        <path d="M53.5,169 L66.5,169 C66.7761424,169 67,169.223858 67,169.5 L67,184.5 C67,184.776142 66.7761424,185 66.5,185 L53.5,185 C53.2238576,185 53,184.776142 53,184.5 L53,169.5 C53,169.223858 53.2238576,169 53.5,169 Z" id="panel" fill="#FFFFFF"></path>
        <circle id="peephole" fill="#516DBF" cx="40" cy="50.5" r="1.5"></circle>
    </g>
</svg>