<?xml version="1.0" encoding="UTF-8"?>
<svg width="80px" height="200px" viewBox="0 0 80 200" version="1.1" xmlns="http://www.w3.org/2000/svg" xmlns:xlink="http://www.w3.org/1999/xlink">
    <!-- Generator: Sketch 58 (84663) - https://sketch.com -->
    <title>0307</title>
    <desc>Created with Sketch.</desc>
    <g id="0307" stroke="none" stroke-width="1" fill="none" fill-rule="evenodd">
        <rect id="base" fill="#888888" x="0" y="0" width="80" height="200"></rect>
        <path d="M80,0 L80,200 L0,200 L0,0 L80,0 Z M35.5,155 L10.5,155 C10.2545401,155 10.0503916,155.176875 10.0080557,155.410124 L10,155.5 L10,180.5 C10,180.74546 10.1768752,180.949608 10.4101244,180.991944 L10.5,181 L35.5,181 C35.7454599,181 35.9496084,180.823125 35.9919443,180.589876 L36,180.5 L36,155.5 C36,155.223858 35.7761424,155 35.5,155 Z M69.5,155 L44.5,155 C44.2238576,155 44,155.223858 44,155.5 L44,155.5 L44,180.5 C44,180.776142 44.2238576,181 44.5,181 L44.5,181 L69.5,181 C69.7761424,181 70,180.776142 70,180.5 L70,180.5 L70,155.5 C70,155.223858 69.7761424,155 69.5,155 L69.5,155 Z M35.5,121 L10.5,121 C10.2545401,121 10.0503916,121.176875 10.0080557,121.410124 L10,121.5 L10,146.5 C10,146.74546 10.1768752,146.949608 10.4101244,146.991944 L10.5,147 L35.5,147 C35.7454599,147 35.9496084,146.823125 35.9919443,146.589876 L36,146.5 L36,121.5 C36,121.223858 35.7761424,121 35.5,121 Z M69.5,121 L44.5,121 C44.2545401,121 44.0503916,121.176875 44.0080557,121.410124 L44,121.5 L44,146.5 C44,146.74546 44.1768752,146.949608 44.4101244,146.991944 L44.5,147 L69.5,147 C69.7454599,147 69.9496084,146.823125 69.9919443,146.589876 L70,146.5 L70,121.5 C70,121.223858 69.7761424,121 69.5,121 Z M35.5,87 L10.5,87 C10.2545401,87 10.0503916,87.1768752 10.0080557,87.4101244 L10,87.5 L10,112.5 C10,112.74546 10.1768752,112.949608 10.4101244,112.991944 L10.5,113 L35.5,113 C35.7454599,113 35.9496084,112.823125 35.9919443,112.589876 L36,112.5 L36,87.5 C36,87.2238576 35.7761424,87 35.5,87 Z M69.5,87 L44.5,87 C44.2545401,87 44.0503916,87.1768752 44.0080557,87.4101244 L44,87.5 L44,112.5 C44,112.74546 44.1768752,112.949608 44.4101244,112.991944 L44.5,113 L69.5,113 C69.7454599,113 69.9496084,112.823125 69.9919443,112.589876 L70,112.5 L70,87.5 C70,87.2238576 69.7761424,87 69.5,87 Z M35.5,53 L10.5,53 C10.2545401,53 10.0503916,53.1768752 10.0080557,53.4101244 L10,53.5 L10,78.5 C10,78.7454599 10.1768752,78.9496084 10.4101244,78.9919443 L10.5,79 L35.5,79 C35.7454599,79 35.9496084,78.8231248 35.9919443,78.5898756 L36,78.5 L36,53.5 C36,53.2238576 35.7761424,53 35.5,53 Z M69.5,53 L44.5,53 C44.2545401,53 44.0503916,53.1768752 44.0080557,53.4101244 L44,53.5 L44,78.5 C44,78.7454599 44.1768752,78.9496084 44.4101244,78.9919443 L44.5,79 L69.5,79 C69.7454599,79 69.9496084,78.8231248 69.9919443,78.5898756 L70,78.5 L70,53.5 C70,53.2238576 69.7761424,53 69.5,53 Z M35.5,19 L10.5,19 C10.2545401,19 10.0503916,19.1768752 10.0080557,19.4101244 L10,19.5 L10,44.5 C10,44.7454599 10.1768752,44.9496084 10.4101244,44.9919443 L10.5,45 L35.5,45 C35.7454599,45 35.9496084,44.8231248 35.9919443,44.5898756 L36,44.5 L36,19.5 C36,19.2238576 35.7761424,19 35.5,19 Z M69.5,19 L44.5,19 C44.2545401,19 44.0503916,19.1768752 44.0080557,19.4101244 L44,19.5 L44,44.5 C44,44.7454599 44.1768752,44.9496084 44.4101244,44.9919443 L44.5,45 L69.5,45 C69.7454599,45 69.9496084,44.8231248 69.9919443,44.5898756 L70,44.5 L70,19.5 C70,19.2238576 69.7761424,19 69.5,19 Z" id="main" fill="#FFFFFF"></path>
        <path d="M34.5,20 C34.7761424,20 35,20.2238576 35,20.5 L35,43.5 C35,43.7761424 34.7761424,44 34.5,44 L11.5,44 C11.2238576,44 11,43.7761424 11,43.5 L11,20.5 C11,20.2238576 11.2238576,20 11.5,20 L34.5,20 Z M29.5,25 L16.5,25 C16.2238576,25 16,25.2238576 16,25.5 L16,25.5 L16,38.5 C16,38.7761424 16.2238576,39 16.5,39 L16.5,39 L29.5,39 C29.7761424,39 30,38.7761424 30,38.5 L30,38.5 L30,25.5 C30,25.2238576 29.7761424,25 29.5,25 L29.5,25 Z" id="panel" fill="#FFFFFF"></path>
        <path d="M17,25.5 L29,25.5 C29.2761424,25.5 29.5,25.7238576 29.5,26 L29.5,38 C29.5,38.2761424 29.2761424,38.5 29,38.5 L17,38.5 C16.7238576,38.5 16.5,38.2761424 16.5,38 L16.5,26 C16.5,25.7238576 16.7238576,25.5 17,25.5 Z" id="panel" fill="#FFFFFF"></path>
        <path d="M34.5,54 C34.7761424,54 35,54.2238576 35,54.5 L35,77.5 C35,77.7761424 34.7761424,78 34.5,78 L11.5,78 C11.2238576,78 11,77.7761424 11,77.5 L11,54.5 C11,54.2238576 11.2238576,54 11.5,54 L34.5,54 Z M29.5,59 L16.5,59 C16.2238576,59 16,59.2238576 16,59.5 L16,59.5 L16,72.5 C16,72.7761424 16.2238576,73 16.5,73 L16.5,73 L29.5,73 C29.7761424,73 30,72.7761424 30,72.5 L30,72.5 L30,59.5 C30,59.2238576 29.7761424,59 29.5,59 L29.5,59 Z" id="panel" fill="#FFFFFF"></path>
        <path d="M17,59.5 L29,59.5 C29.2761424,59.5 29.5,59.7238576 29.5,60 L29.5,72 C29.5,72.2761424 29.2761424,72.5 29,72.5 L17,72.5 C16.7238576,72.5 16.5,72.2761424 16.5,72 L16.5,60 C16.5,59.7238576 16.7238576,59.5 17,59.5 Z" id="panel" fill="#FFFFFF"></path>
        <path d="M34.5,88 C34.7761424,88 35,88.2238576 35,88.5 L35,111.5 C35,111.776142 34.7761424,112 34.5,112 L11.5,112 C11.2238576,112 11,111.776142 11,111.5 L11,88.5 C11,88.2238576 11.2238576,88 11.5,88 L34.5,88 Z M29.5,93 L16.5,93 C16.2238576,93 16,93.2238576 16,93.5 L16,93.5 L16,106.5 C16,106.776142 16.2238576,107 16.5,107 L16.5,107 L29.5,107 C29.7761424,107 30,106.776142 30,106.5 L30,106.5 L30,93.5 C30,93.2238576 29.7761424,93 29.5,93 L29.5,93 Z" id="panel" fill="#FFFFFF"></path>
        <path d="M17,93.5 L29,93.5 C29.2761424,93.5 29.5,93.7238576 29.5,94 L29.5,106 C29.5,106.276142 29.2761424,106.5 29,106.5 L17,106.5 C16.7238576,106.5 16.5,106.276142 16.5,106 L16.5,94 C16.5,93.7238576 16.7238576,93.5 17,93.5 Z" id="panel" fill="#FFFFFF"></path>
        <path d="M34.5,122 C34.7761424,122 35,122.223858 35,122.5 L35,145.5 C35,145.776142 34.7761424,146 34.5,146 L11.5,146 C11.2238576,146 11,145.776142 11,145.5 L11,122.5 C11,122.223858 11.2238576,122 11.5,122 L34.5,122 Z M29.5,127 L16.5,127 C16.2238576,127 16,127.223858 16,127.5 L16,127.5 L16,140.5 C16,140.776142 16.2238576,141 16.5,141 L16.5,141 L29.5,141 C29.7761424,141 30,140.776142 30,140.5 L30,140.5 L30,127.5 C30,127.223858 29.7761424,127 29.5,127 L29.5,127 Z" id="panel" fill="#FFFFFF"></path>
        <path d="M17,127.5 L29,127.5 C29.2761424,127.5 29.5,127.723858 29.5,128 L29.5,140 C29.5,140.276142 29.2761424,140.5 29,140.5 L17,140.5 C16.7238576,140.5 16.5,140.276142 16.5,140 L16.5,128 C16.5,127.723858 16.7238576,127.5 17,127.5 Z" id="panel" fill="#FFFFFF"></path>
        <path d="M34.5,156 C34.7761424,156 35,156.223858 35,156.5 L35,179.5 C35,179.776142 34.7761424,180 34.5,180 L11.5,180 C11.2238576,180 11,179.776142 11,179.5 L11,156.5 C11,156.223858 11.2238576,156 11.5,156 L34.5,156 Z M29.5,161 L16.5,161 C16.2238576,161 16,161.223858 16,161.5 L16,161.5 L16,174.5 C16,174.776142 16.2238576,175 16.5,175 L16.5,175 L29.5,175 C29.7761424,175 30,174.776142 30,174.5 L30,174.5 L30,161.5 C30,161.223858 29.7761424,161 29.5,161 L29.5,161 Z" id="panel" fill="#FFFFFF"></path>
        <path d="M17,161.5 L29,161.5 C29.2761424,161.5 29.5,161.723858 29.5,162 L29.5,174 C29.5,174.276142 29.2761424,174.5 29,174.5 L17,174.5 C16.7238576,174.5 16.5,174.276142 16.5,174 L16.5,162 C16.5,161.723858 16.7238576,161.5 17,161.5 Z" id="panel" fill="#FFFFFF"></path>
        <path d="M68.5,20 C68.7761424,20 69,20.2238576 69,20.5 L69,43.5 C69,43.7761424 68.7761424,44 68.5,44 L45.5,44 C45.2238576,44 45,43.7761424 45,43.5 L45,20.5 C45,20.2238576 45.2238576,20 45.5,20 L68.5,20 Z M63.5,25 L50.5,25 C50.2238576,25 50,25.2238576 50,25.5 L50,25.5 L50,38.5 C50,38.7761424 50.2238576,39 50.5,39 L50.5,39 L63.5,39 C63.7761424,39 64,38.7761424 64,38.5 L64,38.5 L64,25.5 C64,25.2238576 63.7761424,25 63.5,25 L63.5,25 Z" id="panel" fill="#FFFFFF"></path>
        <path d="M51,25.5 L63,25.5 C63.2761424,25.5 63.5,25.7238576 63.5,26 L63.5,38 C63.5,38.2761424 63.2761424,38.5 63,38.5 L51,38.5 C50.7238576,38.5 50.5,38.2761424 50.5,38 L50.5,26 C50.5,25.7238576 50.7238576,25.5 51,25.5 Z" id="panel" fill="#FFFFFF"></path>
        <path d="M68.5,54 C68.7761424,54 69,54.2238576 69,54.5 L69,77.5 C69,77.7761424 68.7761424,78 68.5,78 L45.5,78 C45.2238576,78 45,77.7761424 45,77.5 L45,54.5 C45,54.2238576 45.2238576,54 45.5,54 L68.5,54 Z M63.5,59 L50.5,59 C50.2238576,59 50,59.2238576 50,59.5 L50,59.5 L50,72.5 C50,72.7761424 50.2238576,73 50.5,73 L50.5,73 L63.5,73 C63.7761424,73 64,72.7761424 64,72.5 L64,72.5 L64,59.5 C64,59.2238576 63.7761424,59 63.5,59 L63.5,59 Z" id="panel" fill="#FFFFFF"></path>
        <path d="M51,59.5 L63,59.5 C63.2761424,59.5 63.5,59.7238576 63.5,60 L63.5,72 C63.5,72.2761424 63.2761424,72.5 63,72.5 L51,72.5 C50.7238576,72.5 50.5,72.2761424 50.5,72 L50.5,60 C50.5,59.7238576 50.7238576,59.5 51,59.5 Z" id="panel" fill="#FFFFFF"></path>
        <path d="M68.5,88 C68.7761424,88 69,88.2238576 69,88.5 L69,111.5 C69,111.776142 68.7761424,112 68.5,112 L45.5,112 C45.2238576,112 45,111.776142 45,111.5 L45,88.5 C45,88.2238576 45.2238576,88 45.5,88 L68.5,88 Z M63.5,93 L50.5,93 C50.2238576,93 50,93.2238576 50,93.5 L50,93.5 L50,106.5 C50,106.776142 50.2238576,107 50.5,107 L50.5,107 L63.5,107 C63.7761424,107 64,106.776142 64,106.5 L64,106.5 L64,93.5 C64,93.2238576 63.7761424,93 63.5,93 L63.5,93 Z" id="panel" fill="#FFFFFF"></path>
        <path d="M51,93.5 L63,93.5 C63.2761424,93.5 63.5,93.7238576 63.5,94 L63.5,106 C63.5,106.276142 63.2761424,106.5 63,106.5 L51,106.5 C50.7238576,106.5 50.5,106.276142 50.5,106 L50.5,94 C50.5,93.7238576 50.7238576,93.5 51,93.5 Z" id="panel" fill="#FFFFFF"></path>
        <path d="M68.5,122 C68.7761424,122 69,122.223858 69,122.5 L69,145.5 C69,145.776142 68.7761424,146 68.5,146 L45.5,146 C45.2238576,146 45,145.776142 45,145.5 L45,122.5 C45,122.223858 45.2238576,122 45.5,122 L68.5,122 Z M63.5,127 L50.5,127 C50.2238576,127 50,127.223858 50,127.5 L50,127.5 L50,140.5 C50,140.776142 50.2238576,141 50.5,141 L50.5,141 L63.5,141 C63.7761424,141 64,140.776142 64,140.5 L64,140.5 L64,127.5 C64,127.223858 63.7761424,127 63.5,127 L63.5,127 Z" id="panel" fill="#FFFFFF"></path>
        <path d="M51,127.5 L63,127.5 C63.2761424,127.5 63.5,127.723858 63.5,128 L63.5,140 C63.5,140.276142 63.2761424,140.5 63,140.5 L51,140.5 C50.7238576,140.5 50.5,140.276142 50.5,140 L50.5,128 C50.5,127.723858 50.7238576,127.5 51,127.5 Z" id="panel" fill="#FFFFFF"></path>
        <path d="M68.5,156 C68.7761424,156 69,156.223858 69,156.5 L69,179.5 C69,179.776142 68.7761424,180 68.5,180 L45.5,180 C45.2238576,180 45,179.776142 45,179.5 L45,156.5 C45,156.223858 45.2238576,156 45.5,156 L68.5,156 Z M63.5,161 L50.5,161 C50.2238576,161 50,161.223858 50,161.5 L50,161.5 L50,174.5 C50,174.776142 50.2238576,175 50.5,175 L50.5,175 L63.5,175 C63.7761424,175 64,174.776142 64,174.5 L64,174.5 L64,161.5 C64,161.223858 63.7761424,161 63.5,161 L63.5,161 Z" id="panel" fill="#FFFFFF"></path>
        <path d="M51,161.5 L63,161.5 C63.2761424,161.5 63.5,161.723858 63.5,162 L63.5,174 C63.5,174.276142 63.2761424,174.5 63,174.5 L51,174.5 C50.7238576,174.5 50.5,174.276142 50.5,174 L50.5,162 C50.5,161.723858 50.7238576,161.5 51,161.5 Z" id="panel" fill="#FFFFFF"></path>
        <circle id="peephole" fill="#516DBF" cx="40" cy="49.5" r="1.5"></circle>
    </g>
</svg>