<?xml version="1.0" encoding="UTF-8"?>
<svg width="80px" height="200px" viewBox="0 0 80 200" version="1.1" xmlns="http://www.w3.org/2000/svg" xmlns:xlink="http://www.w3.org/1999/xlink">
    <!-- Generator: Sketch 58 (84663) - https://sketch.com -->
    <title>0401</title>
    <desc>Created with Sketch.</desc>
    <g id="0401" stroke="none" stroke-width="1" fill="none" fill-rule="evenodd">
        <path d="M80,0 L80,200 L0,200 L0,0 L80,0 Z M55,28 L25,28 L25,172 L55,172 L55,28 Z" id="base" fill="#888888"></path>
        <path d="M80,0 L80,200 L0,200 L0,0 L80,0 Z M21.5,175 L12.5,175 C12.2545401,175 12.0503916,175.176875 12.0080557,175.410124 L12,175.5 L12,184.5 C12,184.74546 12.1768752,184.949608 12.4101244,184.991944 L12.5,185 L21.5,185 C21.7454599,185 21.9496084,184.823125 21.9919443,184.589876 L22,184.5 L22,175.5 C22,175.223858 21.7761424,175 21.5,175 Z M54.5,175 L25.5,175 C25.2545401,175 25.0503916,175.176875 25.0080557,175.410124 L25,175.5 L25,184.5 C25,184.74546 25.1768752,184.949608 25.4101244,184.991944 L25.5,185 L54.5,185 C54.7454599,185 54.9496084,184.823125 54.9919443,184.589876 L55,184.5 L55,175.5 C55,175.223858 54.7761424,175 54.5,175 Z M67.5,175 L58.5,175 C58.2545401,175 58.0503916,175.176875 58.0080557,175.410124 L58,175.5 L58,184.5 C58,184.74546 58.1768752,184.949608 58.4101244,184.991944 L58.5,185 L67.5,185 C67.7454599,185 67.9496084,184.823125 67.9919443,184.589876 L68,184.5 L68,175.5 C68,175.223858 67.7761424,175 67.5,175 Z M21.5,28 L12.5,28 C12.2545401,28 12.0503916,28.1768752 12.0080557,28.4101244 L12,28.5 L12,171.5 C12,171.74546 12.1768752,171.949608 12.4101244,171.991944 L12.5,172 L21.5,172 C21.7454599,172 21.9496084,171.823125 21.9919443,171.589876 L22,171.5 L22,28.5 C22,28.2238576 21.7761424,28 21.5,28 Z M67.5,28 L58.5,28 C58.2545401,28 58.0503916,28.1768752 58.0080557,28.4101244 L58,28.5 L58,171.5 C58,171.74546 58.1768752,171.949608 58.4101244,171.991944 L58.5,172 L67.5,172 C67.7454599,172 67.9496084,171.823125 67.9919443,171.589876 L68,171.5 L68,28.5 C68,28.2238576 67.7761424,28 67.5,28 Z M55,28 L25,28 L25,172 L55,172 L55,28 Z M21.5,15 L12.5,15 C12.2545401,15 12.0503916,15.1768752 12.0080557,15.4101244 L12,15.5 L12,24.5 C12,24.7454599 12.1768752,24.9496084 12.4101244,24.9919443 L12.5,25 L21.5,25 C21.7454599,25 21.9496084,24.8231248 21.9919443,24.5898756 L22,24.5 L22,15.5 C22,15.2238576 21.7761424,15 21.5,15 Z M54.5,15 L25.5,15 C25.2545401,15 25.0503916,15.1768752 25.0080557,15.4101244 L25,15.5 L25,24.5 C25,24.7454599 25.1768752,24.9496084 25.4101244,24.9919443 L25.5,25 L54.5,25 C54.7454599,25 54.9496084,24.8231248 54.9919443,24.5898756 L55,24.5 L55,15.5 C55,15.2238576 54.7761424,15 54.5,15 Z M67.5,15 L58.5,15 C58.2545401,15 58.0503916,15.1768752 58.0080557,15.4101244 L58,15.5 L58,24.5 C58,24.7454599 58.1768752,24.9496084 58.4101244,24.9919443 L58.5,25 L67.5,25 C67.7454599,25 67.9496084,24.8231248 67.9919443,24.5898756 L68,24.5 L68,15.5 C68,15.2238576 67.7761424,15 67.5,15 Z" id="main" fill="#FFFFFF"></path>
        <path d="M13.5,176 L20.5,176 C20.7761424,176 21,176.223858 21,176.5 L21,183.5 C21,183.776142 20.7761424,184 20.5,184 L13.5,184 C13.2238576,184 13,183.776142 13,183.5 L13,176.5 C13,176.223858 13.2238576,176 13.5,176 Z" id="panel" fill="#FFFFFF"></path>
        <path d="M59.5,176 L66.5,176 C66.7761424,176 67,176.223858 67,176.5 L67,183.5 C67,183.776142 66.7761424,184 66.5,184 L59.5,184 C59.2238576,184 59,183.776142 59,183.5 L59,176.5 C59,176.223858 59.2238576,176 59.5,176 Z" id="panel" fill="#FFFFFF"></path>
        <path d="M26.5,176 L53.5,176 C53.7761424,176 54,176.223858 54,176.5 L54,183.5 C54,183.776142 53.7761424,184 53.5,184 L26.5,184 C26.2238576,184 26,183.776142 26,183.5 L26,176.5 C26,176.223858 26.2238576,176 26.5,176 Z" id="panel" fill="#FFFFFF"></path>
        <path d="M13.5,16 L20.5,16 C20.7761424,16 21,16.2238576 21,16.5 L21,23.5 C21,23.7761424 20.7761424,24 20.5,24 L13.5,24 C13.2238576,24 13,23.7761424 13,23.5 L13,16.5 C13,16.2238576 13.2238576,16 13.5,16 Z" id="panel" fill="#FFFFFF"></path>
        <path d="M59.5,16 L66.5,16 C66.7761424,16 67,16.2238576 67,16.5 L67,23.5 C67,23.7761424 66.7761424,24 66.5,24 L59.5,24 C59.2238576,24 59,23.7761424 59,23.5 L59,16.5 C59,16.2238576 59.2238576,16 59.5,16 Z" id="panel" fill="#FFFFFF"></path>
        <path d="M13.5,29 L20.5,29 C20.7761424,29 21,29.2238576 21,29.5 L21,170.5 C21,170.776142 20.7761424,171 20.5,171 L13.5,171 C13.2238576,171 13,170.776142 13,170.5 L13,29.5 C13,29.2238576 13.2238576,29 13.5,29 Z" id="panel" fill="#FFFFFF"></path>
        <path d="M59.5,29 L66.5,29 C66.7761424,29 67,29.2238576 67,29.5 L67,170.5 C67,170.776142 66.7761424,171 66.5,171 L59.5,171 C59.2238576,171 59,170.776142 59,170.5 L59,29.5 C59,29.2238576 59.2238576,29 59.5,29 Z" id="panel" fill="#FFFFFF"></path>
        <path d="M26.5,16 L53.5,16 C53.7761424,16 54,16.2238576 54,16.5 L54,23.5 C54,23.7761424 53.7761424,24 53.5,24 L26.5,24 C26.2238576,24 26,23.7761424 26,23.5 L26,16.5 C26,16.2238576 26.2238576,16 26.5,16 Z" id="panel" fill="#FFFFFF"></path>
        <rect id="mirror" fill="#92DBFF" x="25" y="28" width="30" height="144"></rect>
    </g>
</svg>