<?xml version="1.0" encoding="UTF-8"?>
<svg width="80px" height="200px" viewBox="0 0 80 200" version="1.1" xmlns="http://www.w3.org/2000/svg" xmlns:xlink="http://www.w3.org/1999/xlink">
    <!-- Generator: Sketch 58 (84663) - https://sketch.com -->
    <title>0402</title>
    <desc>Created with Sketch.</desc>
    <g id="0402" stroke="none" stroke-width="1" fill="none" fill-rule="evenodd">
        <path d="M80,0 L80,200 L0,200 L0,0 L80,0 Z M60,24 L21,24 L21,176 L60,176 L60,24 Z" id="base" fill="#888888"></path>
        <path d="M80,0 L80,200 L0,200 L0,0 L80,0 Z M67.5,15 L12.5,15 C12.2238576,15 12,15.2238576 12,15.5 L12,15.5 L12,184.5 C12,184.776142 12.2238576,185 12.5,185 L12.5,185 L67.5,185 C67.7761424,185 68,184.776142 68,184.5 L68,184.5 L68,15.5 C68,15.2238576 67.7761424,15 67.5,15 L67.5,15 Z" id="main" fill="#FFFFFF"></path>
        <path d="M66.5,16 C66.7761424,16 67,16.2238576 67,16.5 L67,183.5 C67,183.776142 66.7761424,184 66.5,184 L13.5,184 C13.2238576,184 13,183.776142 13,183.5 L13,16.5 C13,16.2238576 13.2238576,16 13.5,16 L66.5,16 Z M60,24 L21,24 L21,176 L60,176 L60,24 Z" id="panel" fill="#FFFFFF"></path>
        <rect id="mirror" fill="#92DBFF" x="21" y="24" width="39" height="152"></rect>
    </g>
</svg>