<?xml version="1.0" encoding="UTF-8"?>
<svg width="80px" height="200px" viewBox="0 0 80 200" version="1.1" xmlns="http://www.w3.org/2000/svg" xmlns:xlink="http://www.w3.org/1999/xlink">
    <!-- Generator: Sketch 58 (84663) - https://sketch.com -->
    <title>0403</title>
    <desc>Created with Sketch.</desc>
    <g id="0403" stroke="none" stroke-width="1" fill="none" fill-rule="evenodd">
        <path d="M80,0 L80,200 L0,200 L0,0 L80,0 Z M42.039077,15.99961 L37.9996174,15.99961 L38.0039331,16.1289496 C38.0096354,16.2155223 38.0210351,16.3027168 38.0384153,16.3901096 C40.8964958,30.7613719 42.3619235,43.4933167 42.4390481,54.5799248 L42.4390481,54.5799248 L42.4411991,55.9148138 L42.4332174,56.6976962 L42.4171355,57.4810641 C42.2832009,62.6782927 41.5826062,68.7848839 39.5780449,82.8071714 L39.5780449,82.8071714 L37.2992939,98.4865963 L36.9527375,100.898772 C34.6245757,117.218893 33.5175164,127.461535 33.4505988,135.488784 L33.4505988,135.488784 L33.4473639,136.258828 C33.4473639,150.707547 34.9558043,166.620379 37.96995,184.000615 L37.96995,184.000615 L42.0003292,184.000615 C42.0002299,183.88711 41.9904329,183.772063 41.9702681,183.656425 C38.9540688,166.359681 37.4473639,150.559635 37.4473639,136.258828 L37.4473639,136.258828 L37.4505641,135.511669 L37.4674217,134.363405 L37.4988563,133.179881 C37.7228235,126.235053 38.6828122,117.399107 40.4844881,104.496305 L40.4844881,104.496305 L41.1419251,99.8641745 L43.4691938,83.8542937 L44.3560797,77.5660016 L44.7521419,74.6591442 C45.9633236,65.6263376 46.3795959,60.9884644 46.4355306,56.5778692 L46.4355306,56.5778692 L46.4422616,55.5 C46.4422616,44.0172557 44.9729999,30.8529954 42.039077,15.99961 L42.039077,15.99961 Z" id="base" fill="#888888"></path>
        <path d="M80,0 L80,200 L0,200 L0,0 L80,0 Z M67.5,15 L12.5,15 C12.2238576,15 12,15.2238576 12,15.5 L12,15.5 L12,184.5 C12,184.776142 12.2238576,185 12.5,185 L12.5,185 L67.5,185 C67.7761424,185 68,184.776142 68,184.5 L68,184.5 L68,15.5 C68,15.2238576 67.7761424,15 67.5,15 L67.5,15 Z" id="main" fill="#FFFFFF"></path>
        <path d="M66.5,15.99961 C66.7761424,15.99961 67,16.2238576 67,16.5 L67,183.5 C67,183.776142 66.7761424,184 66.5,184 L42.0003281,184 C42.0001729,183.886441 41.9903743,183.771726 41.9702681,183.656425 C39.040246,166.853874 37.5346936,151.463717 37.4510538,137.488283 L37.4473639,136.258828 L37.4505641,135.511669 L37.4674217,134.363405 L37.4988563,133.179881 L37.529272,132.337285 C37.7896485,125.805654 38.6765712,117.59972 40.2723203,106.02526 L40.4844881,104.496305 L41.1419251,99.8641745 L43.4691938,83.8542937 L44.3560797,77.5660016 L44.7521419,74.6591442 C45.9369936,65.822703 46.3611215,61.1921881 46.4313674,56.8658818 L46.4355306,56.5778692 L46.4422616,55.5 C46.4422616,44.3362209 45.0534919,31.5830457 42.2801801,17.2334823 L42.039077,15.99961 L66.5,15.99961 Z" id="panel" fill="#FFFFFF"></path>
        <path d="M37.9996174,15.99961 L38.0039331,16.1289496 C38.0096354,16.2155223 38.0210351,16.3027168 38.0384153,16.3901096 C40.8148364,30.3507644 42.2770479,42.7644387 42.4290374,53.6256148 L42.4390481,54.5799248 L42.4411991,55.9148138 L42.4332174,56.6976962 L42.4171355,57.4810641 L42.3863754,58.437595 C42.2277122,62.5586958 41.7040102,67.4763313 40.4750752,76.4232323 L39.5780449,82.8071714 L37.2992939,98.4865963 L36.7276696,102.484566 C34.626814,117.366005 33.5869865,127.051441 33.4605416,134.691938 L33.4505988,135.488784 L33.4473639,136.258828 C33.4473639,150.294726 34.8708391,165.712269 37.7152822,182.514474 L37.969,184 L13.5,184 C13.2238576,184 13,183.776142 13,183.5 L13,16.5 C13,16.2238576 13.2238576,15.99961 13.5,15.99961 L37.9996174,15.99961 L38.0039331,16.1289496 L37.9996174,15.99961 Z" id="panel" fill="#FFFFFF"></path>
        <path d="M37.9996174,15.99961 L42.039077,15.99961 C44.9729999,30.8529954 46.4422616,44.0172557 46.4422616,55.5 L46.4355306,56.5778692 C46.3795959,60.9884644 45.9633236,65.6263376 44.7521419,74.6591442 L44.3560797,77.5660016 L43.4691938,83.8542937 L41.1419251,99.8641745 L40.4844881,104.496305 C38.6828122,117.399107 37.7228235,126.235053 37.4988563,133.179881 L37.4674217,134.363405 L37.4505641,135.511669 L37.4473639,136.258828 C37.4473639,150.559635 38.9540688,166.359681 41.9702681,183.656425 C41.9904329,183.772063 42.0002299,183.88711 42.0003292,184.000615 L37.96995,184.000615 C34.9558043,166.620379 33.4473639,150.707547 33.4473639,136.258828 L33.4505988,135.488784 C33.5175164,127.461535 34.6245757,117.218893 36.9527375,100.898772 L37.2992939,98.4865963 L39.5780449,82.8071714 C41.5826062,68.7848839 42.2832009,62.6782927 42.4171355,57.4810641 L42.4332174,56.6976962 L42.4411991,55.9148138 L42.4390481,54.5799248 C42.3619235,43.4933167 40.8964958,30.7613719 38.0384153,16.3901096 C38.012345,16.2590204 37.9997308,16.1283773 37.9996174,15.99961 L42.039077,15.99961 L37.9996174,15.99961 Z" id="mirror" fill="#92DBFF"></path>
    </g>
</svg>