<?xml version="1.0" encoding="UTF-8"?>
<svg width="80px" height="200px" viewBox="0 0 80 200" version="1.1" xmlns="http://www.w3.org/2000/svg" xmlns:xlink="http://www.w3.org/1999/xlink">
    <!-- Generator: Sketch 58 (84663) - https://sketch.com -->
    <title>0404</title>
    <desc>Created with Sketch.</desc>
    <g id="0404" stroke="none" stroke-width="1" fill="none" fill-rule="evenodd">
        <path d="M80,0 L80,200 L0,200 L0,0 L80,0 Z M67,162 L13,162 L13,174 L67,174 L67,162 Z M67,94 L13,94 L13,106 L67,106 L67,94 Z M67,26 L13,26 L13,38 L67,38 L67,26 Z" id="base" fill="#888888"></path>
        <path d="M80,0 L80,200 L0,200 L0,0 L80,0 Z M67.5,15 L12.5,15 C12.2238576,15 12,15.2238576 12,15.5 L12,15.5 L12,184.5 C12,184.776142 12.2238576,185 12.5,185 L12.5,185 L67.5,185 C67.7761424,185 68,184.776142 68,184.5 L68,184.5 L68,15.5 C68,15.2238576 67.7761424,15 67.5,15 L67.5,15 Z" id="main" fill="#FFFFFF"></path>
        <polygon id="mirror" fill="#92DBFF" points="13 26 67 26 67 38 13 38"></polygon>
        <polygon id="mirror" fill="#92DBFF" points="13 94 67 94 67 106 13 106"></polygon>
        <polygon id="mirror" fill="#92DBFF" points="13 162 67 162 67 174 13 174"></polygon>
        <path d="M13.5,16 L66.5,16 C66.7761424,16 67,16.2238576 67,16.5 L67,26 L13,26 L13,16.5 C13,16.2238576 13.2238576,16 13.5,16 Z" id="panel" fill="#FFFFFF"></path>
        <polygon id="panel" fill="#FFFFFF" points="13 38 67 38 67 94 13 94"></polygon>
        <polygon id="panel" fill="#FFFFFF" points="13 106 67 106 67 162 13 162"></polygon>
        <path d="M13,174 L67,174 L67,183.5 C67,183.776142 66.7761424,184 66.5,184 L13.5,184 C13.2238576,184 13,183.776142 13,183.5 L13,174 Z" id="panel" fill="#FFFFFF"></path>
        <circle id="peephole" fill="#516DBF" cx="40" cy="55.5" r="1.5"></circle>
    </g>
</svg>