<?xml version="1.0" encoding="UTF-8"?>
<svg width="80px" height="200px" viewBox="0 0 80 200" version="1.1" xmlns="http://www.w3.org/2000/svg" xmlns:xlink="http://www.w3.org/1999/xlink">
    <!-- Generator: Sketch 58 (84663) - https://sketch.com -->
    <title>0502</title>
    <desc>Created with Sketch.</desc>
    <defs>
        <linearGradient x1="50%" y1="0%" x2="50%" y2="100%" id="linearGradient-1">
            <stop stop-color="#DFDFDF" offset="0%"></stop>
            <stop stop-color="#FFFFFF" offset="34.9345439%"></stop>
            <stop stop-color="#B0B0B0" offset="100%"></stop>
        </linearGradient>
    </defs>
    <g id="0502" stroke="none" stroke-width="1" fill="none" fill-rule="evenodd">
        <rect id="base" fill="#888888" x="0" y="0" width="80" height="200"></rect>
        <path d="M80,0 L80,200 L0,200 L0,0 L80,0 Z M14.484375,0.5 L14.015625,0.5 C14.0089132,0.5 14.0031898,0.668428681 14.0009775,0.904882666 L14.0009775,199.095117 C14.0028738,199.297792 14.0073496,199.450489 14.0128164,199.489981 L14.015625,199.5 L14.484375,199.5 C14.4920456,199.5 14.4984253,199.280012 14.4997483,198.989908 L14.5,198.878125 L14.5,1.121875 C14.5,0.778422921 14.4930044,0.5 14.484375,0.5 Z M65.984375,0.5 L65.515625,0.5 C65.5089132,0.5 65.5031898,0.668428681 65.5009775,0.904882666 L65.5009775,199.095117 C65.5031898,199.331571 65.5089132,199.5 65.515625,199.5 L65.515625,199.5 L65.984375,199.5 C65.9930044,199.5 66,199.221577 66,198.878125 L66,198.878125 L66,1.121875 C66,0.778422921 65.9930044,0.5 65.984375,0.5 L65.984375,0.5 Z" id="main" fill="#FFFFFF"></path>
        <rect id="molding" fill="url(#linearGradient-1)" x="15" y="20" width="50" height="1"></rect>
        <rect id="molding" fill="url(#linearGradient-1)" x="15" y="60" width="50" height="1"></rect>
        <rect id="molding" fill="url(#linearGradient-1)" x="15" y="100" width="50" height="1"></rect>
        <rect id="molding" fill="url(#linearGradient-1)" x="15" y="139" width="50" height="1"></rect>
        <rect id="molding" fill="url(#linearGradient-1)" x="15" y="179" width="50" height="1"></rect>
        <circle id="peephole" fill="#516DBF" cx="40" cy="55.5" r="1.5"></circle>
    </g>
</svg>