<?xml version="1.0" encoding="UTF-8"?>
<svg width="80px" height="200px" viewBox="0 0 80 200" version="1.1" xmlns="http://www.w3.org/2000/svg" xmlns:xlink="http://www.w3.org/1999/xlink">
    <!-- Generator: Sketch 58 (84663) - https://sketch.com -->
    <title>0602</title>
    <desc>Created with Sketch.</desc>
    <g id="0602" stroke="none" stroke-width="1" fill="none" fill-rule="evenodd">
        <rect id="base" fill="#888888" x="0" y="0" width="80" height="200"></rect>
        <path d="M80,0 L80,200 L0,200 L0,0 L80,0 Z M69.3199378,12.18584 C59.1899693,21.2987188 49.4166567,27.5881149 40,31.0540283 C30.5833433,34.5199417 21.7433749,36.8450817 13.4800949,38.0294485 C7.79504249,62.091385 9.31462043,87.4394042 18.0388287,114.073506 C26.763037,140.707608 43.85674,162.569064 69.3199378,179.657875 C59.691279,154.114017 55.4308165,124.27479 56.5385505,90.1401916 L56.6161566,87.9013686 C57.8350805,54.867342 62.0696742,29.6288324 69.3199378,12.18584 Z M50.7422773,178.557875 L10.1156106,178.557875 C9.83946822,178.557875 9.6156106,178.781733 9.6156106,179.057875 C9.6156106,179.334017 9.83946822,179.557875 10.1156106,179.557875 L50.7422773,179.557875 C51.0184197,179.557875 51.2422773,179.334017 51.2422773,179.057875 C51.2422773,178.781733 51.0184197,178.557875 50.7422773,178.557875 Z M43.860867,171 L13.2989763,171 C13.022834,171 12.7989763,171.223858 12.7989763,171.5 C12.7989763,171.776142 13.022834,172 13.2989763,172 L43.860867,172 C44.1370094,172 44.360867,171.776142 44.360867,171.5 C44.360867,171.223858 44.1370094,171 43.860867,171 Z M36.4228607,163.5 L16.8152975,163.5 C16.5391551,163.5 16.3152975,163.723858 16.3152975,164 C16.3152975,164.276142 16.5391551,164.5 16.8152975,164.5 L36.4228607,164.5 C36.6990031,164.5 36.9228607,164.276142 36.9228607,164 C36.9228607,163.723858 36.6990031,163.5 36.4228607,163.5 Z M60.6146854,11.8082071 C55.2413793,16.471154 47.9634878,20.8279378 38.781329,24.8739364 C29.6032726,28.9181273 21.7597932,31.2086957 15.2575147,31.7497491 C14.9823234,31.7726477 14.7777997,32.0142973 14.8006984,32.2894886 C14.823597,32.56468 15.0652466,32.7692036 15.3404379,32.746305 C21.967139,32.1948985 29.9129704,29.8744398 39.1845559,25.7890364 C48.4520391,21.7054408 55.8137825,17.2984604 61.270104,12.5634729 C61.4786649,12.3824841 61.5010165,12.0666916 61.3200276,11.8581307 C61.1390388,11.6495698 60.8232463,11.6272182 60.6146854,11.8082071 Z M50.4229748,11.8010727 C47.632245,14.1169849 42.892141,16.824699 36.2130858,19.911728 C29.5421458,22.9950063 23.0545012,24.95284 16.7497114,25.7870617 C16.475955,25.8232839 16.2833955,26.0745712 16.3196177,26.3483276 C16.3558399,26.622084 16.6071272,26.8146435 16.8808836,26.7784213 C23.2893239,25.930485 29.8733882,23.9435539 36.6326356,20.8194604 L37.8386845,20.2562535 L39.0018832,19.701292 L40.1222456,19.1545591 C45.0675158,16.7127504 48.7120577,14.5203795 51.0615799,12.5706073 C51.274081,12.3942613 51.3033906,12.0790385 51.1270446,11.8665374 C50.9506987,11.6540363 50.6354758,11.6247268 50.4229748,11.8010727 Z M39.1970579,11.7820527 C36.5329085,13.7276597 33.4542779,15.3550451 29.9599584,16.6635775 C26.4640653,17.9726991 22.5959635,18.8669142 18.3550383,19.3453401 C18.0806365,19.3762958 17.8832845,19.623837 17.9142402,19.8982388 C17.945196,20.1726406 18.1927372,20.3699927 18.467139,20.339037 C22.7871166,19.851693 26.7351586,18.9389976 30.3106501,17.6000685 C33.8877151,16.2605501 37.0468422,14.5906135 39.7868233,12.5896274 C40.0098289,12.4267682 40.0585871,12.1139629 39.8957279,11.8909574 C39.7328688,11.6679518 39.4200635,11.6191935 39.1970579,11.7820527 Z" id="main" fill="#FFFFFF"></path>
        <path d="M66.7192126,16.0556042 C60.2436817,31.156639 56.4304773,55.5076707 55.2795993,89.1086992 L55.2452,90.1401916 C54.137466,124.27479 58.1499043,153.145324 67.2825149,176.751794 C43.8699622,160.368576 27.9750891,139.479327 19.5978957,114.084046 C11.2207023,88.6887651 9.50884559,63.6401813 14.4623255,38.9382947 C22.0707851,38.1246808 30.5833433,35.9849172 40,32.5190039 C49.4166567,29.0530905 58.3230609,23.5652906 66.7192126,16.0556042 Z M52.820174,36.8154657 C48.7489018,39.3208562 43.7730018,41.6324307 37.8924739,43.7501892 C32.0119461,45.8679477 26.5142314,47.3134071 21.3993297,48.0865674 C18.4923636,67.9106744 20.1988207,87.3218175 26.5187009,106.319997 C32.8385811,125.318176 41.2354403,140.008468 51.7092785,150.390873 C48.2914479,130.974288 46.5825327,110.890728 46.5825327,90.1401916 C46.5825327,69.3896554 48.6617464,51.6147467 52.820174,36.8154657 Z" id="panel" fill="#FFFFFF"></path>
        <path d="M22.5234772,49.0840364 C20.4356329,62.0710127 20.0255475,82.0402119 27.4199054,105.552655 C32.3494773,121.227617 39.7380198,134.678159 49.5855327,145.90428 C46.6336801,129.478757 45.1577537,110.890728 45.1577537,90.1401916 C45.1577537,69.3896554 47.0192616,52.5963551 50.7422773,39.7602907 C47.4707605,41.5604225 43.1103002,43.4272295 37.6608964,45.3607118 C29.4867909,48.2609353 23.1634087,48.953247 22.5234772,49.0840364 Z" id="panel" fill="#FFFFFF"></path>
        <circle id="peephole" fill="#516DBF" cx="40" cy="55.5" r="1.5"></circle>
    </g>
</svg>