<?xml version="1.0" encoding="UTF-8"?>
<svg width="80px" height="200px" viewBox="0 0 80 200" version="1.1" xmlns="http://www.w3.org/2000/svg" xmlns:xlink="http://www.w3.org/1999/xlink">
    <!-- Generator: Sketch 58 (84663) - https://sketch.com -->
    <title>0603</title>
    <desc>Created with Sketch.</desc>
    <g id="0603" stroke="none" stroke-width="1" fill="none" fill-rule="evenodd">
        <rect id="base" fill="#888888" x="0" y="0" width="80" height="200"></rect>
        <path d="M80,0 L80,200 L0,200 L0,0 L80,0 Z M12.5,1 L12,1 L12.0000982,116.258715 C11.9999875,117.771804 11.999955,119.277552 12.000001,120.77351 L12,199 L12.5,199 L12.5001088,179.565369 C12.6092985,179.565416 12.7192613,179.529863 12.8113402,179.456588 C19.5884259,174.063505 28.6456549,171.361596 40.000291,171.361596 C51.3549235,171.361596 60.4119543,174.063503 67.188649,179.456579 C67.2810084,179.530082 67.3913625,179.565631 67.5008822,179.565368 L67.5,199 L68,199 L68,1 L67.5,1 L67.5,25.431 L67.398811,25.3511326 C60.4787774,20.0214025 51.3405141,17.3615963 40.000291,17.3615963 C28.604606,17.3615963 19.4322855,20.0474827 12.4998374,25.4295197 L12.5,1 Z" id="main" fill="#FFFFFF"></path>
        <path d="M39.3225201,18.3647882 L40.000291,18.3615963 C51.1240189,18.3615963 60.1290593,20.9208157 67.0001822,26.0488036 L67.0001822,34.307747 C60.2443551,29.0137939 51.2499885,26.3615963 40.000291,26.3615963 C28.8682948,26.3615963 19.9444947,28.9585866 13.2126224,34.1424519 L12.9993402,34.3085963 L12.9999518,26.04883 C19.7312092,21.0253812 28.51021,18.4670255 39.3225201,18.3647882 L40.000291,18.3615963 L39.3225201,18.3647882 Z" id="panel" fill="#FFFFFF"></path>
        <path d="M39.3225201,27.3647882 L40.000291,27.3615963 C51.1240189,27.3615963 60.1290593,29.9208157 67.0001822,35.0488036 L67.0001822,43.307747 C60.2443551,38.0137939 51.2499885,35.3615963 40.000291,35.3615963 C28.8682948,35.3615963 19.9444947,37.9585866 13.2126224,43.1424519 L12.9993402,43.3085963 L12.9999518,35.04883 C19.7312092,30.0253812 28.51021,27.4670255 39.3225201,27.3647882 L40.000291,27.3615963 L39.3225201,27.3647882 Z" id="panel" fill="#FFFFFF"></path>
        <path d="M39.3225201,36.3647882 L40.000291,36.3615963 C51.1240189,36.3615963 60.1290593,38.9208157 67.0001822,44.0488036 L67.0001822,52.307747 C60.2443551,47.0137939 51.2499885,44.3615963 40.000291,44.3615963 C28.8682948,44.3615963 19.9444947,46.9585866 13.2126224,52.1424519 L12.9993402,52.3085963 L12.9999518,44.04883 C19.7312092,39.0253812 28.51021,36.4670255 39.3225201,36.3647882 L40.000291,36.3615963 L39.3225201,36.3647882 Z" id="panel" fill="#FFFFFF"></path>
        <path d="M39.3225201,45.3647882 L40.000291,45.3615963 C51.1240189,45.3615963 60.1290593,47.9208157 67.0001822,53.0488036 L67.0001822,61.307747 C60.2443551,56.0137939 51.2499885,53.3615963 40.000291,53.3615963 C28.8682948,53.3615963 19.9444947,55.9585866 13.2126224,61.1424519 L12.9993402,61.3085963 L12.9999518,53.04883 C19.7312092,48.0253812 28.51021,45.4670255 39.3225201,45.3647882 L40.000291,45.3615963 L39.3225201,45.3647882 Z" id="panel" fill="#FFFFFF"></path>
        <path d="M39.3225201,54.3647882 L40.000291,54.3615963 C51.1240189,54.3615963 60.1290593,56.9208157 67.0001822,62.0488036 L67.0001822,70.307747 C60.2443551,65.0137939 51.2499885,62.3615963 40.000291,62.3615963 C28.8682948,62.3615963 19.9444947,64.9585866 13.2126224,70.1424519 L12.9993402,70.3085963 L12.9999518,62.04883 C19.7312092,57.0253812 28.51021,54.4670255 39.3225201,54.3647882 L40.000291,54.3615963 L39.3225201,54.3647882 Z" id="panel" fill="#FFFFFF"></path>
        <path d="M39.3225201,63.3647882 L40.000291,63.3615963 C51.1240189,63.3615963 60.1290593,65.9208157 67.0001822,71.0488036 L67.0001822,79.307747 C60.2443551,74.0137939 51.2499885,71.3615963 40.000291,71.3615963 C28.8682948,71.3615963 19.9444947,73.9585866 13.2126224,79.1424519 L12.9993402,79.3085963 L12.9999518,71.04883 C19.7312092,66.0253812 28.51021,63.4670255 39.3225201,63.3647882 L40.000291,63.3615963 L39.3225201,63.3647882 Z" id="panel" fill="#FFFFFF"></path>
        <path d="M39.3225201,72.3647882 L40.000291,72.3615963 C51.1240189,72.3615963 60.1290593,74.9208157 67.0001822,80.0488036 L67.0001822,88.307747 C60.2443551,83.0137939 51.2499885,80.3615963 40.000291,80.3615963 C28.8682948,80.3615963 19.9444947,82.9585866 13.2126224,88.1424519 L12.9993402,88.3085963 L12.9999518,80.04883 C19.7312092,75.0253812 28.51021,72.4670255 39.3225201,72.3647882 L40.000291,72.3615963 L39.3225201,72.3647882 Z" id="panel" fill="#FFFFFF"></path>
        <path d="M39.3225201,81.3647882 L40.000291,81.3615963 C51.1240189,81.3615963 60.1290593,83.9208157 67.0001822,89.0488036 L67.0001822,97.307747 C60.2443551,92.0137939 51.2499885,89.3615963 40.000291,89.3615963 C28.8682948,89.3615963 19.9444947,91.9585866 13.2126224,97.1424519 L12.9993402,97.3085963 L12.9999518,89.04883 C19.7312092,84.0253812 28.51021,81.4670255 39.3225201,81.3647882 L40.000291,81.3615963 L39.3225201,81.3647882 Z" id="panel" fill="#FFFFFF"></path>
        <path d="M39.3225201,90.3647882 L40.000291,90.3615963 C51.1240189,90.3615963 60.1290593,92.9208157 67.0001822,98.0488036 L67.0001822,106.307747 C60.2443551,101.013794 51.2499885,98.3615963 40.000291,98.3615963 C28.8682948,98.3615963 19.9444947,100.958587 13.2126224,106.142452 L12.9993402,106.308596 L12.9999518,98.04883 C19.7312092,93.0253812 28.51021,90.4670255 39.3225201,90.3647882 L40.000291,90.3615963 L39.3225201,90.3647882 Z" id="panel" fill="#FFFFFF"></path>
        <path d="M39.3225201,99.3647882 L40.000291,99.3615963 C51.1240189,99.3615963 60.1290593,101.920816 67.0001822,107.048804 L67.0001822,115.307747 C60.2443551,110.013794 51.2499885,107.361596 40.000291,107.361596 C28.8682948,107.361596 19.9444947,109.958587 13.2126224,115.142452 L12.9993402,115.308596 L12.9999518,107.04883 C19.7312092,102.025381 28.51021,99.4670255 39.3225201,99.3647882 L40.000291,99.3615963 L39.3225201,99.3647882 Z" id="panel" fill="#FFFFFF"></path>
        <path d="M39.3225201,108.364788 L40.000291,108.361596 C51.1240189,108.361596 60.1290593,110.920816 67.0001822,116.048804 L67.0001822,124.307747 C60.2443551,119.013794 51.2499885,116.361596 40.000291,116.361596 C28.8682948,116.361596 19.9444947,118.958587 13.2126224,124.142452 L12.9993402,124.308596 L12.9999518,116.04883 C19.7312092,111.025381 28.51021,108.467026 39.3225201,108.364788 L40.000291,108.361596 L39.3225201,108.364788 Z" id="panel" fill="#FFFFFF"></path>
        <path d="M39.3225201,117.364788 L40.000291,117.361596 C51.1240189,117.361596 60.1290593,119.920816 67.0001822,125.048804 L67.0001822,133.307747 C60.2443551,128.013794 51.2499885,125.361596 40.000291,125.361596 C28.8682948,125.361596 19.9444947,127.958587 13.2126224,133.142452 L12.9993402,133.308596 L12.9999518,125.04883 C19.7312092,120.025381 28.51021,117.467026 39.3225201,117.364788 L40.000291,117.361596 L39.3225201,117.364788 Z" id="panel" fill="#FFFFFF"></path>
        <path d="M39.3225201,126.364788 L40.000291,126.361596 C51.1240189,126.361596 60.1290593,128.920816 67.0001822,134.048804 L67.0001822,142.307747 C60.2443551,137.013794 51.2499885,134.361596 40.000291,134.361596 C28.8682948,134.361596 19.9444947,136.958587 13.2126224,142.142452 L12.9993402,142.308596 L12.9999518,134.04883 C19.7312092,129.025381 28.51021,126.467026 39.3225201,126.364788 L40.000291,126.361596 L39.3225201,126.364788 Z" id="panel" fill="#FFFFFF"></path>
        <path d="M39.3225201,135.364788 L40.000291,135.361596 C51.1240189,135.361596 60.1290593,137.920816 67.0001822,143.048804 L67.0001822,151.307747 C60.2443551,146.013794 51.2499885,143.361596 40.000291,143.361596 C28.8682948,143.361596 19.9444947,145.958587 13.2126224,151.142452 L12.9993402,151.308596 L12.9999518,143.04883 C19.7312092,138.025381 28.51021,135.467026 39.3225201,135.364788 L40.000291,135.361596 L39.3225201,135.364788 Z" id="panel" fill="#FFFFFF"></path>
        <path d="M39.3225201,144.364788 L40.000291,144.361596 C51.1240189,144.361596 60.1290593,146.920816 67.0001822,152.048804 L67.0001822,160.307747 C60.2443551,155.013794 51.2499885,152.361596 40.000291,152.361596 C28.8682948,152.361596 19.9444947,154.958587 13.2126224,160.142452 L12.9993402,160.308596 L12.9999518,152.04883 C19.7312092,147.025381 28.51021,144.467026 39.3225201,144.364788 L40.000291,144.361596 L39.3225201,144.364788 Z" id="panel" fill="#FFFFFF"></path>
        <path d="M39.3225201,153.364788 L40.000291,153.361596 C51.1240189,153.361596 60.1290593,155.920816 67.0001822,161.048804 L67.0001822,169.307747 C60.2443551,164.013794 51.2499885,161.361596 40.000291,161.361596 C28.8682948,161.361596 19.9444947,163.958587 13.2126224,169.142452 L12.9993402,169.308596 L12.9999518,161.04883 C19.7312092,156.025381 28.51021,153.467026 39.3225201,153.364788 L40.000291,153.361596 L39.3225201,153.364788 Z" id="panel" fill="#FFFFFF"></path>
        <path d="M39.3225201,162.364788 L40.000291,162.361596 C51.1240189,162.361596 60.1290593,164.920816 67.0001822,170.048804 L67.0001822,178.307747 C60.2443551,173.013794 51.2499885,170.361596 40.000291,170.361596 C28.8682948,170.361596 19.9444947,172.958587 13.2126224,178.142452 L12.9993402,178.308596 L12.9999518,170.04883 C19.7312092,165.025381 28.51021,162.467026 39.3225201,162.364788 L40.000291,162.361596 L39.3225201,162.364788 Z" id="panel" fill="#FFFFFF"></path>
        <circle id="peephole" fill="#516DBF" cx="40" cy="58.5" r="1.5"></circle>
    </g>
</svg>