<?xml version="1.0" encoding="UTF-8"?>
<svg width="80px" height="200px" viewBox="0 0 80 200" version="1.1" xmlns="http://www.w3.org/2000/svg" xmlns:xlink="http://www.w3.org/1999/xlink">
    <!-- Generator: Sketch 58 (84663) - https://sketch.com -->
    <title>0604</title>
    <desc>Created with Sketch.</desc>
    <g id="0604" stroke="none" stroke-width="1" fill="none" fill-rule="evenodd">
        <rect id="base" fill="#888888" x="0" y="0" width="80" height="200"></rect>
        <path d="M80,0 L80,200 L0,200 L0,0 L80,0 Z M27.5,20 L12.5,20 C12.2545401,20 12.0503916,20.1768752 12.0080557,20.4101244 L12,20.5 L12,179.5 C12,179.74546 12.1768752,179.949608 12.4101244,179.991944 L12.5,180 L27.5,180 C27.7454599,180 27.9496084,179.823125 27.9919443,179.589876 L28,179.5 L28,20.5 C28,20.2238576 27.7761424,20 27.5,20 Z M71.5,20 L56.5,20 C56.2545401,20 56.0503916,20.1768752 56.0080557,20.4101244 L56,20.5 L56,179.5 C56,179.74546 56.1768752,179.949608 56.4101244,179.991944 L56.5,180 L71.5,180 C71.7454599,180 71.9496084,179.823125 71.9919443,179.589876 L72,179.5 L72,20.5 C72,20.2238576 71.7761424,20 71.5,20 Z M48.1939407,20 L33.9754235,20 L33.8855479,20.007988 C33.6522987,20.0499684 33.4754235,20.252402 33.4754235,20.4958001 C33.4754235,20.769623 33.6992812,20.9916002 33.9754235,20.9916002 L33.9754235,20.9916002 L47.6939407,20.9916002 L47.6939407,31.899203 L42,31.899203 L42,27.3730101 L41.9919443,27.2838894 C41.9496084,27.0525994 41.7454599,26.87721 41.5,26.87721 L41.5,26.87721 L33.9754235,26.87721 L33.8855479,26.885198 C33.6522987,26.9271783 33.4754235,27.129612 33.4754235,27.3730101 L33.4754235,27.3730101 L33.4754235,38.1462845 C33.4754235,38.4201074 33.6992812,38.6420846 33.9754235,38.6420846 L33.9754235,38.6420846 L47.6939407,38.6420846 L47.6939407,49.5496873 L42,49.5496873 L42,45.0234945 L41.9919443,44.9343738 C41.9496084,44.7030838 41.7454599,44.5276943 41.5,44.5276943 L41.5,44.5276943 L33.9754235,44.5276943 L33.8855479,44.5356823 C33.6522987,44.5776627 33.4754235,44.7800964 33.4754235,45.0234945 L33.4754235,45.0234945 L33.4754235,55.7524891 L33.4807251,55.8234693 C33.4772323,55.8471212 33.4754235,55.8713156 33.4754235,55.8959289 C33.4754235,56.1697518 33.6992812,56.391729 33.9754235,56.391729 L33.9754235,56.391729 L47.6939407,56.391729 L47.6939407,67.2993318 L42,67.2993318 L42,62.7731389 L41.9919443,62.6840182 C41.9496084,62.4527282 41.7454599,62.2773387 41.5,62.2773387 L41.5,62.2773387 L33.9754235,62.2773387 L33.8855479,62.2853268 C33.6522987,62.3273071 33.4754235,62.5297408 33.4754235,62.7731389 L33.4754235,62.7731389 L33.4754235,73.5464133 C33.4754235,73.8202362 33.6992812,74.0422134 33.9754235,74.0422134 L33.9754235,74.0422134 L47.6939407,74.0422134 L47.6939407,84.9498161 L42,84.9498161 L42,80.4236233 L41.9919443,80.3345026 C41.9496084,80.1032126 41.7454599,79.9278231 41.5,79.9278231 L41.5,79.9278231 L33.9754235,79.9278231 L33.8855479,79.9358111 C33.6522987,79.9777915 33.4754235,80.1802252 33.4754235,80.4236233 L33.4754235,80.4236233 L33.4754235,91.1968977 C33.4754235,91.4707205 33.6992812,91.6926978 33.9754235,91.6926978 L33.9754235,91.6926978 L47.6939407,91.6926978 L47.6939407,102.600301 L42,102.600301 L42,98.0741076 L41.9919443,97.9849869 C41.9496084,97.753697 41.7454599,97.5783075 41.5,97.5783075 L41.5,97.5783075 L33.9754235,97.5783075 L33.8855479,97.5862955 C33.6522987,97.6282759 33.4754235,97.8307096 33.4754235,98.0741076 L33.4754235,98.0741076 L33.4754235,108.847382 C33.4754235,109.121205 33.6992812,109.343182 33.9754235,109.343182 L33.9754235,109.343182 L47.6939407,109.343182 L47.6939407,120.250785 L42,120.250785 L42,115.724592 L41.9919443,115.635471 C41.9496084,115.404181 41.7454599,115.228792 41.5,115.228792 L41.5,115.228792 L33.9754235,115.228792 L33.8855479,115.23678 C33.6522987,115.27876 33.4754235,115.481194 33.4754235,115.724592 L33.4754235,115.724592 L33.4754235,126.453587 L33.4806093,126.525355 C33.4771923,126.548757 33.4754235,126.572687 33.4754235,126.597026 C33.4754235,126.870849 33.6992812,127.092827 33.9754235,127.092827 L33.9754235,127.092827 L47.6939407,127.092827 L47.6939407,138.000429 L42,138.000429 L42,133.474236 L41.9919443,133.385116 C41.9496084,133.153826 41.7454599,132.978436 41.5,132.978436 L41.5,132.978436 L33.9754235,132.978436 L33.8855479,132.986424 C33.6522987,133.028405 33.4754235,133.230838 33.4754235,133.474236 L33.4754235,133.474236 L33.4754235,144.247511 C33.4754235,144.521334 33.6992812,144.743311 33.9754235,144.743311 L33.9754235,144.743311 L47.6939407,144.743311 L47.6939407,155.650914 L42,155.650914 L42,151.124721 L41.9919443,151.0356 C41.9496084,150.80431 41.7454599,150.628921 41.5,150.628921 L41.5,150.628921 L33.9754235,150.628921 L33.8855479,150.636909 C33.6522987,150.678889 33.4754235,150.881323 33.4754235,151.124721 L33.4754235,151.124721 L33.4754235,161.853715 L33.4834792,161.987116 C33.5258152,162.218406 33.7299636,162.393795 33.9754235,162.393795 L33.9754235,162.393795 L47.6939407,162.393795 L47.6939407,173.301398 L42,173.301398 L42,168.775205 L41.9919443,168.686085 C41.9496084,168.454795 41.7454599,168.279405 41.5,168.279405 L41.5,168.279405 L33.9754235,168.279405 L33.8855479,168.287393 C33.6522987,168.329373 33.4754235,168.531807 33.4754235,168.775205 L33.4754235,168.775205 L33.4754235,179.5042 L33.4834792,179.593321 C33.5258152,179.824611 33.7299636,180 33.9754235,180 L33.9754235,180 L48.1939407,180 L48.2838164,179.992012 C48.5170656,179.950032 48.6939407,179.747598 48.6939407,179.5042 C48.6939407,179.230377 48.4700831,179.0084 48.1939407,179.0084 L48.1939407,179.0084 L34.4754235,179.0084 L34.4754235,169.271005 L41,169.271005 L41,173.797198 L41.0080557,173.886319 C41.0503916,174.117609 41.2545401,174.292998 41.5,174.292998 L41.5,174.292998 L48.1939407,174.292998 L48.2838164,174.28501 C48.5170656,174.24303 48.6939407,174.040596 48.6939407,173.797198 L48.6939407,173.797198 L48.6939407,161.897995 L48.685885,161.808875 C48.6435491,161.577585 48.4394006,161.402195 48.1939407,161.402195 L48.1939407,161.402195 L34.4754235,161.402195 L34.4754235,151.620521 L41,151.620521 L41,156.146714 L41.0080557,156.235835 C41.0503916,156.467125 41.2545401,156.642514 41.5,156.642514 L41.5,156.642514 L48.1939407,156.642514 L48.2838164,156.634526 C48.5170656,156.592546 48.6939407,156.390112 48.6939407,156.146714 L48.6939407,156.146714 L48.6939407,144.247511 L48.685885,144.15839 C48.6435491,143.9271 48.4394006,143.751711 48.1939407,143.751711 L48.1939407,143.751711 L34.4754235,143.750719 L34.4754235,133.970037 L41,133.970037 L41,138.496229 L41.0080557,138.58535 C41.0503916,138.81664 41.2545401,138.99203 41.5,138.99203 L41.5,138.99203 L48.1939407,138.99203 L48.2838164,138.984042 C48.5170656,138.942061 48.6939407,138.739628 48.6939407,138.496229 L48.6939407,138.496229 L48.6939407,126.597026 L48.685885,126.507906 C48.6435491,126.276616 48.4394006,126.101226 48.1939407,126.101226 L48.1939407,126.101226 L34.4754235,126.101226 L34.4754235,116.220392 L41,116.220392 L41,120.746585 L41.0080557,120.835706 C41.0503916,121.066996 41.2545401,121.242385 41.5,121.242385 L41.5,121.242385 L48.1939407,121.242385 L48.2838164,121.234397 C48.5170656,121.192417 48.6939407,120.989983 48.6939407,120.746585 L48.6939407,120.746585 L48.6939407,108.847382 L48.685885,108.758261 C48.6435491,108.526971 48.4394006,108.351582 48.1939407,108.351582 L48.1939407,108.351582 L34.4754235,108.351582 L34.4754235,98.5699078 L41,98.5699078 L41,103.096101 L41.0080557,103.185221 C41.0503916,103.416511 41.2545401,103.591901 41.5,103.591901 L41.5,103.591901 L48.1939407,103.591901 L48.2838164,103.583913 C48.5170656,103.541932 48.6939407,103.339499 48.6939407,103.096101 L48.6939407,103.096101 L48.6939407,91.1968977 L48.685885,91.107777 C48.6435491,90.876487 48.4394006,90.7010976 48.1939407,90.7010976 L48.1939407,90.7010976 L34.4754235,90.700106 L34.4754235,80.9194234 L41,80.9194234 L41,85.4456163 L41.0080557,85.534737 C41.0503916,85.7660269 41.2545401,85.9414164 41.5,85.9414164 L41.5,85.9414164 L48.1939407,85.9414164 L48.2838164,85.9334284 C48.5170656,85.891448 48.6939407,85.6890143 48.6939407,85.4456163 L48.6939407,85.4456163 L48.6939407,73.5464133 L48.685885,73.4572926 C48.6435491,73.2260026 48.4394006,73.0506132 48.1939407,73.0506132 L48.1939407,73.0506132 L34.4754235,73.0506132 L34.4754235,63.268939 L41,63.268939 L41,67.7951319 L41.0080557,67.8842526 C41.0503916,68.1155425 41.2545401,68.290932 41.5,68.290932 L41.5,68.290932 L48.1939407,68.290932 L48.2838164,68.282944 C48.5170656,68.2409636 48.6939407,68.03853 48.6939407,67.7951319 L48.6939407,67.7951319 L48.6939407,55.8959289 L48.685885,55.8068082 C48.6435491,55.5755182 48.4394006,55.4001288 48.1939407,55.4001288 L48.1939407,55.4001288 L34.4754235,55.3991372 L34.4754235,45.5192946 L41,45.5192946 L41,50.0454875 L41.0080557,50.1346082 C41.0503916,50.3658981 41.2545401,50.5412876 41.5,50.5412876 L41.5,50.5412876 L48.1939407,50.5412876 L48.2838164,50.5332996 C48.5170656,50.4913192 48.6939407,50.2888856 48.6939407,50.0454875 L48.6939407,50.0454875 L48.6939407,38.1462845 L48.685885,38.0571638 C48.6435491,37.8258738 48.4394006,37.6504844 48.1939407,37.6504844 L48.1939407,37.6504844 L34.4754235,37.6504844 L34.4754235,27.8688102 L41,27.8688102 L41,32.3950031 L41.0080557,32.4841238 C41.0503916,32.7154138 41.2545401,32.8908032 41.5,32.8908032 L41.5,32.8908032 L48.1939407,32.8908032 L48.2838164,32.8828152 C48.5170656,32.8408349 48.6939407,32.6384012 48.6939407,32.3950031 L48.6939407,32.3950031 L48.6939407,20.4958001 L48.685885,20.4066794 C48.6435491,20.1753895 48.4394006,20 48.1939407,20 L48.1939407,20 Z" id="main" fill="#FFFFFF"></path>
        <path d="M13.4375,21 L26.5625,21 C26.8041246,21 27,21.2210594 27,21.49375 L27,178.50625 C27,178.778941 26.8041246,179 26.5625,179 L13.4375,179 C13.1958754,179 13,178.778941 13,178.50625 L13,21.49375 C13,21.2210594 13.1958754,21 13.4375,21 Z" id="panel" fill="#FFFFFF"></path>
        <path d="M57.4375,21 L70.5625,21 C70.8041246,21 71,21.2210594 71,21.49375 L71,178.50625 C71,178.778941 70.8041246,179 70.5625,179 L57.4375,179 C57.1958754,179 57,178.778941 57,178.50625 L57,21.49375 C57,21.2210594 57.1958754,21 57.4375,21 Z" id="panel" fill="#FFFFFF"></path>
        <circle id="peephole" fill="#516DBF" cx="40" cy="52.5" r="1.5"></circle>
    </g>
</svg>