<?xml version="1.0" encoding="UTF-8"?>
<svg width="80px" height="200px" viewBox="0 0 80 200" version="1.1" xmlns="http://www.w3.org/2000/svg" xmlns:xlink="http://www.w3.org/1999/xlink">
    <!-- Generator: Sketch 58 (84663) - https://sketch.com -->
    <title>0605</title>
    <desc>Created with Sketch.</desc>
    <g id="0605" stroke="none" stroke-width="1" fill="none" fill-rule="evenodd">
        <rect id="base" fill="#888888" x="0" y="0" width="80" height="200"></rect>
        <path d="M80,0 L80,200 L0,200 L0,0 L80,0 Z M47.8999901,125 L24.7419354,149.366211 C27.2160886,153.786265 30.7480296,158.926758 35.3377585,164.78769 C39.5856024,170.212047 42.7343462,173.755164 44.7839898,175.41704 L44.9522492,175.551175 L45.2575234,175.781746 L66.6130768,175.781746 C64.0121833,172.516817 60.7073922,166.271444 56.6987035,157.045628 L56.4362693,156.439719 L55.9165541,155.228666 C51.5537001,145.001515 48.8815121,134.925293 47.8999901,125 Z M12.8166526,140.3 L12.8166526,175.606765 L34.7433657,175.606765 C32.6883693,173.723063 29.144048,169.263051 24.1104019,162.226728 L23.7800091,161.764185 L23.246669,161.009157 C18.3205926,153.967197 14.8439204,147.064145 12.8166526,140.3 Z M66.4756459,106.319997 L53.7487817,119.154136 C54.0145153,121.465516 55.1964196,126.863655 57.2944947,135.348553 L57.4268174,135.882878 L57.9962493,138.15953 C60.3368506,147.323873 63.0860535,154.015061 66.2438578,158.233093 L66.4756459,158.537316 L66.4756459,106.319997 Z M22.3213249,55.4032922 C15.5284852,66.8010974 12.1320654,81 12.1320654,98 C12.1320654,115 15.5284852,130.045696 22.3213249,143.137089 L46.3782609,117.237245 C45.7105399,109.323875 45.3766794,103.334857 45.3766794,99.2701907 C45.3766794,95.2055248 45.7105399,89.1154613 46.3782609,81 L22.3213249,55.4032922 Z M52.6974884,87.1399965 C52.2421412,92.315857 52.0144676,96.1991443 52.0144676,98.7898584 C52.0144676,101.380572 52.2421412,105.26386 52.6974884,110.43972 L63.6373018,99.2916456 L52.6974884,87.1399965 Z M66.4756459,40.3199967 C63.220404,44.5173235 60.3939385,51.309919 57.9962493,60.6977832 L57.4268174,62.9744347 C55.2460633,71.7673951 54.0200514,77.3436426 53.7487817,79.7031771 L66.4756459,92.5373161 L66.4756459,40.3199967 Z M66.6130768,23.322674 L45.2575234,23.322674 L44.9522492,23.5532455 C42.9084283,25.153868 39.7035981,28.741696 35.3377585,34.3167296 C30.7480296,40.1776624 27.2160886,45.3181555 24.7419354,49.7382088 L47.8999901,74.10442 C48.8815121,64.1791274 51.5537001,54.1029054 55.9165541,43.8757539 L56.4362693,42.6647012 C60.5633729,33.1059222 63.9556421,26.6585798 66.6130768,23.322674 Z M34.7433657,23.7076221 L12.8166526,23.7076221 L12.8166526,59.0143872 C14.8439204,52.2502423 18.3205926,45.3471898 23.246669,38.3052299 L23.7800091,37.5502026 C28.9892433,30.2464678 32.6436954,25.6322743 34.7433657,23.7076221 Z" id="main" fill="#FFFFFF"></path>
        <path d="M13.8166526,24.7076221 L13.8166526,53.1689672 C16.0008451,47.9741384 17.6878524,44.8515568 21.8290278,38.5292213 C25.9702033,32.2068857 30.4157121,27.0168282 32.4672142,24.7076221 L13.8166526,24.7076221 Z" id="panel" fill="#FFFFFF"></path>
        <path d="M64.6522919,24.322674 L45.477774,24.322674 C42.0898632,27.7242023 38.940628,31.2833109 36.0300683,35 C31.4403395,40.8609328 28.4443565,45.1711806 25.9702033,49.591234 L47.1361684,71.8504608 C48.3193151,61.9819827 50.806605,53.853422 54.2651236,45.3950835 C57.7236422,36.936745 61.5102098,28.9544386 64.6522919,24.322674 Z" id="panel" fill="#FFFFFF"></path>
        <path d="M65.44331,43.7501892 C62.9283581,47.7229129 61.0963412,52.7609073 58.8784619,61.4639727 C56.6605826,70.1670382 55.106059,76.9833543 54.8347894,79.3428888 L65.44331,90.1401916 L65.44331,43.7501892 Z" id="panel" fill="#FFFFFF"></path>
        <path d="M14,146.153707 L14,174.615052 C16.1841926,169.420223 17.8711998,166.297641 22.0123752,159.975306 C26.1535507,153.65297 30.5990596,148.462913 32.6505616,146.153707 L14,146.153707 Z" id="panel" fill="#FFFFFF" transform="translate(23.325281, 160.384379) scale(1, -1) translate(-23.325281, -160.384379) "></path>
        <path d="M64.8356393,127.072213 L45.6611214,127.072213 C42.2732107,130.473741 39.1239754,134.03285 36.2134157,137.749539 C31.6236869,143.610472 28.6277039,148.32072 26.1535507,152.740773 L47.3195159,175 C48.5026625,165.131522 50.9899524,156.602961 54.448471,148.144623 C57.9069897,139.686284 61.6935572,131.703978 64.8356393,127.072213 Z" id="panel" fill="#FFFFFF" transform="translate(45.494595, 151.036107) scale(1, -1) translate(-45.494595, -151.036107) "></path>
        <path d="M65.6266574,108.782482 C63.1117055,112.755206 61.2796886,117.7932 59.0618093,126.496266 C56.84393,135.199331 55.2894065,142.415647 55.0181368,144.775182 L65.6266574,155.572485 L65.6266574,108.782482 Z" id="panel" fill="#FFFFFF" transform="translate(60.322397, 132.177483) scale(1, -1) translate(-60.322397, -132.177483) "></path>
        <path d="M22.5678786,141.429195 L45.3766794,116.865299 C44.6979718,109.199893 44.358618,103.334857 44.358618,99.2701907 C44.358618,95.2055248 44.6979718,89.2603203 45.3766794,81.4345771 L22.5678786,57.09208 C16.3109753,67.9086517 13.1825237,81.540413 13.1825237,97.9873639 C13.1825237,114.434315 16.3109753,128.914925 22.5678786,141.429195 Z" id="panel" fill="#FFFFFF"></path>
        <path d="M53.5032604,89.4461731 C53.2047229,93.0845825 53.0554542,96.1991443 53.0554542,98.7898584 C53.0554542,101.380572 53.2047229,104.548925 53.5032604,108.294915 L62.2756248,99.2701907 L53.5032604,89.4461731 Z" id="panel" fill="#FFFFFF"></path>
        <circle id="peephole" fill="#516DBF" cx="40" cy="55.5" r="1.5"></circle>
    </g>
</svg>