<?xml version="1.0" encoding="UTF-8"?>
<svg width="80px" height="200px" viewBox="0 0 80 200" version="1.1" xmlns="http://www.w3.org/2000/svg" xmlns:xlink="http://www.w3.org/1999/xlink">
    <!-- Generator: Sketch 58 (84663) - https://sketch.com -->
    <title>0701</title>
    <desc>Created with Sketch.</desc>
    <g id="0701" stroke="none" stroke-width="1" fill="none" fill-rule="evenodd">
        <rect id="base" fill="#888888" x="0" y="0" width="80" height="200"></rect>
        <path d="M80,0 L80,200 L0,200 L0,0 L80,0 Z M67.5,167 L59.5,167 C59.2545401,167 59.0503916,167.176875 59.0080557,167.410124 L59,167.5 L59,175.5 C59,175.74546 59.1768752,175.949608 59.4101244,175.991944 L59.5,176 L67.5,176 C67.7454599,176 67.9496084,175.823125 67.9919443,175.589876 L68,175.5 L68,167.5 C68,167.223858 67.7761424,167 67.5,167 Z M20.5,167 L12.5,167 C12.2545401,167 12.0503916,167.176875 12.0080557,167.410124 L12,167.5 L12,175.5 C12,175.74546 12.1768752,175.949608 12.4101244,175.991944 L12.5,176 L20.5,176 C20.7454599,176 20.9496084,175.823125 20.9919443,175.589876 L21,175.5 L21,167.5 C21,167.223858 20.7761424,167 20.5,167 Z M55.5,175 L24.5,175 C24.2238576,175 24,175.223858 24,175.5 C24,175.74546 24.1768752,175.949608 24.4101244,175.991944 L24.5,176 L55.5,176 C55.7761424,176 56,175.776142 56,175.5 C56,175.223858 55.7761424,175 55.5,175 Z M55.5,173 L24.5,173 C24.2238576,173 24,173.223858 24,173.5 C24,173.74546 24.1768752,173.949608 24.4101244,173.991944 L24.5,174 L55.5,174 C55.7761424,174 56,173.776142 56,173.5 C56,173.223858 55.7761424,173 55.5,173 Z M55.5,171 L24.5,171 C24.2238576,171 24,171.223858 24,171.5 C24,171.74546 24.1768752,171.949608 24.4101244,171.991944 L24.5,172 L55.5,172 C55.7761424,172 56,171.776142 56,171.5 C56,171.223858 55.7761424,171 55.5,171 Z M55.5,169 L24.5,169 C24.2238576,169 24,169.223858 24,169.5 C24,169.74546 24.1768752,169.949608 24.4101244,169.991944 L24.5,170 L55.5,170 C55.7761424,170 56,169.776142 56,169.5 C56,169.223858 55.7761424,169 55.5,169 Z M55.5,167 L24.5,167 C24.2238576,167 24,167.223858 24,167.5 C24,167.74546 24.1768752,167.949608 24.4101244,167.991944 L24.5,168 L55.5,168 C55.7761424,168 56,167.776142 56,167.5 C56,167.223858 55.7761424,167 55.5,167 Z M55.5,131 L24.5,131 C24.2545401,131 24.0503916,131.176875 24.0080557,131.410124 L24,131.5 L24,163.5 C24,163.74546 24.1768752,163.949608 24.4101244,163.991944 L24.5,164 L55.5,164 C55.7454599,164 55.9496084,163.823125 55.9919443,163.589876 L56,163.5 L56,131.5 C56,131.223858 55.7761424,131 55.5,131 Z M12.5,131 C12.2545401,131 12.0503916,131.176875 12.0080557,131.410124 L12,131.5 L12,163.5 C12,163.776142 12.2238576,164 12.5,164 C12.7454599,164 12.9496084,163.823125 12.9919443,163.589876 L13,163.5 L13,131.5 C13,131.223858 12.7761424,131 12.5,131 Z M14.5,131 C14.2545401,131 14.0503916,131.176875 14.0080557,131.410124 L14,131.5 L14,163.5 C14,163.776142 14.2238576,164 14.5,164 C14.7454599,164 14.9496084,163.823125 14.9919443,163.589876 L15,163.5 L15,131.5 C15,131.223858 14.7761424,131 14.5,131 Z M16.5,131 C16.2545401,131 16.0503916,131.176875 16.0080557,131.410124 L16,131.5 L16,163.5 C16,163.776142 16.2238576,164 16.5,164 C16.7454599,164 16.9496084,163.823125 16.9919443,163.589876 L17,163.5 L17,131.5 C17,131.223858 16.7761424,131 16.5,131 Z M18.5,131 C18.2545401,131 18.0503916,131.176875 18.0080557,131.410124 L18,131.5 L18,163.5 C18,163.776142 18.2238576,164 18.5,164 C18.7454599,164 18.9496084,163.823125 18.9919443,163.589876 L19,163.5 L19,131.5 C19,131.223858 18.7761424,131 18.5,131 Z M20.5,131 C20.2545401,131 20.0503916,131.176875 20.0080557,131.410124 L20,131.5 L20,163.5 C20,163.776142 20.2238576,164 20.5,164 C20.7454599,164 20.9496084,163.823125 20.9919443,163.589876 L21,163.5 L21,131.5 C21,131.223858 20.7761424,131 20.5,131 Z M59.5,131 C59.2545401,131 59.0503916,131.176875 59.0080557,131.410124 L59,131.5 L59,163.5 C59,163.776142 59.2238576,164 59.5,164 C59.7454599,164 59.9496084,163.823125 59.9919443,163.589876 L60,163.5 L60,131.5 C60,131.223858 59.7761424,131 59.5,131 Z M61.5,131 C61.2545401,131 61.0503916,131.176875 61.0080557,131.410124 L61,131.5 L61,163.5 C61,163.776142 61.2238576,164 61.5,164 C61.7454599,164 61.9496084,163.823125 61.9919443,163.589876 L62,163.5 L62,131.5 C62,131.223858 61.7761424,131 61.5,131 Z M63.5,131 C63.2545401,131 63.0503916,131.176875 63.0080557,131.410124 L63,131.5 L63,163.5 C63,163.776142 63.2238576,164 63.5,164 C63.7454599,164 63.9496084,163.823125 63.9919443,163.589876 L64,163.5 L64,131.5 C64,131.223858 63.7761424,131 63.5,131 Z M65.5,131 C65.2545401,131 65.0503916,131.176875 65.0080557,131.410124 L65,131.5 L65,163.5 C65,163.776142 65.2238576,164 65.5,164 C65.7454599,164 65.9496084,163.823125 65.9919443,163.589876 L66,163.5 L66,131.5 C66,131.223858 65.7761424,131 65.5,131 Z M67.5,131 C67.2545401,131 67.0503916,131.176875 67.0080557,131.410124 L67,131.5 L67,163.5 C67,163.776142 67.2238576,164 67.5,164 C67.7454599,164 67.9496084,163.823125 67.9919443,163.589876 L68,163.5 L68,131.5 C68,131.223858 67.7761424,131 67.5,131 Z M20.5,119 L12.5,119 C12.2545401,119 12.0503916,119.176875 12.0080557,119.410124 L12,119.5 L12,127.5 C12,127.74546 12.1768752,127.949608 12.4101244,127.991944 L12.5,128 L20.5,128 C20.7454599,128 20.9496084,127.823125 20.9919443,127.589876 L21,127.5 L21,119.5 C21,119.223858 20.7761424,119 20.5,119 Z M67.5,119 L59.5,119 C59.2545401,119 59.0503916,119.176875 59.0080557,119.410124 L59,119.5 L59,127.5 C59,127.74546 59.1768752,127.949608 59.4101244,127.991944 L59.5,128 L67.5,128 C67.7454599,128 67.9496084,127.823125 67.9919443,127.589876 L68,127.5 L68,119.5 C68,119.223858 67.7761424,119 67.5,119 Z M55.5,127 L24.5,127 C24.2238576,127 24,127.223858 24,127.5 C24,127.74546 24.1768752,127.949608 24.4101244,127.991944 L24.5,128 L55.5,128 C55.7761424,128 56,127.776142 56,127.5 C56,127.223858 55.7761424,127 55.5,127 Z M55.5,125 L24.5,125 C24.2238576,125 24,125.223858 24,125.5 C24,125.74546 24.1768752,125.949608 24.4101244,125.991944 L24.5,126 L55.5,126 C55.7761424,126 56,125.776142 56,125.5 C56,125.223858 55.7761424,125 55.5,125 Z M55.5,123 L24.5,123 C24.2238576,123 24,123.223858 24,123.5 C24,123.74546 24.1768752,123.949608 24.4101244,123.991944 L24.5,124 L55.5,124 C55.7761424,124 56,123.776142 56,123.5 C56,123.223858 55.7761424,123 55.5,123 Z M55.5,121 L24.5,121 C24.2238576,121 24,121.223858 24,121.5 C24,121.74546 24.1768752,121.949608 24.4101244,121.991944 L24.5,122 L55.5,122 C55.7761424,122 56,121.776142 56,121.5 C56,121.223858 55.7761424,121 55.5,121 Z M55.5,119 L24.5,119 C24.2238576,119 24,119.223858 24,119.5 C24,119.74546 24.1768752,119.949608 24.4101244,119.991944 L24.5,120 L55.5,120 C55.7761424,120 56,119.776142 56,119.5 C56,119.223858 55.7761424,119 55.5,119 Z M55.5,83 L24.5,83 C24.2545401,83 24.0503916,83.1768752 24.0080557,83.4101244 L24,83.5 L24,115.5 C24,115.74546 24.1768752,115.949608 24.4101244,115.991944 L24.5,116 L55.5,116 C55.7454599,116 55.9496084,115.823125 55.9919443,115.589876 L56,115.5 L56,83.5 C56,83.2238576 55.7761424,83 55.5,83 Z M12.5,83 C12.2545401,83 12.0503916,83.1768752 12.0080557,83.4101244 L12,83.5 L12,115.5 C12,115.776142 12.2238576,116 12.5,116 C12.7454599,116 12.9496084,115.823125 12.9919443,115.589876 L13,115.5 L13,83.5 C13,83.2238576 12.7761424,83 12.5,83 Z M14.5,83 C14.2545401,83 14.0503916,83.1768752 14.0080557,83.4101244 L14,83.5 L14,115.5 C14,115.776142 14.2238576,116 14.5,116 C14.7454599,116 14.9496084,115.823125 14.9919443,115.589876 L15,115.5 L15,83.5 C15,83.2238576 14.7761424,83 14.5,83 Z M16.5,83 C16.2545401,83 16.0503916,83.1768752 16.0080557,83.4101244 L16,83.5 L16,115.5 C16,115.776142 16.2238576,116 16.5,116 C16.7454599,116 16.9496084,115.823125 16.9919443,115.589876 L17,115.5 L17,83.5 C17,83.2238576 16.7761424,83 16.5,83 Z M18.5,83 C18.2545401,83 18.0503916,83.1768752 18.0080557,83.4101244 L18,83.5 L18,115.5 C18,115.776142 18.2238576,116 18.5,116 C18.7454599,116 18.9496084,115.823125 18.9919443,115.589876 L19,115.5 L19,83.5 C19,83.2238576 18.7761424,83 18.5,83 Z M20.5,83 C20.2545401,83 20.0503916,83.1768752 20.0080557,83.4101244 L20,83.5 L20,115.5 C20,115.776142 20.2238576,116 20.5,116 C20.7454599,116 20.9496084,115.823125 20.9919443,115.589876 L21,115.5 L21,83.5 C21,83.2238576 20.7761424,83 20.5,83 Z M59.5,83 C59.2545401,83 59.0503916,83.1768752 59.0080557,83.4101244 L59,83.5 L59,115.5 C59,115.776142 59.2238576,116 59.5,116 C59.7454599,116 59.9496084,115.823125 59.9919443,115.589876 L60,115.5 L60,83.5 C60,83.2238576 59.7761424,83 59.5,83 Z M61.5,83 C61.2545401,83 61.0503916,83.1768752 61.0080557,83.4101244 L61,83.5 L61,115.5 C61,115.776142 61.2238576,116 61.5,116 C61.7454599,116 61.9496084,115.823125 61.9919443,115.589876 L62,115.5 L62,83.5 C62,83.2238576 61.7761424,83 61.5,83 Z M63.5,83 C63.2545401,83 63.0503916,83.1768752 63.0080557,83.4101244 L63,83.5 L63,115.5 C63,115.776142 63.2238576,116 63.5,116 C63.7454599,116 63.9496084,115.823125 63.9919443,115.589876 L64,115.5 L64,83.5 C64,83.2238576 63.7761424,83 63.5,83 Z M65.5,83 C65.2545401,83 65.0503916,83.1768752 65.0080557,83.4101244 L65,83.5 L65,115.5 C65,115.776142 65.2238576,116 65.5,116 C65.7454599,116 65.9496084,115.823125 65.9919443,115.589876 L66,115.5 L66,83.5 C66,83.2238576 65.7761424,83 65.5,83 Z M67.5,83 C67.2545401,83 67.0503916,83.1768752 67.0080557,83.4101244 L67,83.5 L67,115.5 C67,115.776142 67.2238576,116 67.5,116 C67.7454599,116 67.9496084,115.823125 67.9919443,115.589876 L68,115.5 L68,83.5 C68,83.2238576 67.7761424,83 67.5,83 Z M20.5,71 L12.5,71 C12.2545401,71 12.0503916,71.1768752 12.0080557,71.4101244 L12,71.5 L12,79.5 C12,79.7454599 12.1768752,79.9496084 12.4101244,79.9919443 L12.5,80 L20.5,80 C20.7454599,80 20.9496084,79.8231248 20.9919443,79.5898756 L21,79.5 L21,71.5 C21,71.2238576 20.7761424,71 20.5,71 Z M55.5,79 L24.5,79 C24.2238576,79 24,79.2238576 24,79.5 C24,79.7454599 24.1768752,79.9496084 24.4101244,79.9919443 L24.5,80 L55.5,80 C55.7761424,80 56,79.7761424 56,79.5 C56,79.2238576 55.7761424,79 55.5,79 Z M67.5,71 L59.5,71 C59.2545401,71 59.0503916,71.1768752 59.0080557,71.4101244 L59,71.5 L59,79.5 C59,79.7454599 59.1768752,79.9496084 59.4101244,79.9919443 L59.5,80 L67.5,80 C67.7454599,80 67.9496084,79.8231248 67.9919443,79.5898756 L68,79.5 L68,71.5 C68,71.2238576 67.7761424,71 67.5,71 Z M55.5,77 L24.5,77 C24.2238576,77 24,77.2238576 24,77.5 C24,77.7454599 24.1768752,77.9496084 24.4101244,77.9919443 L24.5,78 L55.5,78 C55.7761424,78 56,77.7761424 56,77.5 C56,77.2238576 55.7761424,77 55.5,77 Z M55.5,75 L24.5,75 C24.2238576,75 24,75.2238576 24,75.5 C24,75.7454599 24.1768752,75.9496084 24.4101244,75.9919443 L24.5,76 L55.5,76 C55.7761424,76 56,75.7761424 56,75.5 C56,75.2238576 55.7761424,75 55.5,75 Z M55.5,73 L24.5,73 C24.2238576,73 24,73.2238576 24,73.5 C24,73.7454599 24.1768752,73.9496084 24.4101244,73.9919443 L24.5,74 L55.5,74 C55.7761424,74 56,73.7761424 56,73.5 C56,73.2238576 55.7761424,73 55.5,73 Z M55.5,71 L24.5,71 C24.2238576,71 24,71.2238576 24,71.5 C24,71.7454599 24.1768752,71.9496084 24.4101244,71.9919443 L24.5,72 L55.5,72 C55.7761424,72 56,71.7761424 56,71.5 C56,71.2238576 55.7761424,71 55.5,71 Z M55.5,35 L24.5,35 C24.2545401,35 24.0503916,35.1768752 24.0080557,35.4101244 L24,35.5 L24,67.5 C24,67.7454599 24.1768752,67.9496084 24.4101244,67.9919443 L24.5,68 L55.5,68 C55.7454599,68 55.9496084,67.8231248 55.9919443,67.5898756 L56,67.5 L56,35.5 C56,35.2238576 55.7761424,35 55.5,35 Z M12.5,35 C12.2545401,35 12.0503916,35.1768752 12.0080557,35.4101244 L12,35.5 L12,67.5 C12,67.7761424 12.2238576,68 12.5,68 C12.7454599,68 12.9496084,67.8231248 12.9919443,67.5898756 L13,67.5 L13,35.5 C13,35.2238576 12.7761424,35 12.5,35 Z M14.5,35 C14.2545401,35 14.0503916,35.1768752 14.0080557,35.4101244 L14,35.5 L14,67.5 C14,67.7761424 14.2238576,68 14.5,68 C14.7454599,68 14.9496084,67.8231248 14.9919443,67.5898756 L15,67.5 L15,35.5 C15,35.2238576 14.7761424,35 14.5,35 Z M16.5,35 C16.2545401,35 16.0503916,35.1768752 16.0080557,35.4101244 L16,35.5 L16,67.5 C16,67.7761424 16.2238576,68 16.5,68 C16.7454599,68 16.9496084,67.8231248 16.9919443,67.5898756 L17,67.5 L17,35.5 C17,35.2238576 16.7761424,35 16.5,35 Z M18.5,35 C18.2545401,35 18.0503916,35.1768752 18.0080557,35.4101244 L18,35.5 L18,67.5 C18,67.7761424 18.2238576,68 18.5,68 C18.7454599,68 18.9496084,67.8231248 18.9919443,67.5898756 L19,67.5 L19,35.5 C19,35.2238576 18.7761424,35 18.5,35 Z M20.5,35 C20.2545401,35 20.0503916,35.1768752 20.0080557,35.4101244 L20,35.5 L20,67.5 C20,67.7761424 20.2238576,68 20.5,68 C20.7454599,68 20.9496084,67.8231248 20.9919443,67.5898756 L21,67.5 L21,35.5 C21,35.2238576 20.7761424,35 20.5,35 Z M59.5,35 C59.2545401,35 59.0503916,35.1768752 59.0080557,35.4101244 L59,35.5 L59,67.5 C59,67.7761424 59.2238576,68 59.5,68 C59.7454599,68 59.9496084,67.8231248 59.9919443,67.5898756 L60,67.5 L60,35.5 C60,35.2238576 59.7761424,35 59.5,35 Z M61.5,35 C61.2545401,35 61.0503916,35.1768752 61.0080557,35.4101244 L61,35.5 L61,67.5 C61,67.7761424 61.2238576,68 61.5,68 C61.7454599,68 61.9496084,67.8231248 61.9919443,67.5898756 L62,67.5 L62,35.5 C62,35.2238576 61.7761424,35 61.5,35 Z M63.5,35 C63.2545401,35 63.0503916,35.1768752 63.0080557,35.4101244 L63,35.5 L63,67.5 C63,67.7761424 63.2238576,68 63.5,68 C63.7454599,68 63.9496084,67.8231248 63.9919443,67.5898756 L64,67.5 L64,35.5 C64,35.2238576 63.7761424,35 63.5,35 Z M65.5,35 C65.2545401,35 65.0503916,35.1768752 65.0080557,35.4101244 L65,35.5 L65,67.5 C65,67.7761424 65.2238576,68 65.5,68 C65.7454599,68 65.9496084,67.8231248 65.9919443,67.5898756 L66,67.5 L66,35.5 C66,35.2238576 65.7761424,35 65.5,35 Z M67.5,35 C67.2238576,35 67,35.2238576 67,35.5 L67,35.5 L67,67.5 C67,67.7761424 67.2238576,68 67.5,68 C67.7761424,68 68,67.7761424 68,67.5 L68,67.5 L68,35.5 C68,35.2238576 67.7761424,35 67.5,35 Z M20.5,23 L12.5,23 C12.2545401,23 12.0503916,23.1768752 12.0080557,23.4101244 L12,23.5 L12,31.5 C12,31.7454599 12.1768752,31.9496084 12.4101244,31.9919443 L12.5,32 L20.5,32 C20.7454599,32 20.9496084,31.8231248 20.9919443,31.5898756 L21,31.5 L21,23.5 C21,23.2238576 20.7761424,23 20.5,23 Z M67.5,23 L59.5,23 C59.2545401,23 59.0503916,23.1768752 59.0080557,23.4101244 L59,23.5 L59,31.5 C59,31.7454599 59.1768752,31.9496084 59.4101244,31.9919443 L59.5,32 L67.5,32 C67.7454599,32 67.9496084,31.8231248 67.9919443,31.5898756 L68,31.5 L68,23.5 C68,23.2238576 67.7761424,23 67.5,23 Z M55.5,31 L24.5,31 C24.2238576,31 24,31.2238576 24,31.5 C24,31.7454599 24.1768752,31.9496084 24.4101244,31.9919443 L24.5,32 L55.5,32 C55.7761424,32 56,31.7761424 56,31.5 C56,31.2238576 55.7761424,31 55.5,31 Z M55.5,29 L24.5,29 C24.2238576,29 24,29.2238576 24,29.5 C24,29.7454599 24.1768752,29.9496084 24.4101244,29.9919443 L24.5,30 L55.5,30 C55.7761424,30 56,29.7761424 56,29.5 C56,29.2238576 55.7761424,29 55.5,29 Z M55.5,27 L24.5,27 C24.2238576,27 24,27.2238576 24,27.5 C24,27.7454599 24.1768752,27.9496084 24.4101244,27.9919443 L24.5,28 L55.5,28 C55.7761424,28 56,27.7761424 56,27.5 C56,27.2238576 55.7761424,27 55.5,27 Z M55.5,25 L24.5,25 C24.2238576,25 24,25.2238576 24,25.5 C24,25.7454599 24.1768752,25.9496084 24.4101244,25.9919443 L24.5,26 L55.5,26 C55.7761424,26 56,25.7761424 56,25.5 C56,25.2238576 55.7761424,25 55.5,25 Z M55.5,23 L24.5,23 C24.2238576,23 24,23.2238576 24,23.5 C24,23.7454599 24.1768752,23.9496084 24.4101244,23.9919443 L24.5,24 L55.5,24 C55.7761424,24 56,23.7761424 56,23.5 C56,23.2238576 55.7761424,23 55.5,23 Z" id="main" fill="#FFFFFF"></path>
        <rect id="panel" fill="#FFFFFF" x="25" y="84" width="30" height="31" rx="0.5"></rect>
        <rect id="panel" fill="#FFFFFF" x="25" y="36" width="30" height="31" rx="0.5"></rect>
        <path d="M20,23.5 C20.2761424,23.5 20.5,23.7238576 20.5,24 L20.5,31 C20.5,31.2761424 20.2761424,31.5 20,31.5 L13,31.5 C12.7238576,31.5 12.5,31.2761424 12.5,31 L12.5,24 C12.5,23.7238576 12.7238576,23.5 13,23.5 L20,23.5 Z M18.8571429,24.6428571 L14.1428571,24.6428571 C13.8667148,24.6428571 13.6428571,24.8667148 13.6428571,25.1428571 L13.6428571,25.1428571 L13.6428571,29.8571429 C13.6428571,30.1332852 13.8667148,30.3571429 14.1428571,30.3571429 L14.1428571,30.3571429 L18.8571429,30.3571429 C19.1332852,30.3571429 19.3571429,30.1332852 19.3571429,29.8571429 L19.3571429,29.8571429 L19.3571429,25.1428571 C19.3571429,24.8667148 19.1332852,24.6428571 18.8571429,24.6428571 L18.8571429,24.6428571 Z" id="panel" fill="#FFFFFF"></path>
        <rect id="panel" fill="#FFFFFF" x="14.5" y="25.5" width="4" height="4" rx="0.5"></rect>
        <path d="M67,23.5 C67.2761424,23.5 67.5,23.7238576 67.5,24 L67.5,31 C67.5,31.2761424 67.2761424,31.5 67,31.5 L60,31.5 C59.7238576,31.5 59.5,31.2761424 59.5,31 L59.5,24 C59.5,23.7238576 59.7238576,23.5 60,23.5 L67,23.5 Z M65.8571429,24.6428571 L61.1428571,24.6428571 C60.8667148,24.6428571 60.6428571,24.8667148 60.6428571,25.1428571 L60.6428571,25.1428571 L60.6428571,29.8571429 C60.6428571,30.1332852 60.8667148,30.3571429 61.1428571,30.3571429 L61.1428571,30.3571429 L65.8571429,30.3571429 C66.1332852,30.3571429 66.3571429,30.1332852 66.3571429,29.8571429 L66.3571429,29.8571429 L66.3571429,25.1428571 C66.3571429,24.8667148 66.1332852,24.6428571 65.8571429,24.6428571 L65.8571429,24.6428571 Z" id="panel" fill="#FFFFFF"></path>
        <rect id="panel" fill="#FFFFFF" x="61.5" y="25.5" width="4" height="4" rx="0.5"></rect>
        <path d="M20,71.5 C20.2761424,71.5 20.5,71.7238576 20.5,72 L20.5,79 C20.5,79.2761424 20.2761424,79.5 20,79.5 L13,79.5 C12.7238576,79.5 12.5,79.2761424 12.5,79 L12.5,72 C12.5,71.7238576 12.7238576,71.5 13,71.5 L20,71.5 Z M18.8571429,72.6428571 L14.1428571,72.6428571 C13.8667148,72.6428571 13.6428571,72.8667148 13.6428571,73.1428571 L13.6428571,73.1428571 L13.6428571,77.8571429 C13.6428571,78.1332852 13.8667148,78.3571429 14.1428571,78.3571429 L14.1428571,78.3571429 L18.8571429,78.3571429 C19.1332852,78.3571429 19.3571429,78.1332852 19.3571429,77.8571429 L19.3571429,77.8571429 L19.3571429,73.1428571 C19.3571429,72.8667148 19.1332852,72.6428571 18.8571429,72.6428571 L18.8571429,72.6428571 Z" id="panel" fill="#FFFFFF"></path>
        <rect id="panel" fill="#FFFFFF" x="14.5" y="73.5" width="4" height="4" rx="0.5"></rect>
        <path d="M67,71.5 C67.2761424,71.5 67.5,71.7238576 67.5,72 L67.5,79 C67.5,79.2761424 67.2761424,79.5 67,79.5 L60,79.5 C59.7238576,79.5 59.5,79.2761424 59.5,79 L59.5,72 C59.5,71.7238576 59.7238576,71.5 60,71.5 L67,71.5 Z M65.8571429,72.6428571 L61.1428571,72.6428571 C60.8667148,72.6428571 60.6428571,72.8667148 60.6428571,73.1428571 L60.6428571,73.1428571 L60.6428571,77.8571429 C60.6428571,78.1332852 60.8667148,78.3571429 61.1428571,78.3571429 L61.1428571,78.3571429 L65.8571429,78.3571429 C66.1332852,78.3571429 66.3571429,78.1332852 66.3571429,77.8571429 L66.3571429,77.8571429 L66.3571429,73.1428571 C66.3571429,72.8667148 66.1332852,72.6428571 65.8571429,72.6428571 L65.8571429,72.6428571 Z" id="panel" fill="#FFFFFF"></path>
        <rect id="panel" fill="#FFFFFF" x="61.5" y="73.5" width="4" height="4" rx="0.5"></rect>
        <path d="M20,119.5 C20.2761424,119.5 20.5,119.723858 20.5,120 L20.5,127 C20.5,127.276142 20.2761424,127.5 20,127.5 L13,127.5 C12.7238576,127.5 12.5,127.276142 12.5,127 L12.5,120 C12.5,119.723858 12.7238576,119.5 13,119.5 L20,119.5 Z M18.8571429,120.642857 L14.1428571,120.642857 C13.8667148,120.642857 13.6428571,120.866715 13.6428571,121.142857 L13.6428571,121.142857 L13.6428571,125.857143 C13.6428571,126.133285 13.8667148,126.357143 14.1428571,126.357143 L14.1428571,126.357143 L18.8571429,126.357143 C19.1332852,126.357143 19.3571429,126.133285 19.3571429,125.857143 L19.3571429,125.857143 L19.3571429,121.142857 C19.3571429,120.866715 19.1332852,120.642857 18.8571429,120.642857 L18.8571429,120.642857 Z" id="panel" fill="#FFFFFF"></path>
        <rect id="panel" fill="#FFFFFF" x="14.5" y="121.5" width="4" height="4" rx="0.5"></rect>
        <path d="M67,119.5 C67.2761424,119.5 67.5,119.723858 67.5,120 L67.5,127 C67.5,127.276142 67.2761424,127.5 67,127.5 L60,127.5 C59.7238576,127.5 59.5,127.276142 59.5,127 L59.5,120 C59.5,119.723858 59.7238576,119.5 60,119.5 L67,119.5 Z M65.8571429,120.642857 L61.1428571,120.642857 C60.8667148,120.642857 60.6428571,120.866715 60.6428571,121.142857 L60.6428571,121.142857 L60.6428571,125.857143 C60.6428571,126.133285 60.8667148,126.357143 61.1428571,126.357143 L61.1428571,126.357143 L65.8571429,126.357143 C66.1332852,126.357143 66.3571429,126.133285 66.3571429,125.857143 L66.3571429,125.857143 L66.3571429,121.142857 C66.3571429,120.866715 66.1332852,120.642857 65.8571429,120.642857 L65.8571429,120.642857 Z" id="panel" fill="#FFFFFF"></path>
        <rect id="panel" fill="#FFFFFF" x="61.5" y="121.5" width="4" height="4" rx="0.5"></rect>
        <path d="M20,167.5 C20.2761424,167.5 20.5,167.723858 20.5,168 L20.5,175 C20.5,175.276142 20.2761424,175.5 20,175.5 L13,175.5 C12.7238576,175.5 12.5,175.276142 12.5,175 L12.5,168 C12.5,167.723858 12.7238576,167.5 13,167.5 L20,167.5 Z M18.8571429,168.642857 L14.1428571,168.642857 C13.8667148,168.642857 13.6428571,168.866715 13.6428571,169.142857 L13.6428571,169.142857 L13.6428571,173.857143 C13.6428571,174.133285 13.8667148,174.357143 14.1428571,174.357143 L14.1428571,174.357143 L18.8571429,174.357143 C19.1332852,174.357143 19.3571429,174.133285 19.3571429,173.857143 L19.3571429,173.857143 L19.3571429,169.142857 C19.3571429,168.866715 19.1332852,168.642857 18.8571429,168.642857 L18.8571429,168.642857 Z" id="panel" fill="#FFFFFF"></path>
        <rect id="panel" fill="#FFFFFF" x="14.5" y="169.5" width="4" height="4" rx="0.5"></rect>
        <path d="M67,167.5 C67.2761424,167.5 67.5,167.723858 67.5,168 L67.5,175 C67.5,175.276142 67.2761424,175.5 67,175.5 L60,175.5 C59.7238576,175.5 59.5,175.276142 59.5,175 L59.5,168 C59.5,167.723858 59.7238576,167.5 60,167.5 L67,167.5 Z M65.8571429,168.642857 L61.1428571,168.642857 C60.8667148,168.642857 60.6428571,168.866715 60.6428571,169.142857 L60.6428571,169.142857 L60.6428571,173.857143 C60.6428571,174.133285 60.8667148,174.357143 61.1428571,174.357143 L61.1428571,174.357143 L65.8571429,174.357143 C66.1332852,174.357143 66.3571429,174.133285 66.3571429,173.857143 L66.3571429,173.857143 L66.3571429,169.142857 C66.3571429,168.866715 66.1332852,168.642857 65.8571429,168.642857 L65.8571429,168.642857 Z" id="panel" fill="#FFFFFF"></path>
        <rect id="panel" fill="#FFFFFF" x="61.5" y="169.5" width="4" height="4" rx="0.5"></rect>
        <rect id="panel" fill="#FFFFFF" x="25" y="132" width="30" height="31" rx="0.5"></rect>
        <circle id="peephole" fill="#516DBF" cx="40" cy="58.5" r="1.5"></circle>
    </g>
</svg>