<?xml version="1.0" encoding="UTF-8"?>
<svg width="80px" height="200px" viewBox="0 0 80 200" version="1.1" xmlns="http://www.w3.org/2000/svg" xmlns:xlink="http://www.w3.org/1999/xlink">
    <!-- Generator: Sketch 58 (84663) - https://sketch.com -->
    <title>0702</title>
    <desc>Created with Sketch.</desc>
    <g id="0702" stroke="none" stroke-width="1" fill="none" fill-rule="evenodd">
        <rect id="base" fill="#888888" x="0" y="0" width="80" height="200"></rect>
        <path d="M80,0 L80,200 L0,200 L0,0 L80,0 Z M66.5,21 L13.5,21 C13.2238576,21 13,21.2238576 13,21.5 L13,21.5 L13,178.5 C13,178.776142 13.2238576,179 13.5,179 L13.5,179 L66.5,179 C66.7761424,179 67,178.776142 67,178.5 L67,178.5 L67,21.5 C67,21.2238576 66.7761424,21 66.5,21 L66.5,21 Z" id="main" fill="#FFFFFF"></path>
        <path d="M65.5,22 C65.7761424,22 66,22.2238576 66,22.5 L66,177.5 C66,177.776142 65.7761424,178 65.5,178 L14.5,178 C14.2238576,178 14,177.776142 14,177.5 L14,22.5 C14,22.2238576 14.2238576,22 14.5,22 L65.5,22 Z M23.5,168 L17.5,168 C17.2545401,168 17.0503916,168.176875 17.0080557,168.410124 L17,168.5 L17,174.5 C17,174.74546 17.1768752,174.949608 17.4101244,174.991944 L17.5,175 L23.5,175 C23.7454599,175 23.9496084,174.823125 23.9919443,174.589876 L24,174.5 L24,168.5 C24,168.223858 23.7761424,168 23.5,168 Z M62.5,168 L56.5,168 C56.2545401,168 56.0503916,168.176875 56.0080557,168.410124 L56,168.5 L56,174.5 C56,174.74546 56.1768752,174.949608 56.4101244,174.991944 L56.5,175 L62.5,175 C62.7454599,175 62.9496084,174.823125 62.9919443,174.589876 L63,174.5 L63,168.5 C63,168.223858 62.7761424,168 62.5,168 Z M53.5,174 L26.5,174 C26.2238576,174 26,174.223858 26,174.5 C26,174.776142 26.2238576,175 26.5,175 L26.5,175 L53.5,175 C53.7761424,175 54,174.776142 54,174.5 C54,174.223858 53.7761424,174 53.5,174 L53.5,174 Z M53.5,171 L26.5,171 C26.2238576,171 26,171.223858 26,171.5 C26,171.74546 26.1768752,171.949608 26.4101244,171.991944 L26.5,172 L53.5,172 C53.7761424,172 54,171.776142 54,171.5 C54,171.223858 53.7761424,171 53.5,171 Z M53.5,168 L26.5,168 C26.2238576,168 26,168.223858 26,168.5 C26,168.74546 26.1768752,168.949608 26.4101244,168.991944 L26.5,169 L53.5,169 C53.7761424,169 54,168.776142 54,168.5 C54,168.223858 53.7761424,168 53.5,168 Z M17.5,34 C17.2545401,34 17.0503916,34.1768752 17.0080557,34.4101244 L17,34.5 L17,165.5 C17,165.776142 17.2238576,166 17.5,166 C17.7454599,166 17.9496084,165.823125 17.9919443,165.589876 L18,165.5 L18,34.5 C18,34.2238576 17.7761424,34 17.5,34 Z M20.5,34 C20.2545401,34 20.0503916,34.1768752 20.0080557,34.4101244 L20,34.5 L20,165.5 C20,165.776142 20.2238576,166 20.5,166 C20.7454599,166 20.9496084,165.823125 20.9919443,165.589876 L21,165.5 L21,34.5 C21,34.2238576 20.7761424,34 20.5,34 Z M23.5,34 C23.2545401,34 23.0503916,34.1768752 23.0080557,34.4101244 L23,34.5 L23,165.5 C23,165.776142 23.2238576,166 23.5,166 C23.7454599,166 23.9496084,165.823125 23.9919443,165.589876 L24,165.5 L24,34.5 C24,34.2238576 23.7761424,34 23.5,34 Z M56.5,34 C56.2545401,34 56.0503916,34.1768752 56.0080557,34.4101244 L56,34.5 L56,165.5 C56,165.776142 56.2238576,166 56.5,166 C56.7454599,166 56.9496084,165.823125 56.9919443,165.589876 L57,165.5 L57,34.5 C57,34.2238576 56.7761424,34 56.5,34 Z M59.5,34 C59.2545401,34 59.0503916,34.1768752 59.0080557,34.4101244 L59,34.5 L59,165.5 C59,165.776142 59.2238576,166 59.5,166 C59.7454599,166 59.9496084,165.823125 59.9919443,165.589876 L60,165.5 L60,34.5 C60,34.2238576 59.7761424,34 59.5,34 Z M62.5,34 C62.2545401,34 62.0503916,34.1768752 62.0080557,34.4101244 L62,34.5 L62,165.5 C62,165.776142 62.2238576,166 62.5,166 C62.7454599,166 62.9496084,165.823125 62.9919443,165.589876 L63,165.5 L63,34.5 C63,34.2238576 62.7761424,34 62.5,34 Z M52.5,138 L27.5,138 C27.2545401,138 27.0503916,138.176875 27.0080557,138.410124 L27,138.5 L27,163.5 C27,163.74546 27.1768752,163.949608 27.4101244,163.991944 L27.5,164 L52.5,164 C52.7454599,164 52.9496084,163.823125 52.9919443,163.589876 L53,163.5 L53,138.5 C53,138.223858 52.7761424,138 52.5,138 Z M52.5,104 L27.5,104 C27.2545401,104 27.0503916,104.176875 27.0080557,104.410124 L27,104.5 L27,129.5 C27,129.74546 27.1768752,129.949608 27.4101244,129.991944 L27.5,130 L52.5,130 C52.7454599,130 52.9496084,129.823125 52.9919443,129.589876 L53,129.5 L53,104.5 C53,104.223858 52.7761424,104 52.5,104 Z M52.5,70 L27.5,70 C27.2545401,70 27.0503916,70.1768752 27.0080557,70.4101244 L27,70.5 L27,95.5 C27,95.7454599 27.1768752,95.9496084 27.4101244,95.9919443 L27.5,96 L52.5,96 C52.7454599,96 52.9496084,95.8231248 52.9919443,95.5898756 L53,95.5 L53,70.5 C53,70.2238576 52.7761424,70 52.5,70 Z M52.5,36 L27.5,36 C27.2545401,36 27.0503916,36.1768752 27.0080557,36.4101244 L27,36.5 L27,61.5 C27,61.7454599 27.1768752,61.9496084 27.4101244,61.9919443 L27.5,62 L52.5,62 C52.7454599,62 52.9496084,61.8231248 52.9919443,61.5898756 L53,61.5 L53,36.5 C53,36.2238576 52.7761424,36 52.5,36 Z M62.5,25 L56.5,25 C56.2545401,25 56.0503916,25.1768752 56.0080557,25.4101244 L56,25.5 L56,31.5 C56,31.7454599 56.1768752,31.9496084 56.4101244,31.9919443 L56.5,32 L62.5,32 C62.7454599,32 62.9496084,31.8231248 62.9919443,31.5898756 L63,31.5 L63,25.5 C63,25.2238576 62.7761424,25 62.5,25 Z M23.5,25 L17.5,25 C17.2545401,25 17.0503916,25.1768752 17.0080557,25.4101244 L17,25.5 L17,31.5 C17,31.7454599 17.1768752,31.9496084 17.4101244,31.9919443 L17.5,32 L23.5,32 C23.7454599,32 23.9496084,31.8231248 23.9919443,31.5898756 L24,31.5 L24,25.5 C24,25.2238576 23.7761424,25 23.5,25 Z M53.5,31 L26.5,31 C26.2238576,31 26,31.2238576 26,31.5 C26,31.7454599 26.1768752,31.9496084 26.4101244,31.9919443 L26.5,32 L53.5,32 C53.7761424,32 54,31.7761424 54,31.5 C54,31.2238576 53.7761424,31 53.5,31 Z M53.5,28 L26.5,28 C26.2238576,28 26,28.2238576 26,28.5 C26,28.7454599 26.1768752,28.9496084 26.4101244,28.9919443 L26.5,29 L53.5,29 C53.7761424,29 54,28.7761424 54,28.5 C54,28.2238576 53.7761424,28 53.5,28 Z M53.5,25 L26.5,25 C26.2238576,25 26,25.2238576 26,25.5 C26,25.7454599 26.1768752,25.9496084 26.4101244,25.9919443 L26.5,26 L53.5,26 C53.7761424,26 54,25.7761424 54,25.5 C54,25.2238576 53.7761424,25 53.5,25 Z" id="panel" fill="#FFFFFF"></path>
        <path d="M18.5,26 L22.5,26 C22.7761424,26 23,26.2238576 23,26.5 L23,30.5 C23,30.7761424 22.7761424,31 22.5,31 L18.5,31 C18.2238576,31 18,30.7761424 18,30.5 L18,26.5 C18,26.2238576 18.2238576,26 18.5,26 Z" id="panel" fill="#FFFFFF"></path>
        <path d="M28.5,37 L51.5,37 C51.7761424,37 52,37.2238576 52,37.5 L52,60.5 C52,60.7761424 51.7761424,61 51.5,61 L28.5,61 C28.2238576,61 28,60.7761424 28,60.5 L28,37.5 C28,37.2238576 28.2238576,37 28.5,37 Z" id="panel" fill="#FFFFFF"></path>
        <path d="M28.5,71 L51.5,71 C51.7761424,71 52,71.2238576 52,71.5 L52,94.5 C52,94.7761424 51.7761424,95 51.5,95 L28.5,95 C28.2238576,95 28,94.7761424 28,94.5 L28,71.5 C28,71.2238576 28.2238576,71 28.5,71 Z" id="panel" fill="#FFFFFF"></path>
        <path d="M28.5,105 L51.5,105 C51.7761424,105 52,105.223858 52,105.5 L52,128.5 C52,128.776142 51.7761424,129 51.5,129 L28.5,129 C28.2238576,129 28,128.776142 28,128.5 L28,105.5 C28,105.223858 28.2238576,105 28.5,105 Z" id="panel" fill="#FFFFFF"></path>
        <path d="M28.5,139 L51.5,139 C51.7761424,139 52,139.223858 52,139.5 L52,162.5 C52,162.776142 51.7761424,163 51.5,163 L28.5,163 C28.2238576,163 28,162.776142 28,162.5 L28,139.5 C28,139.223858 28.2238576,139 28.5,139 Z" id="panel" fill="#FFFFFF"></path>
        <path d="M57.5,26 L61.5,26 C61.7761424,26 62,26.2238576 62,26.5 L62,30.5 C62,30.7761424 61.7761424,31 61.5,31 L57.5,31 C57.2238576,31 57,30.7761424 57,30.5 L57,26.5 C57,26.2238576 57.2238576,26 57.5,26 Z" id="panel" fill="#FFFFFF"></path>
        <path d="M18.5,169 L22.5,169 C22.7761424,169 23,169.223858 23,169.5 L23,173.5 C23,173.776142 22.7761424,174 22.5,174 L18.5,174 C18.2238576,174 18,173.776142 18,173.5 L18,169.5 C18,169.223858 18.2238576,169 18.5,169 Z" id="panel" fill="#FFFFFF"></path>
        <path d="M57.5,169 L61.5,169 C61.7761424,169 62,169.223858 62,169.5 L62,173.5 C62,173.776142 61.7761424,174 61.5,174 L57.5,174 C57.2238576,174 57,173.776142 57,173.5 L57,169.5 C57,169.223858 57.2238576,169 57.5,169 Z" id="panel" fill="#FFFFFF"></path>
        <circle id="peephole" fill="#516DBF" cx="40" cy="52.5" r="1.5"></circle>
    </g>
</svg>