<?xml version="1.0" encoding="UTF-8"?>
<svg width="80px" height="200px" viewBox="0 0 80 200" version="1.1" xmlns="http://www.w3.org/2000/svg" xmlns:xlink="http://www.w3.org/1999/xlink">
    <!-- Generator: Sketch 58 (84663) - https://sketch.com -->
    <title>0801</title>
    <desc>Created with Sketch.</desc>
    <g id="0801" stroke="none" stroke-width="1" fill="none" fill-rule="evenodd">
        <rect id="base" fill="#888888" x="0" y="0" width="80" height="200"></rect>
        <path d="M80,0 L80,200 L0,200 L0,0 L80,0 Z M67.5,125 L12.5,125 C12.2545401,125 12.0503916,125.176875 12.0080557,125.410124 L12,125.5 L12,184.5 C12,184.74546 12.1768752,184.949608 12.4101244,184.991944 L12.5,185 L67.5,185 C67.7454599,185 67.9496084,184.823125 67.9919443,184.589876 L68,184.5 L68,125.5 C68,125.223858 67.7761424,125 67.5,125 Z M27.5,105 L12.5,105 C12.2545401,105 12.0503916,105.176875 12.0080557,105.410124 L12,105.5 L12,120.5 C12,120.74546 12.1768752,120.949608 12.4101244,120.991944 L12.5,121 L27.5,121 C27.7454599,121 27.9496084,120.823125 27.9919443,120.589876 L28,120.5 L28,105.5 C28,105.223858 27.7761424,105 27.5,105 Z M47.5,105 L32.5,105 C32.2545401,105 32.0503916,105.176875 32.0080557,105.410124 L32,105.5 L32,120.5 C32,120.74546 32.1768752,120.949608 32.4101244,120.991944 L32.5,121 L47.5,121 C47.7454599,121 47.9496084,120.823125 47.9919443,120.589876 L48,120.5 L48,105.5 C48,105.223858 47.7761424,105 47.5,105 Z M67.5,105 L52.5,105 C52.2238576,105 52,105.223858 52,105.5 L52,105.5 L52,120.5 C52,120.776142 52.2238576,121 52.5,121 L52.5,121 L67.5,121 C67.7761424,121 68,120.776142 68,120.5 L68,120.5 L68,105.5 C68,105.223858 67.7761424,105 67.5,105 L67.5,105 Z M67.5,15 L12.5,15 C12.2545401,15 12.0503916,15.1768752 12.0080557,15.4101244 L12,15.5 L12,99.5 C12,99.7454599 12.1768752,99.9496084 12.4101244,99.9919443 L12.5,100 L67.5,100 C67.7454599,100 67.9496084,99.8231248 67.9919443,99.5898756 L68,99.5 L68,15.5 C68,15.2238576 67.7761424,15 67.5,15 Z" id="main" fill="#FFFFFF"></path>
        <path d="M13.5,126 L66.5,126 C66.7761424,126 67,126.223858 67,126.5 L67,183.5 C67,183.776142 66.7761424,184 66.5,184 L13.5,184 C13.2238576,184 13,183.776142 13,183.5 L13,126.5 C13,126.223858 13.2238576,126 13.5,126 Z" id="panel" fill="#FFFFFF"></path>
        <path d="M13.5,16 L66.5,16 C66.7761424,16 67,16.2238576 67,16.5 L67,98.5 C67,98.7761424 66.7761424,99 66.5,99 L13.5,99 C13.2238576,99 13,98.7761424 13,98.5 L13,16.5 C13,16.2238576 13.2238576,16 13.5,16 Z" id="panel" fill="#FFFFFF"></path>
        <path d="M13.5,106 L26.5,106 C26.7761424,106 27,106.223858 27,106.5 L27,119.5 C27,119.776142 26.7761424,120 26.5,120 L13.5,120 C13.2238576,120 13,119.776142 13,119.5 L13,106.5 C13,106.223858 13.2238576,106 13.5,106 Z" id="panel" fill="#FFFFFF"></path>
        <path d="M33.5,106 L46.5,106 C46.7761424,106 47,106.223858 47,106.5 L47,119.5 C47,119.776142 46.7761424,120 46.5,120 L33.5,120 C33.2238576,120 33,119.776142 33,119.5 L33,106.5 C33,106.223858 33.2238576,106 33.5,106 Z" id="panel" fill="#FFFFFF"></path>
        <path d="M53.5,106 L66.5,106 C66.7761424,106 67,106.223858 67,106.5 L67,119.5 C67,119.776142 66.7761424,120 66.5,120 L53.5,120 C53.2238576,120 53,119.776142 53,119.5 L53,106.5 C53,106.223858 53.2238576,106 53.5,106 Z" id="panel" fill="#FFFFFF"></path>
        <circle id="peephole" fill="#516DBF" cx="40" cy="55.5" r="1.5"></circle>
    </g>
</svg>