<?xml version="1.0" encoding="UTF-8"?>
<svg width="80px" height="200px" viewBox="0 0 80 200" version="1.1" xmlns="http://www.w3.org/2000/svg" xmlns:xlink="http://www.w3.org/1999/xlink">
    <!-- Generator: Sketch 58 (84663) - https://sketch.com -->
    <title>0802</title>
    <desc>Created with Sketch.</desc>
    <g id="0802" stroke="none" stroke-width="1" fill="none" fill-rule="evenodd">
        <rect id="base" fill="#888888" x="0" y="0" width="80" height="200"></rect>
        <path d="M80,0 L80,200 L0,200 L0,0 L80,0 Z M67.5,115 L12.5,115 C12.2545401,115 12.0503916,115.176875 12.0080557,115.410124 L12,115.5 L12,184.5 C12,184.74546 12.1768752,184.949608 12.4101244,184.991944 L12.5,185 L67.5,185 C67.7454599,185 67.9496084,184.823125 67.9919443,184.589876 L68,184.5 L68,115.5 C68,115.223858 67.7761424,115 67.5,115 Z M67.5,15 L12.5,15 C12.2238576,15 12,15.2238576 12,15.5 L12,15.5 L12,106.5 C12,106.776142 12.2238576,107 12.5,107 L12.5,107 L67.5,107 C67.7761424,107 68,106.776142 68,106.5 L68,106.5 L68,15.5 C68,15.2238576 67.7761424,15 67.5,15 L67.5,15 Z" id="main" fill="#FFFFFF"></path>
        <path d="M13.5,116 L66.5,116 C66.7761424,116 67,116.223858 67,116.5 L67,183.5 C67,183.776142 66.7761424,184 66.5,184 L13.5,184 C13.2238576,184 13,183.776142 13,183.5 L13,116.5 C13,116.223858 13.2238576,116 13.5,116 Z" id="panel" fill="#FFFFFF"></path>
        <path d="M13.5,16 L66.5,16 C66.7761424,16 67,16.2238576 67,16.5 L67,105.5 C67,105.776142 66.7761424,106 66.5,106 L13.5,106 C13.2238576,106 13,105.776142 13,105.5 L13,16.5 C13,16.2238576 13.2238576,16 13.5,16 Z" id="panel" fill="#FFFFFF"></path>
        <circle id="peephole" fill="#516DBF" cx="40" cy="55.5" r="1.5"></circle>
    </g>
</svg>