<?xml version="1.0" encoding="UTF-8"?>
<svg width="80px" height="200px" viewBox="0 0 80 200" version="1.1" xmlns="http://www.w3.org/2000/svg" xmlns:xlink="http://www.w3.org/1999/xlink">
    <!-- Generator: Sketch 58 (84663) - https://sketch.com -->
    <title>0803</title>
    <desc>Created with Sketch.</desc>
    <g id="0803" stroke="none" stroke-width="1" fill="none" fill-rule="evenodd">
        <rect id="base" fill="#888888" x="0" y="0" width="80" height="200"></rect>
        <path d="M80,0 L80,200 L0,200 L0,0 L80,0 Z M67.5,125 L12.5,125 C12.2238576,125 12,125.223858 12,125.5 L12,125.5 L12,184.5 C12,184.776142 12.2238576,185 12.5,185 L12.5,185 L67.5,185 C67.7761424,185 68,184.776142 68,184.5 L68,184.5 L68,125.5 C68,125.223858 67.7761424,125 67.5,125 L67.5,125 Z M67.5,101 L12.5,101 C12.2545401,101 12.0503916,101.176875 12.0080557,101.410124 L12,101.5 L12,120.5 C12,120.74546 12.1768752,120.949608 12.4101244,120.991944 L12.5,121 L67.5,121 C67.7454599,121 67.9496084,120.823125 67.9919443,120.589876 L68,120.5 L68,101.5 C68,101.223858 67.7761424,101 67.5,101 Z M67.5,15 L12.5,15 C12.2545401,15 12.0503916,15.1768752 12.0080557,15.4101244 L12,15.5 L12,96.5 C12,96.7454599 12.1768752,96.9496084 12.4101244,96.9919443 L12.5,97 L67.5,97 C67.7454599,97 67.9496084,96.8231248 67.9919443,96.5898756 L68,96.5 L68,15.5 C68,15.2238576 67.7761424,15 67.5,15 Z" id="main" fill="#FFFFFF"></path>
        <path d="M13.5,16 L66.5,16 C66.7761424,16 67,16.2238576 67,16.5 L67,95.5 C67,95.7761424 66.7761424,96 66.5,96 L13.5,96 C13.2238576,96 13,95.7761424 13,95.5 L13,16.5 C13,16.2238576 13.2238576,16 13.5,16 Z" id="panel" fill="#FFFFFF"></path>
        <path d="M13.5,102 L66.5,102 C66.7761424,102 67,102.223858 67,102.5 L67,119.5 C67,119.776142 66.7761424,120 66.5,120 L13.5,120 C13.2238576,120 13,119.776142 13,119.5 L13,102.5 C13,102.223858 13.2238576,102 13.5,102 Z" id="panel" fill="#FFFFFF"></path>
        <path d="M13.5,126 L66.5,126 C66.7761424,126 67,126.223858 67,126.5 L67,183.5 C67,183.776142 66.7761424,184 66.5,184 L13.5,184 C13.2238576,184 13,183.776142 13,183.5 L13,126.5 C13,126.223858 13.2238576,126 13.5,126 Z" id="panel" fill="#FFFFFF"></path>
        <circle id="peephole" fill="#516DBF" cx="40" cy="55.5" r="1.5"></circle>
    </g>
</svg>