<?xml version="1.0" encoding="UTF-8"?>
<svg width="110px" height="200px" viewBox="0 0 110 200" version="1.1" xmlns="http://www.w3.org/2000/svg" xmlns:xlink="http://www.w3.org/1999/xlink">
    <!-- Generator: Sketch 58 (84663) - https://sketch.com -->
    <title>1002</title>
    <desc>Created with Sketch.</desc>
    <g id="1002" stroke="none" stroke-width="1" fill="none" fill-rule="evenodd">
        <rect id="base" fill="#888888" x="30" y="0" width="80" height="200"></rect>
        <path d="M110,0 L110,200 L30,200 L30,0 L110,0 Z M57.5,105 L42.5,105 C42.2545401,105 42.0503916,105.176875 42.0080557,105.410124 L42,105.5 L42,184.5 C42,184.74546 42.1768752,184.949608 42.4101244,184.991944 L42.5,185 L57.5,185 C57.7454599,185 57.9496084,184.823125 57.9919443,184.589876 L58,184.5 L58,105.5 C58,105.223858 57.7761424,105 57.5,105 Z M77.5,135 L62.5,135 C62.2545401,135 62.0503916,135.176875 62.0080557,135.410124 L62,135.5 L62,184.5 C62,184.74546 62.1768752,184.949608 62.4101244,184.991944 L62.5,185 L77.5,185 C77.7454599,185 77.9496084,184.823125 77.9919443,184.589876 L78,184.5 L78,135.5 C78,135.223858 77.7761424,135 77.5,135 Z M97.5,165 L82.5,165 C82.2238576,165 82,165.223858 82,165.5 L82,165.5 L82,184.5 C82,184.776142 82.2238576,185 82.5,185 L82.5,185 L97.5,185 C97.7761424,185 98,184.776142 98,184.5 L98,184.5 L98,165.5 C98,165.223858 97.7761424,165 97.5,165 L97.5,165 Z M97.5,145 L82.5,145 C82.2545401,145 82.0503916,145.176875 82.0080557,145.410124 L82,145.5 L82,160.5 C82,160.74546 82.1768752,160.949608 82.4101244,160.991944 L82.5,161 L97.5,161 C97.7454599,161 97.9496084,160.823125 97.9919443,160.589876 L98,160.5 L98,145.5 C98,145.223858 97.7761424,145 97.5,145 Z M97.5,15 L82.5,15 C82.2545401,15 82.0503916,15.1768752 82.0080557,15.4101244 L82,15.5 L82,139.5 C82,139.74546 82.1768752,139.949608 82.4101244,139.991944 L82.5,140 L97.5,140 C97.7454599,140 97.9496084,139.823125 97.9919443,139.589876 L98,139.5 L98,15.5 C98,15.2238576 97.7761424,15 97.5,15 Z M77.5,114 L62.5,114 C62.2545401,114 62.0503916,114.176875 62.0080557,114.410124 L62,114.5 L62,129.5 C62,129.74546 62.1768752,129.949608 62.4101244,129.991944 L62.5,130 L77.5,130 C77.7454599,130 77.9496084,129.823125 77.9919443,129.589876 L78,129.5 L78,114.5 C78,114.223858 77.7761424,114 77.5,114 Z M77.5,15 L62.5,15 C62.2545401,15 62.0503916,15.1768752 62.0080557,15.4101244 L62,15.5 L62,108.5 C62,108.74546 62.1768752,108.949608 62.4101244,108.991944 L62.5,109 L77.5,109 C77.7454599,109 77.9496084,108.823125 77.9919443,108.589876 L78,108.5 L78,15.5 C78,15.2238576 77.7761424,15 77.5,15 Z M57.5,85 L42.5,85 C42.2545401,85 42.0503916,85.1768752 42.0080557,85.4101244 L42,85.5 L42,100.5 C42,100.74546 42.1768752,100.949608 42.4101244,100.991944 L42.5,101 L57.5,101 C57.7454599,101 57.9496084,100.823125 57.9919443,100.589876 L58,100.5 L58,85.5 C58,85.2238576 57.7761424,85 57.5,85 Z M57.5,15 L42.5,15 C42.2545401,15 42.0503916,15.1768752 42.0080557,15.4101244 L42,15.5 L42,79.5 C42,79.7454599 42.1768752,79.9496084 42.4101244,79.9919443 L42.5,80 L57.5,80 C57.7454599,80 57.9496084,79.8231248 57.9919443,79.5898756 L58,79.5 L58,15.5 C58,15.2238576 57.7761424,15 57.5,15 Z" id="main" fill="#FFFFFF"></path>
        <path d="M43.5,106 L56.5,106 C56.7761424,106 57,106.223858 57,106.5 L57,183.5 C57,183.776142 56.7761424,184 56.5,184 L43.5,184 C43.2238576,184 43,183.776142 43,183.5 L43,106.5 C43,106.223858 43.2238576,106 43.5,106 Z" id="panel" fill="#FFFFFF"></path>
        <path d="M43.5,16 L56.5,16 C56.7761424,16 57,16.2238576 57,16.5 L57,78.5 C57,78.7761424 56.7761424,79 56.5,79 L43.5,79 C43.2238576,79 43,78.7761424 43,78.5 L43,16.5 C43,16.2238576 43.2238576,16 43.5,16 Z" id="panel" fill="#FFFFFF"></path>
        <path d="M43.5,86 L56.5,86 C56.7761424,86 57,86.2238576 57,86.5 L57,99.5 C57,99.7761424 56.7761424,100 56.5,100 L43.5,100 C43.2238576,100 43,99.7761424 43,99.5 L43,86.5 C43,86.2238576 43.2238576,86 43.5,86 Z" id="panel" fill="#FFFFFF"></path>
        <path d="M63.5,136 L76.5,136 C76.7761424,136 77,136.223858 77,136.5 L77,183.5 C77,183.776142 76.7761424,184 76.5,184 L63.5,184 C63.2238576,184 63,183.776142 63,183.5 L63,136.5 C63,136.223858 63.2238576,136 63.5,136 Z" id="panel" fill="#FFFFFF"></path>
        <path d="M63.5,16 L76.5,16 C76.7761424,16 77,16.2238576 77,16.5 L77,107.5 C77,107.776142 76.7761424,108 76.5,108 L63.5,108 C63.2238576,108 63,107.776142 63,107.5 L63,16.5 C63,16.2238576 63.2238576,16 63.5,16 Z" id="panel" fill="#FFFFFF"></path>
        <path d="M63.5,115 L76.5,115 C76.7761424,115 77,115.223858 77,115.5 L77,128.5 C77,128.776142 76.7761424,129 76.5,129 L63.5,129 C63.2238576,129 63,128.776142 63,128.5 L63,115.5 C63,115.223858 63.2238576,115 63.5,115 Z" id="panel" fill="#FFFFFF"></path>
        <path d="M83.5,166 L96.5,166 C96.7761424,166 97,166.223858 97,166.5 L97,183.5 C97,183.776142 96.7761424,184 96.5,184 L83.5,184 C83.2238576,184 83,183.776142 83,183.5 L83,166.5 C83,166.223858 83.2238576,166 83.5,166 Z" id="panel" fill="#FFFFFF"></path>
        <path d="M83.5,16 L96.5,16 C96.7761424,16 97,16.2238576 97,16.5 L97,138.5 C97,138.776142 96.7761424,139 96.5,139 L83.5,139 C83.2238576,139 83,138.776142 83,138.5 L83,16.5 C83,16.2238576 83.2238576,16 83.5,16 Z" id="panel" fill="#FFFFFF"></path>
        <path d="M83.5,146 L96.5,146 C96.7761424,146 97,146.223858 97,146.5 L97,159.5 C97,159.776142 96.7761424,160 96.5,160 L83.5,160 C83.2238576,160 83,159.776142 83,159.5 L83,146.5 C83,146.223858 83.2238576,146 83.5,146 Z" id="panel" fill="#FFFFFF"></path>
        <rect id="base" fill="#888888" x="0" y="0" width="30" height="200"></rect>
        <path d="M30,0 L30,200 L0,200 L0,0 L30,0 Z M22.5,75 L7.5,75 C7.22385763,75 7,75.3078042 7,75.6875 L7,75.6875 L7,184.3125 C7,184.692196 7.22385763,185 7.5,185 L7.5,185 L22.5,185 C22.7761424,185 23,184.692196 23,184.3125 L23,184.3125 L23,75.6875 C23,75.3078042 22.7761424,75 22.5,75 L22.5,75 Z M22.5,55 L7.5,55 C7.25454011,55 7.05039163,55.1768752 7.00805567,55.4101244 L7,55.5 L7,70.5 C7,70.7454599 7.17687516,70.9496084 7.41012437,70.9919443 L7.5,71 L22.5,71 C22.7454599,71 22.9496084,70.8231248 22.9919443,70.5898756 L23,70.5 L23,55.5 C23,55.2238576 22.7761424,55 22.5,55 Z M22.5,15 L7.5,15 C7.25837542,15 7.05678136,15.0922875 7.01015822,15.2149714 L7,15.2692308 L7,49.7307692 C7,49.8608748 7.17139099,49.9694254 7.39923256,49.9945302 L7.5,50 L22.5,50 C22.7416246,50 22.9432186,49.9077125 22.9898418,49.7850286 L23,49.7307692 L23,15.2692308 C23,15.1205387 22.7761424,15 22.5,15 Z" id="main" fill="#FFFFFF"></path>
        <path d="M8.5,76 L21.5,76 C21.7761424,76 22,76.3099567 22,76.6923077 L22,183.307692 C22,183.690043 21.7761424,184 21.5,184 L8.5,184 C8.22385763,184 8,183.690043 8,183.307692 L8,76.6923077 C8,76.3099567 8.22385763,76 8.5,76 Z" id="panel" fill="#FFFFFF"></path>
        <path d="M8.5,16 L21.5,16 C21.7761424,16 22,16.1172588 22,16.2619048 L22,48.7380952 C22,48.8827412 21.7761424,49 21.5,49 L8.5,49 C8.22385763,49 8,48.8827412 8,48.7380952 L8,16.2619048 C8,16.1172588 8.22385763,16 8.5,16 Z" id="panel" fill="#FFFFFF"></path>
        <path d="M8.5,56 L21.5,56 C21.7761424,56 22,56.2238576 22,56.5 L22,69.5 C22,69.7761424 21.7761424,70 21.5,70 L8.5,70 C8.22385763,70 8,69.7761424 8,69.5 L8,56.5 C8,56.2238576 8.22385763,56 8.5,56 Z" id="panel" fill="#FFFFFF"></path>
    </g>
</svg>